<svg version="1.2" xmlns="http://www.w3.org/2000/svg" viewBox="0 0 977 981" width="977" height="981">
	<title>Enigma-orginal-svg</title>
	<style>
		.s0 { fill: #c6e4e9;stroke: #0f336c;stroke-width: 10 } 
		.s1 { fill: #267000;stroke: #000000 } 
		.s2 { fill: #453276;stroke: #000000 } 
		.s3 { fill: #0f336c;stroke: #000000 } 
		.s4 { fill: #267000 } 
		.s5 { fill: none;stroke: #000000;stroke-width: 1 } 
	</style>
	<path id="Layer" class="s0" d="m972 490.5c0 268.1-216.5 485.4-483.5 485.4-267 0-483.5-217.3-483.5-485.4 0-268.2 216.5-485.5 483.5-485.5 267 0 483.5 217.3 483.5 485.5z"/>
	<path id="Layer" class="s1" d="m710 219.4l21-8.6h13v75.3h17.5l-0.1 10h-48.5l0.1-10h18v-64.7l-21 10z"/>
	<path id="Layer" class="s2" d="m142 703.6l-108-61.7c10.6 28.9 16.6 43.6 27.5 66.2 0 0 92.5 57.4 100.5 49.9 8-7.5 63-132.5 114.5-321.7l24.5 233.7 40.5 14c41.5-145.2 59.9-230.1 85-387.1 0 0 70.5 54.1 84 54.1 13.5 0 103.9-201.4 106-203.1 0 0 23 19.6 30 16.6 7-3 2-83.3-4.5-86.8-6.5-3.5-81 22.6-82.5 30.1-1.5 7.5 25.5 17.6 25.5 17.6l-86 171.5c0 0-76-48.4-79-50.4-3-2-20.5-13.5-26 7.5-5.5 21-62.5 333.7-62.5 333.7-10-92.3-18.5-144.2-39-236.7l-30.5-11.1c-35.6 150.8-75 255.5-120 363.7z"/>
	<path id="Layer" class="s3" d="m95.2 294.4c-1 3.9-44.2 168.7-70.3 276.3 53.3 12.8 83.4 18.9 132.4 37.8l14.9-45.8c-32.5-12.8-54.4-19.5-91-27.1l17.6-72.2c5.3-3.9 54.6 7.5 82.2 25.1l14.6-44.9c-30.9-13.5-48.3-20.4-88-28.5l17.2-65.7c38.5 7.6 62 18.5 97.4 33.2l13.8-46.3c-53.1-22.6-139.7-45.9-140.8-41.9z"/>
	<path id="Layer" class="s3" d="m442 398.2c-14.4 118.3-26.7 185.7-59.5 297.4l36.5 4c31.9-114.2 43.5-180.3 54-301.4z"/>
	<path id="Layer" class="s3" d="m532 697.1c25.6-3.8 37.7-14.4 55.5-48.2l-3.5 27.1 25.5-12c10.5-64.8 15.4-106.4 23-188.1l-61.5 36.6-7.5 64.2 33-17.5c0 0-9.1 76.7-57.3 83.2-48.2 6.5-27.2-178 27.9-212.1 24.1-12.5 27.8 5 35.4 34.1l30-18.6c-2.6-74.1-30-82.9-57-79.8-104.5 12-139 351.1-43.5 331.1z"/>
	<path id="Layer" class="s3" d="m653 326c0.6 128.6-1.5 199.7-19.5 321.4l35.5-12.5c12.1-80.2 16-128.8 17.5-222.7 16 32.9 23.9 52.7 36 90.3 13.4-43.6 22.9-67 42-107.3 1.1 82.6-3 126.2-11 203.6l33.5-5c10.7-108.4 13.5-169.6 15-279.4l-37.5-5.5c-18.7 38.3-28 64.5-42 103.3-11.8-33.2-19.7-56.9-39.5-93.8z"/>
	<path id="Layer" fill-rule="evenodd" class="s3" d="m879.5 338.5l35 14c14.1 96.8 20.3 151 31 247.8l-34-3-4-44.2-63.5-11.5-13.5 49.7h-32.5c30.9-119.6 48.7-176.3 81.5-252.8zm24 166l-12-101.8-31.5 89.3z"/>
	<path id="Layer" class="s1" d="m808.1 216l21.6-6.6 13 1.1-6.6 74.9 17.5 1.6-0.9 10-48.3-4.3 0.9-10 17.9 1.6 5.6-64.4-21.8 8.1z"/>
	<g id="Layer">
		<path id="Layer" class="s4" d="m445.5 162.8l21.2-6.5 12.6 1.1-6.4 73.1 17 1.5-0.8 9.8-47.2-4.2 0.9-9.7 17.5 1.5 5.5-62.9-21.3 8z"/>
		<path id="Layer" class="s5" d="m445.5 162.8l21.2-6.5 12.6 1.1-6.4 73.1 17 1.5-0.8 9.8-47.2-4.2 0.9-9.7 17.5 1.5 5.5-62.9-21.3 8z"/>
	</g>
	<path id="Layer" class="s1" d="m480.1 45.5l21.6-6.6 13 1.1-6.6 74.9 17.5 1.6-0.9 10-48.3-4.3 0.9-10 17.9 1.6 5.6-64.4-21.8 8.1z"/>
	<path id="Layer" class="s1" d="m248 235.2l21-8.5h13v75.2h17.5v10h-48.5v-10h18v-64.7l-21 10z"/>
	<path id="Layer" class="s1" d="m149 182l21-8.5h13v75.2h17.5v10.1h-48.5v-10.1h18v-64.7l-21 10.1z"/>
	<path id="Layer" class="s1" d="m820 637.5l21-8.5h13v75.2h17.5v10.1h-48.5v-10.1h18v-64.7l-21 10.1z"/>
	<path id="Layer" class="s1" d="m729 645.5l21-8.5h13v75.2h17.5v10.1h-48.5v-10.1h18v-64.7l-21 10.1z"/>
	<path id="Layer" class="s1" d="m650 688.5l21-8.5h13v75.2h17.5v10.1h-48.5v-10.1h18v-64.7l-21 10.1z"/>
	<path id="Layer" class="s1" d="m434 736.5l21-8.5h13v75.2h17.5v10.1h-48.5v-10.1h18v-64.7l-21 10.1z"/>
	<path id="Layer" class="s1" d="m331 727.5l21-8.5h13v75.2h17.5v10.1h-48.5v-10.1h18v-64.7l-21 10.1z"/>
	<path id="Layer" class="s1" d="m679 802.9l21-8.5h13v75.2h17.5v10h-48.5v-10h18v-64.7l-21 10z"/>
	<path id="Layer" class="s1" d="m502 860.1l21-8.6h13v75.3h17.5v10h-48.5v-10h18v-64.7l-21 10z"/>
	<path id="Layer" class="s1" d="m402 859.1l21-8.6h13v75.2h17.5v10.1h-48.5v-10.1h18v-64.6l-21 10z"/>
	<path id="Layer" class="s1" d="m219 790.8l21-8.5h13v75.2h17.5v10.1h-48.5v-10.1h18v-64.6l-21 10z"/>
	<path id="Layer" fill-rule="evenodd" class="s1" d="m384.5 210.3c-2.2 12.5-7.6 23.1-14.6 30.3-6.9 7.1-15.4 10.7-23.8 9.3-8.3-1.5-15.1-7.8-19.2-16.9-4.1-9.1-5.6-21-3.4-33.5 2.2-12.4 7.6-23.1 14.6-30.2 7-7.2 15.5-10.8 23.8-9.3 8.4 1.5 15.1 7.8 19.2 16.9 4.2 9.1 5.6 21 3.4 33.4zm-10-11.4q-0.6 0-1.3 0.3-0.7 0.2-1.7 0.7c-1.2 0.5-2.8 1.4-4.5 2.4-3.4 2-7.7 4.7-11.8 7.6-4.2 2.8-8.3 5.9-11.6 8.5-1.6 1.4-3 2.6-4.1 3.7-1.2 1-2 1.9-2.4 2.7-1 1.5-0.5 3.7 0.6 5.7 1.2 2.1 3.2 4.2 5.7 5.8 2.5 1.6 5.6 2.6 8.9 2.4 3.2-0.1 6.7-1.4 10-4.5 6.6-6.1 10.9-14.8 13-22 1-3.5 1.5-6.7 1.5-9.1-0.1-1.2-0.2-2.2-0.6-2.9-0.3-0.7-0.9-1.3-1.7-1.3zm-40.5 14c0.9 0 2.1-0.3 3.4-0.9 1.4-0.5 3-1.4 4.8-2.4 3.6-2 7.8-4.7 11.9-7.6 4.1-3 8.1-6.1 11.3-8.9 1.5-1.4 2.9-2.7 3.9-3.9 1.1-1.2 1.8-2.3 2.2-3.2 0.7-1.7 0.3-3.8-0.8-5.7-1.1-1.9-3-3.7-5.3-5-4.7-2.7-11.3-3.4-17.7 0.9-6.4 4.3-11.4 13.4-14.1 21.3-1.3 4-2.1 7.8-2.2 10.5 0 1.4 0.2 2.6 0.5 3.5q0.3 0.6 0.9 1 0.5 0.4 1.2 0.4z"/>
	<path id="Layer" fill-rule="evenodd" class="s1" d="m300.5 138.6c-2.2 12.4-7.6 23.1-14.6 30.2-6.9 7.2-15.4 10.8-23.8 9.3-8.3-1.5-15.1-7.8-19.2-16.9-4.1-9.1-5.6-21-3.4-33.4 2.2-12.5 7.6-23.1 14.6-30.3 7-7.1 15.5-10.8 23.8-9.3 8.4 1.5 15.1 7.8 19.2 16.9 4.2 9.1 5.6 21 3.4 33.5zm-10-11.4q-0.6 0-1.3 0.2-0.7 0.3-1.7 0.7c-1.2 0.6-2.8 1.4-4.5 2.4-3.4 2-7.7 4.7-11.8 7.6-4.2 2.9-8.3 5.9-11.6 8.6-1.6 1.3-3 2.5-4.1 3.6-1.2 1.1-2 2-2.4 2.7-1 1.5-0.5 3.7 0.6 5.8 1.2 2 3.2 4.2 5.7 5.7 2.5 1.6 5.6 2.6 8.9 2.5 3.2-0.2 6.7-1.5 10-4.6 6.6-6.1 10.9-14.8 13-21.9 1-3.6 1.5-6.8 1.5-9.2-0.1-1.1-0.2-2.1-0.6-2.8-0.3-0.8-0.9-1.3-1.7-1.3zm-40.5 14c0.9 0 2.1-0.4 3.4-0.9 1.4-0.6 3-1.4 4.8-2.4 3.6-2 7.8-4.8 11.9-7.7 4.1-2.9 8.1-6.1 11.3-8.9 1.5-1.4 2.9-2.7 3.9-3.9 1.1-1.2 1.8-2.2 2.2-3.1 0.7-1.8 0.3-3.9-0.8-5.8-1.1-1.9-3-3.7-5.3-5-4.7-2.6-11.3-3.4-17.7 1-6.4 4.3-11.4 13.4-14.1 21.3-1.3 4-2.1 7.7-2.2 10.5 0 1.3 0.2 2.5 0.5 3.4q0.3 0.7 0.9 1.1 0.5 0.4 1.2 0.4z"/>
	<path id="Layer" fill-rule="evenodd" class="s1" d="m748.5 150.6c-2.2 12.5-7.6 23.1-14.6 30.3-6.9 7.1-15.4 10.7-23.8 9.2-8.3-1.4-15.1-7.7-19.2-16.9-4.1-9.1-5.6-20.9-3.4-33.4 2.2-12.5 7.6-23.1 14.6-30.3 7-7.1 15.5-10.7 23.8-9.2 8.4 1.4 15.1 7.7 19.2 16.9 4.2 9.1 5.6 20.9 3.4 33.4zm-10-11.4q-0.6 0-1.3 0.3-0.7 0.2-1.7 0.6c-1.2 0.6-2.8 1.5-4.5 2.5-3.5 2-7.7 4.7-11.8 7.6-4.2 2.8-8.3 5.9-11.6 8.5-1.6 1.3-3 2.6-4.1 3.6-1.2 1.1-2 2-2.4 2.7-1 1.6-0.5 3.7 0.6 5.8 1.2 2.1 3.2 4.2 5.7 5.8 2.5 1.5 5.6 2.6 8.9 2.4 3.2-0.1 6.7-1.5 10-4.5 6.6-6.1 10.9-14.8 13-22 1-3.5 1.5-6.8 1.5-9.1-0.1-1.2-0.2-2.2-0.6-2.9-0.3-0.8-0.9-1.3-1.7-1.3zm-40.5 14c0.9 0 2.1-0.3 3.4-0.9 1.4-0.6 3-1.4 4.8-2.4 3.6-2 7.8-4.7 11.9-7.7 4.1-2.9 8.1-6 11.3-8.8 1.5-1.4 2.9-2.8 3.9-3.9 1.1-1.2 1.8-2.3 2.2-3.2 0.7-1.8 0.3-3.8-0.8-5.7-1.1-1.9-3-3.7-5.3-5.1-4.7-2.6-11.3-3.3-17.7 1-6.4 4.3-11.4 13.4-14.1 21.3-1.3 4-2.1 7.7-2.2 10.5 0 1.4 0.2 2.6 0.6 3.4q0.2 0.7 0.8 1.1 0.5 0.4 1.2 0.4z"/>
	<path id="Layer" fill-rule="evenodd" class="s1" d="m672.9 254.1c0.7 12.6-2.2 24.2-7.4 32.8-5.2 8.5-12.6 13.9-21.1 14.4-8.5 0.4-16.5-4.2-22.6-12.1-6-8-10.1-19.2-10.8-31.8-0.7-12.7 2.2-24.3 7.4-32.8 5.2-8.6 12.6-14 21.1-14.4 8.5-0.5 16.5 4.1 22.5 12.1 6.1 7.9 10.2 19.2 10.9 31.8zm-12.4-8.8q-0.5 0.1-1.1 0.5-0.7 0.4-1.5 1c-1.1 0.9-2.4 2-3.9 3.4-2.9 2.7-6.4 6.3-9.8 10.1-3.4 3.7-6.7 7.6-9.3 10.9-1.3 1.7-2.4 3.2-3.3 4.5-0.8 1.3-1.4 2.4-1.7 3.2-0.6 1.7 0.4 3.7 2 5.4 1.6 1.8 4 3.4 6.8 4.4 2.8 0.9 6 1.3 9.2 0.4 3.1-0.9 6.2-3 8.8-6.8 5-7.4 7.2-16.8 7.6-24.2 0.2-3.8 0-7-0.6-9.3-0.3-1.1-0.7-2.1-1.2-2.7-0.5-0.6-1.2-1-2-0.8zm-36.2 22.8c0.8-0.2 1.9-0.8 3.1-1.7 1.2-0.9 2.6-2 4.1-3.4 3-2.8 6.5-6.4 9.9-10.2 3.3-3.8 6.5-7.7 8.9-11.2 1.2-1.7 2.3-3.3 3-4.7 0.8-1.3 1.3-2.6 1.4-3.5 0.3-1.9-0.6-3.8-2.1-5.4-1.5-1.6-3.7-3-6.3-3.7-5.1-1.6-11.7-0.8-17 4.9-5.2 5.6-8.1 15.6-8.9 23.9-0.4 4.2-0.3 8 0.3 10.8 0.2 1.3 0.7 2.4 1.2 3.2q0.5 0.6 1.1 0.8 0.6 0.3 1.3 0.2z"/>
	<path id="Layer" fill-rule="evenodd" class="s1" d="m277.5 719.3c-2.2 12.5-7.6 23.1-14.6 30.3-6.9 7.1-15.4 10.7-23.8 9.2-8.3-1.4-15.1-7.8-19.2-16.9-4.1-9.1-5.6-20.9-3.4-33.4 2.2-12.5 7.6-23.1 14.6-30.3 7-7.1 15.5-10.7 23.8-9.3 8.4 1.5 15.1 7.8 19.2 16.9 4.2 9.2 5.6 21 3.4 33.5zm-10-11.4q-0.6 0-1.3 0.3-0.7 0.2-1.7 0.6c-1.2 0.6-2.8 1.4-4.5 2.4-3.4 2-7.7 4.8-11.8 7.6-4.2 2.9-8.3 6-11.6 8.6-1.6 1.3-3 2.6-4.1 3.6-1.2 1.1-2 2-2.4 2.7-1 1.6-0.5 3.7 0.6 5.8 1.2 2.1 3.2 4.2 5.7 5.8 2.5 1.5 5.6 2.6 8.9 2.4 3.2-0.1 6.7-1.5 10-4.6 6.6-6.1 10.9-14.7 13-21.9 1-3.6 1.5-6.8 1.5-9.1-0.1-1.2-0.2-2.2-0.6-2.9-0.3-0.8-0.9-1.3-1.7-1.3zm-40.5 14c0.9 0 2.1-0.3 3.4-0.9 1.4-0.6 3-1.4 4.8-2.4 3.6-2 7.8-4.7 11.9-7.7 4.1-2.9 8.1-6 11.3-8.8 1.5-1.4 2.9-2.8 3.9-4 1.1-1.1 1.8-2.2 2.2-3.1 0.7-1.8 0.3-3.8-0.8-5.7-1.1-1.9-3-3.8-5.3-5.1-4.7-2.6-11.3-3.3-17.7 1-6.4 4.3-11.4 13.4-14.1 21.3-1.3 4-2.1 7.7-2.2 10.5 0 1.4 0.2 2.6 0.5 3.4q0.3 0.7 0.9 1.1 0.5 0.4 1.2 0.4z"/>
	<path id="Layer" fill-rule="evenodd" class="s1" d="m601.5 767.3c-2.2 12.5-7.6 23.1-14.6 30.3-6.9 7.1-15.4 10.7-23.8 9.3-8.3-1.5-15.1-7.8-19.2-16.9-4.1-9.1-5.6-21-3.4-33.5 2.2-12.4 7.6-23.1 14.6-30.2 7-7.2 15.5-10.8 23.8-9.3 8.4 1.5 15.1 7.8 19.2 16.9 4.2 9.1 5.6 21 3.4 33.4zm-10-11.4q-0.6 0-1.3 0.3-0.7 0.2-1.7 0.7c-1.2 0.5-2.8 1.4-4.5 2.4-3.5 2-7.7 4.7-11.8 7.6-4.2 2.8-8.3 5.9-11.6 8.5-1.6 1.4-3 2.6-4.1 3.7-1.2 1-2 1.9-2.4 2.7-1 1.5-0.5 3.7 0.6 5.7 1.2 2.1 3.2 4.2 5.7 5.8 2.5 1.6 5.6 2.6 8.9 2.4 3.2-0.1 6.7-1.4 10-4.5 6.6-6.1 10.9-14.8 13-22 1-3.5 1.5-6.7 1.5-9.1-0.1-1.2-0.2-2.2-0.6-2.9-0.3-0.7-0.9-1.3-1.7-1.3zm-40.5 14c0.9 0 2.1-0.3 3.4-0.9 1.4-0.5 3-1.4 4.8-2.4 3.6-2 7.8-4.7 11.9-7.6 4.1-3 8.1-6.1 11.3-8.9 1.5-1.4 2.9-2.7 3.9-3.9 1.1-1.2 1.8-2.3 2.2-3.2 0.7-1.7 0.3-3.8-0.8-5.7-1.1-1.9-3-3.7-5.3-5-4.7-2.7-11.3-3.4-17.7 0.9-6.4 4.3-11.4 13.4-14.1 21.3-1.3 4-2.1 7.8-2.2 10.5 0 1.4 0.2 2.6 0.6 3.5q0.2 0.6 0.8 1 0.5 0.4 1.2 0.4z"/>
	<path id="Layer" fill-rule="evenodd" class="s1" d="m368.5 877.8c-2.2 12.4-7.6 23.1-14.6 30.2-6.9 7.2-15.4 10.8-23.8 9.3-8.3-1.5-15.1-7.8-19.2-16.9-4.1-9.1-5.6-21-3.4-33.4 2.2-12.5 7.6-23.1 14.6-30.3 7-7.1 15.5-10.8 23.8-9.3 8.4 1.5 15.1 7.8 19.2 16.9 4.2 9.1 5.6 21 3.4 33.5zm-10-11.4q-0.6 0-1.3 0.2-0.7 0.3-1.7 0.7c-1.2 0.6-2.8 1.4-4.5 2.4-3.4 2-7.7 4.7-11.8 7.6-4.2 2.9-8.3 5.9-11.6 8.6-1.6 1.3-3 2.5-4.1 3.6-1.2 1.1-2 2-2.4 2.7-1 1.5-0.5 3.7 0.6 5.8 1.2 2 3.2 4.2 5.7 5.7 2.5 1.6 5.6 2.6 8.9 2.5 3.2-0.2 6.7-1.5 10-4.6 6.6-6.1 10.9-14.8 13-21.9 1-3.6 1.5-6.8 1.5-9.2-0.1-1.1-0.2-2.1-0.6-2.9-0.3-0.7-0.9-1.2-1.7-1.2zm-40.5 14c0.9 0 2.1-0.4 3.4-0.9 1.4-0.6 3-1.4 4.8-2.4 3.6-2 7.8-4.8 11.9-7.7 4.1-2.9 8.1-6.1 11.3-8.9 1.5-1.4 2.9-2.7 3.9-3.9 1.1-1.2 1.8-2.2 2.2-3.1 0.7-1.8 0.3-3.9-0.8-5.8-1.1-1.9-3-3.7-5.3-5-4.7-2.6-11.3-3.4-17.7 1-6.4 4.3-11.4 13.3-14.1 21.3-1.3 4-2.1 7.7-2.2 10.5 0 1.3 0.2 2.5 0.5 3.4q0.3 0.7 0.9 1.1 0.5 0.4 1.2 0.4z"/>
	<path id="Layer" fill-rule="evenodd" class="s1" d="m647.5 882.8c-2.2 12.4-7.6 23.1-14.6 30.2-6.9 7.2-15.4 10.8-23.8 9.3-8.3-1.5-15.1-7.8-19.2-16.9-4.1-9.1-5.6-21-3.4-33.4 2.2-12.5 7.6-23.1 14.6-30.3 7-7.1 15.5-10.7 23.8-9.3 8.4 1.5 15.1 7.8 19.2 16.9 4.2 9.1 5.6 21 3.4 33.5zm-10-11.4q-0.6 0-1.3 0.2-0.7 0.3-1.7 0.7c-1.2 0.6-2.8 1.4-4.5 2.4-3.5 2-7.7 4.7-11.8 7.6-4.2 2.9-8.3 5.9-11.6 8.6-1.6 1.3-3 2.6-4.1 3.6-1.2 1.1-2 2-2.4 2.7-1 1.5-0.5 3.7 0.6 5.8 1.2 2.1 3.2 4.2 5.7 5.7 2.5 1.6 5.6 2.6 8.9 2.5 3.2-0.2 6.7-1.5 10-4.6 6.6-6.1 10.9-14.7 13-21.9 1-3.6 1.5-6.8 1.5-9.1-0.1-1.2-0.2-2.2-0.6-2.9-0.3-0.8-0.9-1.3-1.7-1.3zm-40.5 14c0.9 0 2.1-0.4 3.4-0.9 1.4-0.6 3-1.4 4.8-2.4 3.6-2 7.8-4.8 11.9-7.7 4.1-2.9 8.1-6 11.3-8.9 1.5-1.4 2.9-2.7 3.9-3.9 1.1-1.1 1.8-2.2 2.2-3.1 0.7-1.8 0.3-3.9-0.8-5.8-1.1-1.9-3-3.7-5.3-5-4.7-2.6-11.3-3.3-17.7 1-6.4 4.3-11.4 13.4-14.1 21.3-1.3 4-2.1 7.7-2.2 10.5 0 1.4 0.2 2.5 0.6 3.4q0.2 0.7 0.8 1.1 0.5 0.4 1.2 0.4z"/>
	<path id="Layer" fill-rule="evenodd" class="s1" d="m815.5 799.3c-2.2 12.5-7.6 23.1-14.6 30.3-6.9 7.1-15.4 10.7-23.8 9.3-8.3-1.5-15.1-7.8-19.2-16.9-4.1-9.1-5.6-21-3.4-33.5 2.2-12.4 7.6-23.1 14.6-30.2 7-7.2 15.5-10.8 23.8-9.3 8.4 1.5 15.1 7.8 19.2 16.9 4.2 9.1 5.6 21 3.4 33.4zm-10-11.4q-0.6 0-1.3 0.3-0.7 0.2-1.7 0.7c-1.2 0.5-2.8 1.4-4.5 2.4-3.5 2-7.7 4.7-11.8 7.6-4.2 2.8-8.3 5.9-11.6 8.5-1.6 1.4-3 2.6-4.1 3.7-1.2 1-2 1.9-2.4 2.7-1 1.5-0.5 3.7 0.6 5.7 1.2 2.1 3.2 4.2 5.7 5.8 2.5 1.6 5.6 2.6 8.9 2.4 3.2-0.1 6.7-1.4 10-4.5 6.6-6.1 10.9-14.8 13-22 1-3.5 1.5-6.7 1.5-9.1-0.1-1.2-0.2-2.2-0.6-2.9-0.3-0.7-0.9-1.3-1.7-1.3zm-40.5 14c0.9 0 2.1-0.3 3.4-0.9 1.4-0.5 3-1.4 4.8-2.4 3.6-2 7.8-4.7 11.9-7.6 4.1-3 8.1-6.1 11.3-8.9 1.5-1.4 2.9-2.7 3.9-3.9 1.1-1.2 1.8-2.3 2.2-3.2 0.7-1.7 0.3-3.8-0.8-5.7-1.1-1.9-3-3.7-5.3-5-4.7-2.7-11.3-3.4-17.7 0.9-6.4 4.3-11.4 13.4-14.1 21.3-1.3 4-2.1 7.8-2.2 10.5 0 1.4 0.2 2.6 0.6 3.5q0.2 0.6 0.8 1 0.5 0.4 1.2 0.4z"/>
	<path id="Layer" fill-rule="evenodd" class="s1" d="m430.5 98.4c-2.2 12.5-7.6 23.2-14.6 30.3-6.9 7.2-15.4 10.8-23.8 9.3-8.3-1.5-15.1-7.8-19.2-16.9-4.1-9.1-5.6-21-3.4-33.5 2.2-12.4 7.6-23.1 14.6-30.2 7-7.2 15.5-10.8 23.8-9.3 8.4 1.5 15.1 7.8 19.2 16.9 4.2 9.1 5.6 21 3.4 33.4zm-10-11.3q-0.6 0-1.3 0.2-0.7 0.3-1.7 0.7c-1.2 0.6-2.8 1.4-4.5 2.4-3.4 2-7.7 4.7-11.8 7.6-4.2 2.9-8.3 5.9-11.6 8.6-1.6 1.3-3 2.5-4.1 3.6-1.2 1-2 2-2.4 2.7-1 1.5-0.5 3.7 0.6 5.7 1.2 2.1 3.2 4.2 5.7 5.8 2.5 1.6 5.6 2.6 8.9 2.5 3.2-0.2 6.7-1.5 10-4.6 6.6-6.1 10.9-14.8 13-21.9 1-3.6 1.5-6.8 1.5-9.2-0.1-1.1-0.2-2.1-0.6-2.9-0.3-0.7-0.9-1.2-1.7-1.2zm-40.5 14c0.9 0 2.1-0.4 3.4-0.9 1.4-0.6 3-1.4 4.8-2.4 3.6-2 7.8-4.8 11.9-7.7 4.1-2.9 8.1-6.1 11.3-8.9 1.5-1.4 2.9-2.7 3.9-3.9 1.1-1.2 1.8-2.2 2.2-3.1 0.7-1.8 0.3-3.9-0.8-5.8-1.1-1.9-3-3.7-5.3-5-4.7-2.7-11.3-3.4-17.7 0.9-6.4 4.4-11.4 13.4-14.1 21.4-1.3 3.9-2.1 7.7-2.2 10.5 0 1.3 0.2 2.5 0.5 3.4q0.3 0.7 0.9 1.1 0.5 0.4 1.2 0.4z"/>
</svg>