<?xml version="1.0" encoding="UTF-8" standalone="no"?>
<svg
   xmlns:dc="http://purl.org/dc/elements/1.1/"
   xmlns:cc="http://creativecommons.org/ns#"
   xmlns:rdf="http://www.w3.org/1999/02/22-rdf-syntax-ns#"
   xmlns:svg="http://www.w3.org/2000/svg"
   xmlns="http://www.w3.org/2000/svg"
   viewBox="0 0 804.72919 486"
   height="486"
   width="804.72919"
   xml:space="preserve"
   id="svg2"
   version="1.1"><metadata
     id="metadata8"><rdf:RDF><cc:Work
         rdf:about=""><dc:format>image/svg+xml</dc:format><dc:type
           rdf:resource="http://purl.org/dc/dcmitype/StillImage" /></cc:Work></rdf:RDF></metadata><defs
     id="defs6" /><g
     transform="matrix(1.3333333,0,0,-1.3333333,0,486)"
     id="g10"><g
       transform="translate(20.046875,-22.519531)"
       id="g12"><path
         id="path14"
         style="fill:#000000;fill-opacity:1;fill-rule:nonzero;stroke:none"
         d="m 0,30.019531 c 20,0 20,3.05e-4 20,9.01e-4 0,6.1e-4 0,0.0015 0,0.0027 0,0.741409 0,-0.733017 0,0.01079 0,1.449462 0,-1.415925 0,0.04301 0,1.408814 0,-1.346893 0,0.0713 0,1.368897 0,-1.278884 0,0.09929 0,1.329712 0,-1.211914 0,0.126969 0,0.651535 0,-0.580048 0,0.07376 0,0.641998 0,-0.563706 0,0.08057 0,1.253479 0,-1.08107 0,0.181381 0,1.216416 0,-1.017166 0,0.208115 0,1.180084 0,-0.954269 0,0.234558 0,1.144425 0,-0.892395 0,0.260681 0,1.109452 0,-0.831512 0,0.286499 0,1.075165 0,-0.771621 0,0.311997 0,1.041549 0,-0.712723 0,0.337188 0,1.008606 0,-0.6548 0,0.362061 0,0.976349 0,-0.597824 0,0.386642 0,0.944718 0,-0.541839 0,0.410904 0,1.789032 0,-0.927185 0,0.893357 0,1.670501 0,-0.714508 0,0.986679 0,1.557022 0,-0.509354 0,1.07753 0,0.741287 0,-0.176545 0,0.572052 0,0.04858 0,0.0974 0,0.146423 0,0.04904 0,0.0983 0,0.147797 0,0.04948 0,0.0992 0,0.149124 0,0.04994 0,0.100097 0,0.150482 0,1.344772 0,-0.121201 0,1.25177 0,1.245819 0,0.06198 0,1.335175 0,2.185195 0,0.620834 0,2.910614 0,3.277359 0,3.056823 0,6.712814 0,1.268143 0,2.409653 0,3.762527 0,0.14563 0,0.340989 0,0.487885 0,0.08163 0,0.163422 0,0.245376 0,0.08194 0,0.164048 0,0.246308 0,0.271469 0,0.718109 0,0.994522 0,0.495621 0,1.517944 0,2.032684 0,1.36937 0,7.024826 0,8.666947 0,0.476043 0,4.086151 0,4.620468 0,0.344436 0,4.389221 0,4.785309 0,0.236297 0,4.649017 0,4.930328 0,0.02545 0,0.599396 0,0.625504 0,0.1044 0,0.208892 0,0.313461 0,0.104568 0,0.209228 0,0.313949 0,0.04367 0,1.214295 0,1.260422 0,0.07056 0,2.462403 0,2.542145 0,0.05363 0,2.50647 0,2.568466 0,0.03911 0,2.545685 0,2.592316 0,0.02685 0,2.580108 0,2.613678 0,0.01682 0,2.609848 0,2.632553 0,0.0089 0,2.63504 0,2.648956 0,0.0029 0,2.655732 0,2.662872 0,3e-4 0,1.33467 0,1.33587 0,0.11144 0,0.22291 0,0.33439 0,0.11148 0,0.22299 0,0.33453 0,0.11154 0,0.2231 0,0.33469 0,0.11158 0,0.22319 0,0.33482 0,0.11163 0,0.2233 0,0.33498 0,0.11168 0,0.22337 0,0.33509 0,0.11173 0,0.22348 0,0.33524 0,0.11177 0,0.22356 0,0.33536 0,0.11181 0,0.22363 0,0.33548 0,0.11184 0,0.22372 0,0.3356 0,0.11188 0,0.22378 0,0.33571 0,0.11192 0,0.22386 0,0.33581 0,0.11196 0,0.22393 0,0.33591 0,0.11198 0,0.224 0,0.33601 0,0.11202 0,0.22406 0,0.33611 0,0.11204 0,0.22411 0,0.33618 0,0.11208 0,0.22417 0,0.33627 0,0.11211 0,0.22422 0,0.33635 0,0.11212 0,0.22428 0,0.33641 0,0.11216 0,0.22432 0,0.33649 0,0.11218 0,0.22437 0,0.33655 0,0.1122 0,0.22439 0,0.33661 0,0.11221 0,0.22444 0,0.33667 0,0.11223 0,0.22445 0,0.3367 0,0.11224 0,0.22449 0,0.33674 0,0.11226 0,0.22452 0,0.3368 0,0.11227 0,0.22454 0,0.33682 0,0.11227 0,0.22456 0,0.33685 0,0.11229 0,0.22458 0,0.33687 0,0.11229 0,0.22459 0,0.3369 0,0.11229 0,0.22459 0,0.3369 0,0.1123 0,0.22461 0,0.33691 0,2.3e-4 0,1.34745 0,1.34766 0,0.004 0,2.69141 0,2.69427 0,14.96504 0,27.97495 0,40.95134 h -40 c 0,-12.97639 0,-25.9863 0,-40.95134 0,-0.003 0,-2.69068 0,-2.69427 0,-2.1e-4 0,-1.34743 0,-1.34766 0,-0.1123 0,-0.22461 0,-0.33691 0,-0.11231 0,-0.22461 0,-0.3369 0,-0.11231 0,-0.22461 0,-0.3369 0,-0.11229 0,-0.22458 0,-0.33687 0,-0.11229 0,-0.22458 0,-0.33685 0,-0.11228 0,-0.22455 0,-0.33682 0,-0.11228 0,-0.22454 0,-0.3368 0,-0.11225 0,-0.2245 0,-0.33674 0,-0.11225 0,-0.22447 0,-0.3367 0,-0.11223 0,-0.22446 0,-0.33667 0,-0.11222 0,-0.22441 0,-0.33661 0,-0.11218 0,-0.22437 0,-0.33655 0,-0.11217 0,-0.22433 0,-0.33649 0,-0.11213 0,-0.22429 0,-0.33641 0,-0.11213 0,-0.22424 0,-0.33635 0,-0.1121 0,-0.22419 0,-0.33627 0,-0.11207 0,-0.22414 0,-0.33618 0,-0.11205 0,-0.22409 0,-0.33611 0,-0.11201 0,-0.22403 0,-0.33601 0,-0.11198 0,-0.22395 0,-0.33591 0,-0.11195 0,-0.22389 0,-0.33581 0,-0.11193 0,-0.22383 0,-0.33571 0,-0.11188 0,-0.22376 0,-0.3356 0,-0.11185 0,-0.22367 0,-0.33548 0,-0.1118 0,-0.22359 0,-0.33536 0,-0.11176 0,-0.22351 0,-0.33524 0,-0.11172 0,-0.22341 0,-0.33509 0,-0.11168 0,-0.22335 0,-0.33498 0,-0.11163 0,-0.22324 0,-0.33482 0,-0.11159 0,-0.22315 0,-0.33469 0,-0.11154 0,-0.22305 0,-0.33453 0,-0.11148 0,-0.22295 0,-0.33439 0,-0.001 0,-1.33557 0,-1.33587 0,-0.007 0,-2.659957 0,-2.662872 0,-0.01392 0,-2.640091 0,-2.648956 0,-0.02271 0,-2.615738 0,-2.632553 0,-0.03357 0,-2.586823 0,-2.613678 0,-0.04663 0,-2.553208 0,-2.592316 0,-0.062 0,-2.514831 0,-2.568466 0,-0.07974 0,-2.471588 0,-2.542145 0,-0.04613 0,-1.216751 0,-1.260422 0,-0.104721 0,-0.209381 0,-0.313949 0,-0.104569 0,-0.209061 0,-0.313461 0,-0.02611 0,-0.600052 0,-0.625504 0,-0.281311 0,-4.694031 0,-4.930328 0,-0.396088 0,-4.440873 0,-4.785309 0,-0.534317 0,-4.144425 0,-4.620468 0,-1.642121 0,-7.297577 0,-8.666947 0,-0.51474 0,-1.537063 0,-2.032684 0,-0.276413 0,-0.723053 0,-0.994522 0,-0.08226 0,-0.164368 0,-0.246308 0,-0.08195 0,-0.163742 0,-0.245376 0,-0.146896 0,-0.342255 0,-0.487885 0,-1.352874 0,-2.494384 0,-3.762527 0,-3.655991 0,-3.435455 0,-6.712814 0,-2.28978 0,-0.725419 0,-2.910614 0,-1.273194 0,-0.08936 0,-1.335175 0,-1.372971 0,0.093 0,-1.25177 0,-0.05038 0,-0.10054 0,-0.150482 0,-0.04993 0,-0.09964 0,-0.149124 0,-0.0495 0,-0.09876 0,-0.147797 0,-0.04903 0,-0.09784 0,-0.146423 0,-0.748597 0,0.169235 0,-0.572052 0,-1.586884 0,0.479492 0,-1.07753 0,-1.701187 0,0.683822 0,-0.986679 0,-1.820542 0,0.895675 0,-0.893357 0,-0.952743 0,0.533814 0,-0.410904 0,-0.984466 0,0.589707 0,-0.386642 0,-1.016861 0,0.646545 0,-0.362061 0,-1.049911 0,0.704361 0,-0.337188 0,-1.083618 0,0.763168 0,-0.311997 0,-1.118011 0,0.822953 0,-0.286499 0,-1.153076 0,0.883744 0,-0.260681 0,-1.188827 0,0.945526 0,-0.234558 0,-1.225281 0,1.008301 0,-0.208115 0,-1.262451 0,1.072098 0,-0.181381 0,-0.644272 0,0.561432 0,-0.08057 0,-0.653809 0,0.577774 0,-0.07376 0,-1.338883 0,1.202743 0,-0.126969 0,-1.378173 0,1.269608 0,-0.09929 0,-1.418197 0,1.33751 0,-0.0713 0,-1.458939 0,1.406448 0,-0.04301 0,-0.743805 0,0.730621 0,-0.01079 0,-0.0012 0,-0.0021 0,-0.0027 0,-5.96e-4 0,-9.01e-4 20,-9.01e-4 z M 20,158.47125 c 0,37.07453 31.000359,69.31555 79.275894,62.67832 l 5.448216,39.62722 C 32.999771,270.63794 -20,220.38704 -20,158.47125 Z" /></g><g
       transform="translate(20.046875,212.5)"
       id="g16"><path
         id="path18"
         style="fill:#06adf4;fill-opacity:1;fill-rule:nonzero;stroke:none"
         d="m 0.361662,22.01931 c -20,0 -20,-3.1e-5 -20,-9.2e-5 0,-6.1e-5 0,-1.52e-4 0,-2.74e-4 0,-1.22e-4 0,-2.75e-4 0,-4.58e-4 0,-1.83e-4 0,-3.97e-4 0,-6.41e-4 0,-2.44e-4 0,-5.19e-4 0,-8.16e-4 0,-3.05e-4 0,-6.33e-4 0,-0.001 0,-3.58e-4 0,-7.47e-4 0,-0.0012 0,-4.2e-4 0,-8.7e-4 0,-0.0014 0,-4.73e-4 0,-9.77e-4 0,-0.0015 0,-5.34e-4 0,-0.0011 0,-0.0017 0,-5.95e-4 0,-0.0012 0,-0.0019 0,-6.49e-4 0,-0.0013 0,-0.002 0,-7.09e-4 0,-0.0014 0,-0.0022 0,-7.55e-4 0,-0.0015 0,-0.0024 0,-8.16e-4 0,-0.0017 0,-0.0025 0,-8.7e-4 0,-0.0018 0,-0.0027 0,-9.23e-4 0,-0.0019 0,-0.0029 0,-9.76e-4 0,-0.002 0,-0.003 0,-10e-4 0,-0.0021 0,-0.0032 0,-0.0011 0,-0.0022 0,-0.0033 0,-0.0011 0,-0.0023 0,-0.0035 0,-0.0012 0,-0.0024 0,-0.0036 0,-0.0012 0,-0.0025 0,-0.0038 0,-0.0013 0,-0.0026 0,-0.0039 0,-0.0013 0,-0.0027 0,-0.0041 0,-0.0014 0,-0.0028 0,-0.0042 0,-0.0014 0,-0.0029 0,-0.0044 0,-0.0015 0,-0.003 0,-0.0045 0,-0.0015 0,-0.0031 0,-0.0047 0,-0.0016 0,-0.0032 0,-0.0048 0,-0.0016 0,-0.0033 0,-0.005 0,-0.0017 0,-0.0034 0,-0.0051 0,-0.0017 0,-0.0035 0,-0.0052 0,-0.0018 0,-0.0036 0,-0.0054 0,-0.0018 0,-0.0037 0,-0.0055 0,-0.0019 0,-0.0037 0,-0.0057 0,-0.0019 0,-0.0038 0,-0.0058 0,-0.0019 0,-0.0039 0,-0.0059 0,-0.002 0,-0.004 0,-0.006 0,-0.002 0,-0.0041 0,-0.0062 0,-0.0021 0,-0.0042 0,-0.0063 0,-0.0021 0,-0.0043 0,-0.0064 0,-0.0022 0,-0.0043 0,-0.0066 0,-0.0022 0,-0.0044 0,-0.0067 0,-0.0022 0,-0.0045 0,-0.0068 0,-0.0023 0,-0.0046 0,-0.0069 0,-0.0023 0,-0.0047 0,-0.007 0,-0.0024 0,-0.0048 0,-0.0072 0,-0.0024 0,-0.0048 0,-0.0073 0,-0.0024 0,-0.0049 0,-0.0074 0,-0.0025 0,-0.005 0,-0.0075 0,-0.0025 0,-0.0051 0,-0.0076 0,-0.0026 0,-0.0051 0,-0.0077 0,-0.0026 0,-0.0052 0,-0.0078 0,-0.0026 0,-0.0053 0,-0.0079 0,-0.0027 0,-0.0053 0,-0.008 0,-0.0027 0,-0.0054 0,-0.0081 0,-0.0027 0,-0.0055 0,-0.0082 0,-0.0028 0,-0.0055 0,-0.0083 0,-0.0028 0,-0.0056 0,-0.0084 0,-0.0028 0,-0.0057 0,-0.0085 0,-0.0029 0,-0.0057 0,-0.0086 0,-0.0029 0,-0.0058 0,-0.0087 0,-0.0029 0,-0.0059 0,-0.0088 0,-0.003 0,-0.0059 0,-0.0089 0,-0.003 0,-0.006 0,-0.009 0,-0.003 0,-0.0061 0,-0.0091 0,-0.003 0,-0.0061 0,-0.0092 0,-0.0031 0,-0.0062 0,-0.0093 0,-0.0031 0,-0.0062 0,-0.0094 0,-0.0031 0,-0.0063 0,-0.0094 0,-0.0032 0,-0.0063 0,-0.0095 0,-0.0032 0,-0.0064 0,-0.0096 0,-0.0032 0,-0.0064 0,-0.0097 0,-0.0032 0,-0.0065 0,-0.0098 0,-0.0033 0,-0.0066 0,-0.0098 0,-0.0033 0,-0.0066 0,-0.0099 0,-0.0033 0,-0.0066 0,-0.01 0,-0.0033 0,-0.0067 0,-0.01006 0,-0.0034 0,-0.0067 0,-0.01013 0,-0.0034 0,-0.0068 0,-0.01021 0,-0.0034 0,-0.0068 0,-0.01027 0,-0.0034 0,-0.0069 0,-0.01034 0,-0.0035 0,-0.0069 0,-0.0104 0,-0.0035 0,-0.007 0,-0.01047 0,-0.0035 0,-0.007 0,-0.01053 0,-0.0035 0,-0.007 0,-0.01059 0,-0.0035 0,-0.0071 0,-0.01064 0,-0.0036 0,-0.0071 0,-0.0107 0,-0.0036 0,-0.0072 0,-0.01076 0,-0.0036 0,-0.0072 0,-0.01081 0,-0.0036 0,-0.0072 0,-0.01087 0,-0.0036 0,-0.0073 0,-0.01093 0,-0.0036 0,-0.0073 0,-0.01097 0,-0.0037 0,-0.0073 0,-0.01102 0,-0.0037 0,-0.0074 0,-0.01107 0,-0.0037 0,-0.0074 0,-0.01112 0,-0.0037 0,-0.0074 0,-0.01116 0,-0.0037 0,-0.0075 0,-0.0112 0,-0.0037 0,-0.0075 0,-0.01125 0,-0.0038 0,-0.0075 0,-0.01129 0,-0.0038 0,-0.0075 0,-0.01132 0,-0.0038 0,-0.0076 0,-0.01136 0,-0.0038 0,-0.0076 0,-0.0114 0,-0.0038 0,-0.0076 0,-0.01144 0,-0.0038 0,-0.0076 0,-0.01147 0,-0.0038 0,-0.0077 0,-0.0115 0,-0.0038 0,-0.0077 0,-0.01153 0,-0.0038 0,-0.0077 0,-0.01156 0,-0.0039 0,-0.0077 0,-0.01158 0,-0.0039 0,-0.0077 0,-0.01161 0,-0.0039 0,-0.0078 0,-0.01164 0,-0.0039 0,-0.0078 0,-0.01166 0,-0.0039 0,-0.0078 0,-0.01168 0,-0.0039 0,-0.0078 0,-0.0117 0,-0.0039 0,-0.0078 0,-0.01172 0,-0.0039 0,-0.0078 0,-0.01173 0,-0.0039 0,-0.0078 0,-0.01175 0,-0.0039 0,-0.0078 0,-0.01177 0,-0.0039 0,-0.0079 0,-0.01178 0,-0.0039 0,-0.0079 0,-0.01179 0,-0.0039 0,-0.0079 0,-0.0118 0,-0.0039 0,-0.0079 0,-0.01181 0,-0.0039 0,-0.0079 0,-0.01182 0,-0.0039 0,-0.0079 0,-0.01182 0,-0.0039 0,-0.0079 0,-0.01183 0,-0.0039 0,-0.0079 0,-0.01183 0,-0.0039 0,-0.0079 0,-0.01183 0,-0.0039 0,-0.0079 0,-0.01183 0,-0.0039 0,-0.0079 0,-0.01183 0,-0.0039 0,-0.0079 0,-0.01183 0,-0.0039 0,-0.0079 0,-0.01182 0,-0.0039 0,-0.0079 0,-0.01182 0,-0.0039 0,-0.0079 0,-0.01181 0,-0.0039 0,-0.0079 0,-0.0118 0,-0.0039 0,-0.0079 0,-0.01179 0,-0.0039 0,-0.0079 0,-0.01178 0,-0.0039 0,-0.0078 0,-0.01177 0,-0.0039 0,-0.0078 0,-0.01175 0,-0.0039 0,-0.0078 0,-0.01174 0,-0.0039 0,-0.0078 0,-0.01172 0,-0.0039 0,-0.0078 0,-0.01169 0,-0.0039 0,-0.0078 0,-0.01168 0,-0.0039 0,-0.0078 0,-0.01166 0,-0.0039 0,-0.0078 0,-0.01164 0,-0.0039 0,-0.0077 0,-0.01161 0,-0.0039 0,-0.0077 0,-0.01159 0,-0.0039 0,-0.0077 0,-0.01155 0,-0.0039 0,-0.0077 0,-0.01153 0,-0.0038 0,-0.0077 0,-0.0115 0,-0.0038 0,-0.0077 0,-0.01147 0,-0.0038 0,-0.0076 0,-0.01144 0,-0.0038 0,-0.0076 0,-0.0114 0,-0.0038 0,-0.0076 0,-0.01136 0,-0.0038 0,-0.0076 0,-0.01133 0,-0.0038 0,-0.0075 0,-0.01128 0,-0.0038 0,-0.0075 0,-0.01125 0,-0.0037 0,-0.0075 0,-0.0112 0,-0.0037 0,-0.0074 0,-0.01116 0,-0.0037 0,-0.0074 0,-0.01112 0,-0.0037 0,-0.0074 0,-0.01107 0,-0.0037 0,-0.0074 0,-0.01102 0,-0.0037 0,-0.0073 0,-0.01097 0,-0.0037 0,-0.0073 0,-0.01093 0,-0.0036 0,-0.0073 0,-0.01087 0,-0.0036 0,-0.0072 0,-0.01081 0,-0.0036 0,-0.0072 0,-0.01077 0,-0.0036 0,-0.0071 0,-0.0107 0,-0.0036 0,-0.0071 0,-0.01065 0,-0.0035 0,-0.0071 0,-0.01058 0,-0.0035 0,-0.007 0,-0.01053 0,-0.0035 0,-0.007 0,-0.01047 0,-0.0035 0,-0.0069 0,-0.0104 0,-0.0035 0,-0.0069 0,-0.01034 0,-0.0034 0,-0.0069 0,-0.01027 0,-0.0034 0,-0.0068 0,-0.01021 0,-0.0034 0,-0.0068 0,-0.01013 0,-0.0034 0,-0.0067 0,-0.01006 0,-0.0033 0,-0.0067 0,-0.01 0,-0.0033 0,-0.0066 0,-0.0099 0,-0.0033 0,-0.0066 0,-0.0098 0,-0.0033 0,-0.0065 0,-0.0098 0,-0.0032 0,-0.0065 0,-0.0097 0,-0.0032 0,-0.0064 0,-0.0096 0,-0.0032 0,-0.0064 0,-0.0095 0,-0.0032 0,-0.0063 0,-0.0094 0,-0.0031 0,-0.0063 0,-0.0094 0,-0.0031 0,-0.0062 0,-0.0093 0,-0.0031 0,-0.0061 0,-0.0092 0,-0.0031 0,-0.0061 0,-0.0091 0,-0.003 0,-0.006 0,-0.009 0,-0.003 0,-0.006 0,-0.0089 0,-0.003 0,-0.0059 0,-0.0088 0,-0.0029 0,-0.0058 0,-0.0087 0,-0.0029 0,-0.0058 0,-0.0086 0,-0.0029 0,-0.0057 0,-0.0085 0,-0.0028 0,-0.0056 0,-0.0084 0,-0.0028 0,-0.0056 0,-0.0083 0,-0.0028 0,-0.0055 0,-0.0082 0,-0.0027 0,-0.0054 0,-0.0081 0,-0.0027 0,-0.0054 0,-0.008 0,-0.0027 0,-0.0053 0,-0.0079 0,-0.0026 0,-0.0052 0,-0.0078 0,-0.0026 0,-0.0052 0,-0.0077 0,-0.0026 0,-0.0051 0,-0.0076 0,-0.0025 0,-0.005 0,-0.0075 0,-0.0025 0,-0.0049 0,-0.0074 0,-0.0024 0,-0.0049 0,-0.0073 0,-0.0024 0,-0.0048 0,-0.0072 0,-0.0024 0,-0.0047 0,-0.007 0,-0.0023 0,-0.0046 0,-0.0069 0,-0.0023 0,-0.0046 0,-0.0068 0,-0.0022 0,-0.0045 0,-0.0067 0,-0.0022 0,-0.0044 0,-0.0066 0,-0.0022 0,-0.0043 0,-0.0064 0,-0.0021 0,-0.0042 0,-0.0063 0,-0.0021 0,-0.0041 0,-0.0062 0,-0.002 0,-0.0041 0,-0.006 0,-0.002 0,-0.004 0,-0.0059 0,-0.002 0,-0.0039 0,-0.0058 0,-0.0019 0,-0.0038 0,-0.0056 0,-0.0019 0,-0.0037 0,-0.0055 0,-0.0018 0,-0.0036 0,-0.0054 0,-0.0018 0,-0.0035 0,-0.0052 0,-0.0017 0,-0.0034 0,-0.0051 0,-0.0017 0,-0.0033 0,-0.005 0,-0.0016 0,-0.0032 0,-0.0048 0,-0.0016 0,-0.0031 0,-0.0047 0,-0.0015 0,-0.0031 0,-0.0045 0,-0.0015 0,-0.003 0,-0.0044 0,-0.0014 0,-0.0029 0,-0.0042 0,-0.0014 0,-0.0028 0,-0.0041 0,-0.0013 0,-0.0027 0,-0.0039 0,-0.0013 0,-0.0026 0,-0.0038 0,-0.0012 0,-0.0025 0,-0.0036 0,-0.0012 0,-0.0023 0,-0.0035 0,-0.0011 0,-0.0022 0,-0.0033 0,-0.0011 0,-0.0021 0,-0.0032 0,-10e-4 0,-0.002 0,-0.003 0,-9.77e-4 0,-0.0019 0,-0.0029 0,-9.24e-4 0,-0.0018 0,-0.0027 0,-8.69e-4 0,-0.0017 0,-0.0025 0,-8.16e-4 0,-0.0016 0,-0.0024 0,-7.63e-4 0,-0.0015 0,-0.0022 0,-7.1e-4 0,-0.0014 0,-0.002 0,-6.48e-4 0,-0.0013 0,-0.0019 0,-5.95e-4 0,-0.0012 0,-0.0017 0,-5.34e-4 0,-10e-4 0,-0.0015 0,-4.81e-4 0,-9.31e-4 0,-0.0014 0,-4.19e-4 0,-8.08e-4 0,-0.0012 0,-3.59e-4 0,-6.94e-4 0,-9.92e-4 0,-3.05e-4 0,-5.8e-4 0,-8.24e-4 0,-2.36e-4 0,-4.5e-4 0,-6.33e-4 0,-1.83e-4 0,-3.36e-4 0,-4.58e-4 0,-1.22e-4 0,-2.13e-4 0,-2.74e-4 0,-6.1e-5 20,-9.2e-5 40,-9.2e-5 0,0 0,3.1e-5 0,9.2e-5 0,6.1e-5 0,1.52e-4 0,2.74e-4 0,1.3e-4 0,2.82e-4 0,4.73e-4 0,1.83e-4 0,4.05e-4 0,6.56e-4 0,2.45e-4 0,5.27e-4 0,8.47e-4 0,3.13e-4 0,6.56e-4 0,0.001 0,3.74e-4 0,7.86e-4 0,0.0012 0,4.43e-4 0,9.23e-4 0,0.0014 0,5.11e-4 0,0.0011 0,0.0016 0,5.72e-4 0,0.0012 0,0.0018 0,6.41e-4 0,0.0013 0,0.002 0,7.02e-4 0,0.0014 0,0.0022 0,7.71e-4 0,0.0016 0,0.0024 0,8.4e-4 0,0.0017 0,0.0026 0,9.08e-4 0,0.0019 0,0.0028 0,9.85e-4 0,0.002 0,0.003 0,10e-4 0,0.0021 0,0.0032 0,0.0011 0,0.0023 0,0.0035 0,0.0012 0,0.0024 0,0.0037 0,0.0013 0,0.0025 0,0.0039 0,0.0013 0,0.0027 0,0.0041 0,0.0014 0,0.0028 0,0.0043 0,0.0015 0,0.003 0,0.0045 0,0.0015 0,0.0031 0,0.0047 0,0.0016 0,0.0033 0,0.005 0,0.0017 0,0.0034 0,0.0052 0,0.0018 0,0.0036 0,0.0054 0,0.0018 0,0.0037 0,0.0056 0,0.0019 0,0.0039 0,0.0059 0,0.002 0,0.004 0,0.0061 0,0.0021 0,0.0042 0,0.0063 0,0.0021 0,0.0043 0,0.0065 0,0.0022 0,0.0045 0,0.0068 0,0.0023 0,0.0046 0,0.007 0,0.0024 0,0.0048 0,0.0072 0,0.0024 0,0.0049 0,0.0075 0,0.0025 0,0.0051 0,0.0077 0,0.0026 0,0.0053 0,0.0079 0,0.0027 0,0.0054 0,0.0082 0,0.0028 0,0.0056 0,0.0084 0,0.0028 0,0.0057 0,0.0087 0,0.0029 0,0.0059 0,0.0089 0,0.003 0,0.0061 0,0.0092 0,0.0031 0,0.0062 0,0.0094 0,0.0032 0,0.0064 0,0.0097 0,0.0033 0,0.0066 0,0.0099 0,0.0033 0,0.0067 0,0.01016 0,0.0034 0,0.0069 0,0.01041 0,0.0035 0,0.0071 0,0.01067 0,0.0036 0,0.0072 0,0.01092 0,0.0037 0,0.0074 0,0.01118 0,0.0038 0,0.0076 0,0.01144 0,0.0039 0,0.0078 0,0.0117 0,0.0039 0,0.0079 0,0.01196 0,0.004 0,0.0081 0,0.01222 0,0.0041 0,0.0083 0,0.01249 0,0.0042 0,0.0085 0,0.01275 0,0.0043 0,0.0086 0,0.01302 0,0.0044 0,0.0088 0,0.01329 0,0.0045 0,0.009 0,0.01356 0,0.0046 0,0.0092 0,0.01383 0,0.0047 0,0.0094 0,0.01411 0,0.0047 0,0.0095 0,0.01437 0,0.0048 0,0.0097 0,0.01465 0,0.0049 0,0.0099 0,0.01493 0,0.005 0,0.01009 0,0.01521 0,0.0051 0,0.01028 0,0.01549 0,0.0052 0,0.01047 0,0.01577 0,0.0053 0,0.01066 0,0.01605 0,0.0054 0,0.01085 0,0.01634 0,0.0055 0,0.01103 0,0.01662 0,0.0056 0,0.01122 0,0.01691 0,0.0057 0,0.01142 0,0.0172 0,0.0058 0,0.01161 0,0.01749 0,0.0059 0,0.0118 0,0.01778 0,0.006 0,0.012 0,0.01808 0,0.0061 0,0.01219 0,0.01836 0,0.0062 0,0.0124 0,0.01867 0,0.0063 0,0.01259 0,0.01896 0,0.0064 0,0.0128 0,0.01926 0,0.0065 0,0.01299 0,0.01956 0,0.0066 0,0.01319 0,0.01987 0,0.0067 0,0.01339 0,0.02016 0,0.0068 0,0.01359 0,0.02047 0,0.0069 0,0.0138 0,0.02078 0,0.007 0,0.01401 0,0.02109 0,0.0071 0,0.01421 0,0.02139 0,0.0072 0,0.01442 0,0.02171 0,0.0073 0,0.01462 0,0.02202 0,0.0074 0,0.01483 0,0.02233 0,0.0075 0,0.01505 0,0.02265 0,0.0076 0,0.01526 0,0.02296 0,0.0077 0,0.01547 0,0.02328 0,0.0078 0,0.01568 0,0.02361 0,0.0079 0,0.01589 0,0.02392 0,0.008 0,0.01611 0,0.02424 0,0.0081 0,0.01633 0,0.02457 0,0.0082 0,0.01654 0,0.0249 0,0.0083 0,0.01675 0,0.02521 0,0.0085 0,0.01697 0,0.02554 0,0.0086 0,0.0172 0,0.02587 0,0.0087 0,0.01742 0,0.02621 0,0.0088 0,0.01764 0,0.02653 0,0.0089 0,0.01786 0,0.02687 0,0.009 0,0.01808 0,0.02721 0,0.0091 0,0.01831 0,0.02754 0,0.0092 0,0.01853 0,0.02788 0,0.0093 0,0.01875 0,0.02821 0,0.0095 0,0.01899 0,0.02856 0,0.0096 0,0.01921 0,0.0289 0,0.0097 0,0.01944 0,0.02925 0,0.0098 0,0.01967 0,0.02959 0,0.0099 0,0.0199 0,0.02994 0,0.01004 0,0.02013 0,0.03029 0,0.01015 0,0.02036 0,0.03064 0,0.01027 0,0.0206 0,0.03098 0,0.01039 0,0.02084 0,0.03134 0,0.0105 0,0.02107 0,0.03169 0,0.01062 0,0.02131 0,0.03205 0,0.01074 0,0.02154 0,0.0324 0,0.01086 0,0.02178 0,0.03276 0,0.01099 0,0.02203 0,0.03313 0,0.0111 0,0.02226 0,0.03349 0,0.01122 0,0.0225 0,0.03384 0,0.01135 0,0.02275 0,0.03421 0,0.01147 0,0.02299 0,0.03458 0,0.01159 0,0.02324 0,0.03494 0,0.01171 0,0.02348 0,0.03532 0,0.01183 0,0.02372 0,0.03568 0,0.01196 0,0.02398 0,0.03606 0,0.01208 0,0.02422 0,0.03642 0,0.01221 0,0.02448 0,0.0368 0,0.01233 0,0.02473 0,0.03718 0,0.01245 0,0.02497 0,0.03755 0,0.01258 0,0.02522 0,0.03793 0,0.0127 0,0.02548 0,0.03831 0,0.01283 0,0.02573 0,0.03869 0,0.01296 0,0.02599 0,0.03908 0,0.01308 0,0.02624 0,0.03946 0,0.01321 0,0.0265 0,0.03984 0,0.01334 0,0.02676 0,0.04023 0,0.01347 0,0.02702 0,0.04062 0,0.0136 0,0.02727 0,0.04101 0,0.01373 0,0.02754 0,0.04141 0,0.01386 0,0.02779 0,0.04179 0,0.01399 0,0.02805 0,0.04218 0,0.01413 0,0.02833 0,0.04259 0,0.01426 0,0.02859 0,0.04298 0,0.0144 0,0.02886 0,0.04338 0,0.01453 0,0.02912 0,0.04378 0,0.01466 0,0.02939 0,0.04418 0,0.01479 0,0.02966 0,0.04459 0,0.01493 0,0.02992 0,0.04499 0,0.01506 0,0.0302 0,0.04539 0,0.0152 0,0.03046 0,0.0458 0,0.01534 0,0.03074 0,0.04621 0,0.01547 0,0.03101 0,0.04662 0,0.0156 0,0.03128 0,0.04703 0,0.01575 0,0.03156 0,0.04745 0,0.01588 0,0.03184 0,0.04786 0,0.01602 0,0.03211 0,0.04828 0,0.01616 0,0.03239 0,0.04869 0,0.0163 0,0.03267 0,0.04911 0,0.01644 0,0.03295 0,0.04953 0,0.01659 0,0.03323 0,0.04996 0,0.01672 0,0.03352 0,0.05038 0,0.01686 0,0.0338 0,0.0508 0,0.017 0,0.03408 0,0.05122 0,0.01715 0,0.03437 0,0.05166 0,0.01729 0,0.03465 0,0.05209 0,0.01743 0,0.03494 0,0.05251 0,0.01758 0,0.03523 0,0.05295 0,0.01772 0,0.03551 0,0.05338 0,0.01787 0,0.0358 0,0.05382 0,0.01801 0,0.03609 0,0.05425 0,0.01815 0,0.03638 0,0.05469 0,0.0183 0,0.03667 0,0.05512 0,0.01845 0,0.03697 0,0.05557 0,0.01859 0,0.03726 0,0.05601 0,0.01875 0,0.03756 0,0.05646 0,0.01889 0,0.03786 0,0.05689 0,0.01904 0,0.03815 0,0.05735 0,0.01919 0,0.03845 0,0.05779 0,0.01933 0,0.03875 0,0.05823 0,0.01949 0,0.03906 0,0.05869 0,0.01965 0,0.03936 0,0.05915 0,0.01978 0,0.03965 0,0.05959 0,0.01994 0,0.03996 0,0.06005 0,0.02009 0,0.04027 0,0.06051 0,0.02025 0,0.04057 0,0.06097 0,0.02039 0,0.04087 0,0.06142 0,0.02055 0,0.04118 0,0.06188 0,0.02071 0,0.04149 0,0.06236 0,0.02086 0,0.04179 0,0.06281 0,0.02101 0,0.04211 0,0.06328 0,0.02116 0,0.04242 0,0.06374 0,0.02132 0,0.04273 0,0.06421 0,0.02149 0,0.04305 0,0.06468 0,0.02164 0,0.04336 0,0.06516 0,0.0218 0,0.04367 0,0.06562 0,0.02196 0,0.04399 0,0.0661 0,0.02211 0,0.0443 0,0.06657 0,0.02227 0,0.04462 0,0.06705 0,0.02243 0,0.04494 0,0.06753 0,0.02259 0,0.04526 0,0.06801 0,0.02274 0,0.04558 0,0.06849 0,0.02291 0,0.0459 0,0.06897 0,0.02307 0,0.04622 0,0.06946 0,0.02323 0,0.04654 0,0.06994 0,0.02339 0,0.04687 0,0.07043 0,0.02356 0,0.0472 0,0.07092 0,0.02372 0,0.04752 0,0.0714 0,0.02389 0,0.04785 0,0.0719 0,0.02405 0,0.04817 0,0.07239 0,0.02421 0,0.04851 0,0.07288 0,0.02438 0,0.04884 0,0.07338 0,0.02454 0,0.04916 0,0.07388 0,0.0247 0,0.04949 0,0.07437 0,0.02487 0,0.04983 0,0.07488 0,0.02504 0,0.05016 0,0.07537 0,0.02521 0,0.0505 0,0.07587 0,0.02538 0,0.05084 0,0.07638 0,0.02554 0,0.05117 0,0.07688 0,0.02572 0,0.05151 0,0.0774 0,0.02588 0,0.05185 0,0.0779 0,0.02605 0,0.05219 0,0.07841 0,0.02622 0,0.05253 0,0.07892 0,0.0264 0,0.05287 0,0.07944 0,0.02656 0,0.05321 0,0.07995 0,0.02674 0,0.05356 0,0.08047 0,0.02691 0,0.0539 0,0.08099 0,0.02708 0,0.05425 0,0.0815 0,0.02725 0,0.0546 0,0.08202 0,0.02743 0,0.05494 0,0.08254 0,0.0276 0,0.05529 0,0.08306 0,0.02778 0,0.05564 0,0.0836 0,0.02795 0,0.05598 0,0.08411 0,0.02812 0,0.05634 0,0.08464 0,0.02831 0,0.05669 0,0.08517 0,0.02847 0,0.05704 0,0.0857 0,0.02866 0,0.0574 0,0.08623 0,0.02884 0,0.05775 0,0.08677 0,0.02901 0,0.05811 0,0.0873 0,0.02918 0,0.05846 0,0.08783 0,0.02937 0,0.05883 0,0.08838 0,0.02954 0,0.05918 0,0.08891 0,0.02973 0,0.05955 0,0.08946 0,0.02991 0,0.05991 0,0.09 0,0.03009 0,0.06026 0,0.09054 0,0.03027 0,0.06063 0,0.09108 0,0.03045 0,0.06099 0,0.09163 0,0.03063 0,0.06135 0,0.09217 0,0.03082 0,0.06172 0,0.09273 0,0.031 0,0.06209 0,0.09327 0,0.03118 0,0.06246 0,0.09383 0,0.03137 0,0.06283 0,0.09438 h -40 c 0,-0.03156 0,-0.06301 0,-0.09438 0,-0.03137 0,-0.06264 0,-0.09383 0,-0.03118 0,-0.06227 0,-0.09327 0,-0.03101 0,-0.06191 0,-0.09273 0,-0.03082 0,-0.06154 0,-0.09217 0,-0.03064 0,-0.06118 0,-0.09163 0,-0.03045 0,-0.06081 0,-0.09108 0,-0.03027 0,-0.06045 0,-0.09054 0,-0.03009 0,-0.06009 0,-0.09 0,-0.02991 0,-0.05972 0,-0.08946 0,-0.02972 0,-0.05936 0,-0.08891 0,-0.02955 0,-0.05901 0,-0.08838 0,-0.02937 0,-0.05865 0,-0.08783 0,-0.02919 0,-0.0583 0,-0.0873 0,-0.02902 0,-0.05793 0,-0.08677 0,-0.02883 0,-0.05757 0,-0.08623 0,-0.02866 0,-0.05723 0,-0.0857 0,-0.02848 0,-0.05687 0,-0.08517 0,-0.0283 0,-0.05652 0,-0.08464 0,-0.02813 0,-0.05617 0,-0.08411 0,-0.02795 0,-0.05582 0,-0.0836 0,-0.02777 0,-0.05546 0,-0.08306 0,-0.0276 0,-0.05512 0,-0.08254 0,-0.02743 0,-0.05477 0,-0.08202 0,-0.02725 0,-0.05442 0,-0.0815 0,-0.02708 0,-0.05408 0,-0.08099 0,-0.02691 0,-0.05373 0,-0.08047 0,-0.02673 0,-0.05338 0,-0.07995 0,-0.02657 0,-0.05304 0,-0.07944 0,-0.02639 0,-0.0527 0,-0.07892 0,-0.02622 0,-0.05236 0,-0.07841 0,-0.02605 0,-0.05202 0,-0.0779 0,-0.02589 0,-0.05168 0,-0.0774 0,-0.02571 0,-0.05134 0,-0.07688 0,-0.02554 0,-0.05101 0,-0.07638 0,-0.02538 0,-0.05067 0,-0.07587 0,-0.02521 0,-0.05033 0,-0.07537 0,-0.02505 0,-0.05 0,-0.07488 0,-0.02488 0,-0.04967 0,-0.07437 0,-0.02471 0,-0.04934 0,-0.07388 0,-0.02454 0,-0.049 0,-0.07338 0,-0.02438 0,-0.04868 0,-0.07288 0,-0.02422 0,-0.04834 0,-0.07239 0,-0.02405 0,-0.04801 0,-0.0719 0,-0.02388 0,-0.04768 0,-0.0714 0,-0.02372 0,-0.04736 0,-0.07092 0,-0.02356 0,-0.04704 0,-0.07043 0,-0.0234 0,-0.04671 0,-0.06994 0,-0.02324 0,-0.04639 0,-0.06946 0,-0.02307 0,-0.04606 0,-0.06897 0,-0.02291 0,-0.04575 0,-0.06849 0,-0.02275 0,-0.04542 0,-0.06801 0,-0.02259 0,-0.0451 0,-0.06753 0,-0.02243 0,-0.04479 0,-0.06705 0,-0.02227 0,-0.04446 0,-0.06657 0,-0.02211 0,-0.04414 0,-0.0661 0,-0.02195 0,-0.04382 0,-0.06562 0,-0.0218 0,-0.04352 0,-0.06516 0,-0.02164 0,-0.0432 0,-0.06468 0,-0.02148 0,-0.04288 0,-0.06421 0,-0.02132 0,-0.04258 0,-0.06374 0,-0.02117 0,-0.04227 0,-0.06328 0,-0.02102 0,-0.04196 0,-0.06281 0,-0.02087 0,-0.04165 0,-0.06236 0,-0.02071 0,-0.04133 0,-0.06188 0,-0.02055 0,-0.04103 0,-0.06142 0,-0.0204 0,-0.04072 0,-0.06097 0,-0.02024 0,-0.04041 0,-0.06051 0,-0.02009 0,-0.04011 0,-0.06005 0,-0.01994 0,-0.03981 0,-0.05959 0,-0.01979 0,-0.0395 0,-0.05915 0,-0.01964 0,-0.0392 0,-0.05869 0,-0.01949 0,-0.0389 0,-0.05823 0,-0.01934 0,-0.03861 0,-0.05779 0,-0.0192 0,-0.03831 0,-0.05735 0,-0.01904 0,-0.038 0,-0.05689 0,-0.0189 0,-0.03771 0,-0.05646 0,-0.01875 0,-0.03741 0,-0.05601 0,-0.0186 0,-0.03712 0,-0.05557 0,-0.01845 0,-0.03682 0,-0.05512 0,-0.0183 0,-0.03654 0,-0.05469 0,-0.01816 0,-0.03624 0,-0.05425 0,-0.01801 0,-0.03595 0,-0.05382 0,-0.01787 0,-0.03566 0,-0.05338 0,-0.01772 0,-0.03537 0,-0.05295 0,-0.01758 0,-0.03508 0,-0.05251 0,-0.01743 0,-0.0348 0,-0.05209 0,-0.01729 0,-0.03451 0,-0.05166 0,-0.01714 0,-0.03423 0,-0.05122 0,-0.01701 0,-0.03394 0,-0.0508 0,-0.01686 0,-0.03365 0,-0.05038 0,-0.01672 0,-0.03337 0,-0.04996 0,-0.01658 0,-0.03309 0,-0.04953 0,-0.01644 0,-0.03281 0,-0.04911 0,-0.0163 0,-0.03253 0,-0.04869 0,-0.01617 0,-0.03226 0,-0.04828 0,-0.01602 0,-0.03198 0,-0.04786 0,-0.01588 0,-0.0317 0,-0.04745 0,-0.01575 0,-0.03142 0,-0.04703 0,-0.01561 0,-0.03115 0,-0.04662 0,-0.01547 0,-0.03088 0,-0.04621 0,-0.01534 0,-0.0306 0,-0.0458 0,-0.0152 0,-0.03033 0,-0.04539 0,-0.01507 0,-0.03006 0,-0.04499 0,-0.01493 0,-0.02979 0,-0.04459 0,-0.01479 0,-0.02952 0,-0.04418 0,-0.01466 0,-0.02925 0,-0.04378 0,-0.01453 0,-0.02898 0,-0.04338 0,-0.01439 0,-0.02872 0,-0.04298 0,-0.01426 0,-0.02846 0,-0.04259 0,-0.01413 0,-0.02819 0,-0.04218 0,-0.014 0,-0.02793 0,-0.04179 0,-0.01387 0,-0.02767 0,-0.04141 0,-0.01373 0,-0.0274 0,-0.04101 0,-0.0136 0,-0.02715 0,-0.04062 0,-0.01347 0,-0.02689 0,-0.04023 0,-0.01334 0,-0.02663 0,-0.03984 0,-0.01322 0,-0.02638 0,-0.03946 0,-0.01309 0,-0.02612 0,-0.03908 0,-0.01296 0,-0.02586 0,-0.03869 0,-0.01283 0,-0.0256 0,-0.03831 0,-0.01271 0,-0.02535 0,-0.03793 0,-0.01258 0,-0.0251 0,-0.03755 0,-0.01245 0,-0.02485 0,-0.03718 0,-0.01232 0,-0.02459 0,-0.0368 0,-0.0122 0,-0.02435 0,-0.03642 0,-0.01208 0,-0.0241 0,-0.03606 0,-0.01196 0,-0.02385 0,-0.03568 0,-0.01183 0,-0.0236 0,-0.03532 0,-0.0117 0,-0.02335 0,-0.03494 0,-0.01158 0,-0.02311 0,-0.03458 0,-0.01146 0,-0.02286 0,-0.03421 0,-0.01134 0,-0.02262 0,-0.03384 0,-0.01122 0,-0.02238 0,-0.03349 0,-0.0111 0,-0.02214 0,-0.03313 0,-0.01098 0,-0.0219 0,-0.03276 0,-0.01086 0,-0.02166 0,-0.0324 0,-0.01074 0,-0.02143 0,-0.03205 0,-0.01062 0,-0.02119 0,-0.03169 0,-0.01051 0,-0.02095 0,-0.03134 0,-0.01038 0,-0.02071 0,-0.03098 0,-0.01028 0,-0.02049 0,-0.03064 0,-0.01015 0,-0.02025 0,-0.03029 0,-0.01003 0,-0.02001 0,-0.02994 0,-0.0099 0,-0.01978 0,-0.02959 0,-0.0098 0,-0.01956 0,-0.02925 0,-0.0097 0,-0.01932 0,-0.0289 0,-0.0096 0,-0.0191 0,-0.02856 0,-0.0095 0,-0.01887 0,-0.02821 0,-0.0094 0,-0.01865 0,-0.02788 0,-0.0092 0,-0.01842 0,-0.02754 0,-0.0091 0,-0.01819 0,-0.02721 0,-0.009 0,-0.01797 0,-0.02687 0,-0.0089 0,-0.01775 0,-0.02653 0,-0.0088 0,-0.01752 0,-0.02621 0,-0.0087 0,-0.0173 0,-0.02587 0,-0.0086 0,-0.01708 0,-0.02554 0,-0.0085 0,-0.01687 0,-0.02521 0,-0.0084 0,-0.01666 0,-0.0249 0,-0.0082 0,-0.01643 0,-0.02457 0,-0.0081 0,-0.01621 0,-0.02424 0,-0.008 0,-0.016 0,-0.02392 0,-0.0079 0,-0.01579 0,-0.02361 0,-0.0078 0,-0.01557 0,-0.02328 0,-0.0077 0,-0.01536 0,-0.02296 0,-0.0076 0,-0.01515 0,-0.02265 0,-0.0075 0,-0.01494 0,-0.02233 0,-0.0074 0,-0.01473 0,-0.02202 0,-0.0073 0,-0.01452 0,-0.02171 0,-0.0072 0,-0.01431 0,-0.02139 0,-0.0071 0,-0.01411 0,-0.02109 0,-0.007 0,-0.0139 0,-0.02078 0,-0.0069 0,-0.01369 0,-0.02047 0,-0.0068 0,-0.0135 0,-0.02016 0,-0.0067 0,-0.0133 0,-0.01987 0,-0.0066 0,-0.01309 0,-0.01956 0,-0.0065 0,-0.01289 0,-0.01926 0,-0.0064 0,-0.01269 0,-0.01896 0,-0.0063 0,-0.0125 0,-0.01867 0,-0.0062 0,-0.01229 0,-0.01836 0,-0.0061 0,-0.0121 0,-0.01808 0,-0.006 0,-0.0119 0,-0.01778 0,-0.0059 0,-0.01171 0,-0.01749 0,-0.0058 0,-0.01151 0,-0.0172 0,-0.0057 0,-0.01132 0,-0.01691 0,-0.0056 0,-0.01113 0,-0.01662 0,-0.0055 0,-0.01094 0,-0.01634 0,-0.0054 0,-0.01075 0,-0.01605 0,-0.0053 0,-0.01056 0,-0.01577 0,-0.0052 0,-0.01037 0,-0.01549 0,-0.0051 0,-0.01018 0,-0.01521 0,-0.005 0,-0.01 0,-0.01493 0,-0.0049 0,-0.0098 0,-0.01465 0,-0.0048 0,-0.0096 0,-0.01437 0,-0.0047 0,-0.0095 0,-0.01411 0,-0.0047 0,-0.0093 0,-0.01383 0,-0.0046 0,-0.0091 0,-0.01356 0,-0.0045 0,-0.0089 0,-0.01329 0,-0.0044 0,-0.0087 0,-0.01302 0,-0.0043 0,-0.0085 0,-0.01275 0,-0.0042 0,-0.0084 0,-0.01249 0,-0.0041 0,-0.0082 0,-0.01222 0,-0.004 0,-0.008 0,-0.01196 0,-0.0039 0,-0.0078 0,-0.0117 0,-0.0039 0,-0.0077 0,-0.01144 0,-0.0038 0,-0.0075 0,-0.01118 0,-0.0037 0,-0.0073 0,-0.01092 0,-0.0036 0,-0.0072 0,-0.01067 0,-0.0035 0,-0.007 0,-0.01041 0,-0.0034 0,-0.0068 0,-0.01016 0,-0.0033 0,-0.0067 0,-0.0099 0,-0.0033 0,-0.0065 0,-0.0097 0,-0.0032 0,-0.0063 0,-0.0094 0,-0.0031 0,-0.0061 0,-0.0092 0,-0.003 0,-0.006 0,-0.0089 0,-0.0029 0,-0.0058 0,-0.0087 0,-0.0029 0,-0.0057 0,-0.0084 0,-0.0028 0,-0.0055 0,-0.0082 0,-0.0027 0,-0.0053 0,-0.0079 0,-0.0026 0,-0.0052 0,-0.0077 0,-0.0025 0,-0.005 0,-0.0075 0,-0.0025 0,-0.0049 0,-0.0072 0,-0.0024 0,-0.0047 0,-0.007 0,-0.0023 0,-0.0046 0,-0.0068 0,-0.0022 0,-0.0044 0,-0.0065 0,-0.0021 0,-0.0042 0,-0.0063 0,-0.0021 0,-0.0041 0,-0.0061 0,-0.002 0,-0.0039 0,-0.0059 0,-0.0019 0,-0.0038 0,-0.0056 0,-0.0018 0,-0.0036 0,-0.0054 0,-0.0018 0,-0.0035 0,-0.0052 0,-0.0017 0,-0.0033 0,-0.005 0,-0.0016 0,-0.0032 0,-0.0047 0,-0.0015 0,-0.0031 0,-0.0045 0,-0.0015 0,-0.0029 0,-0.0043 0,-0.0014 0,-0.0028 0,-0.0041 0,-0.0013 0,-0.0026 0,-0.0039 0,-0.0013 0,-0.0025 0,-0.0037 0,-0.0012 0,-0.0023 0,-0.0035 0,-0.0011 0,-0.0022 0,-0.0032 0,-0.0011 0,-0.0021 0,-0.003 0,-9.76e-4 0,-0.0019 0,-0.0028 0,-9.08e-4 0,-0.0018 0,-0.0026 0,-8.46e-4 0,-0.0017 0,-0.0024 0,-7.78e-4 0,-0.0015 0,-0.0022 0,-7.09e-4 0,-0.0014 0,-0.002 0,-6.41e-4 0,-0.0013 0,-0.0018 0,-5.72e-4 0,-0.0011 0,-0.0016 0,-5.04e-4 0,-9.84e-4 0,-0.0014 0,-4.42e-4 0,-8.54e-4 0,-0.0012 0,-3.82e-4 0,-7.25e-4 0,-0.001 0,-3.2e-4 0,-6.02e-4 0,-8.47e-4 0,-2.51e-4 0,-4.73e-4 0,-6.56e-4 0,-1.91e-4 0,-3.43e-4 0,-4.73e-4 0,-1.22e-4 0,-2.13e-4 0,-2.74e-4 0,-6.1e-5 0,-9.2e-5 0,-9.2e-5 20,0 40,3.1e-5 40,9.2e-5 0,6.1e-5 0,1.52e-4 0,2.74e-4 0,1.22e-4 0,2.75e-4 0,4.58e-4 0,1.83e-4 0,3.97e-4 0,6.33e-4 0,2.44e-4 0,5.19e-4 0,8.24e-4 0,2.98e-4 0,6.33e-4 0,9.92e-4 0,3.59e-4 0,7.48e-4 0,0.0012 0,4.2e-4 0,8.7e-4 0,0.0014 0,4.73e-4 0,9.84e-4 0,0.0015 0,5.34e-4 0,0.0011 0,0.0017 0,5.87e-4 0,0.0012 0,0.0019 0,6.49e-4 0,0.0013 0,0.002 0,7.02e-4 0,0.0014 0,0.0022 0,7.55e-4 0,0.0015 0,0.0024 0,8.16e-4 0,0.0017 0,0.0025 0,8.7e-4 0,0.0018 0,0.0027 0,9.23e-4 0,0.0019 0,0.0029 0,9.77e-4 0,0.002 0,0.003 0,0.001 0,0.0021 0,0.0032 0,0.0011 0,0.0022 0,0.0033 0,0.0011 0,0.0023 0,0.0035 0,0.0012 0,0.0024 0,0.0036 0,0.0012 0,0.0025 0,0.0038 0,0.0013 0,0.0026 0,0.0039 0,0.0013 0,0.0027 0,0.0041 0,0.0014 0,0.0028 0,0.0042 0,0.0014 0,0.0029 0,0.0044 0,0.0015 0,0.003 0,0.0045 0,0.0015 0,0.0031 0,0.0047 0,0.0016 0,0.0032 0,0.0048 0,0.0016 0,0.0033 0,0.005 0,0.0017 0,0.0034 0,0.0051 0,0.0017 0,0.0035 0,0.0052 0,0.0018 0,0.0036 0,0.0054 0,0.0018 0,0.0037 0,0.0055 0,0.0019 0,0.0037 0,0.0056 0,0.0019 0,0.0038 0,0.0058 0,0.0019 0,0.0039 0,0.0059 0,0.002 0,0.004 0,0.006 0,0.002 0,0.0041 0,0.0062 0,0.0021 0,0.0042 0,0.0063 0,0.0021 0,0.0043 0,0.0064 0,0.0022 0,0.0043 0,0.0066 0,0.0022 0,0.0044 0,0.0067 0,0.0022 0,0.0045 0,0.0068 0,0.0023 0,0.0046 0,0.0069 0,0.0023 0,0.0047 0,0.007 0,0.0024 0,0.0048 0,0.0072 0,0.0024 0,0.0048 0,0.0073 0,0.0024 0,0.0049 0,0.0074 0,0.0025 0,0.005 0,0.0075 0,0.0025 0,0.0051 0,0.0076 0,0.0026 0,0.0051 0,0.0077 0,0.0026 0,0.0052 0,0.0078 0,0.0026 0,0.0053 0,0.0079 0,0.0027 0,0.0053 0,0.008 0,0.0027 0,0.0054 0,0.0081 0,0.0027 0,0.0055 0,0.0082 0,0.0028 0,0.0055 0,0.0083 0,0.0028 0,0.0056 0,0.0084 0,0.0028 0,0.0057 0,0.0085 0,0.0029 0,0.0057 0,0.0086 0,0.0029 0,0.0058 0,0.0087 0,0.0029 0,0.0059 0,0.0088 0,0.003 0,0.0059 0,0.0089 0,0.003 0,0.006 0,0.009 0,0.003 0,0.0061 0,0.0091 0,0.003 0,0.0061 0,0.0092 0,0.0031 0,0.0062 0,0.0093 0,0.0031 0,0.0062 0,0.0094 0,0.0031 0,0.0063 0,0.0094 0,0.0032 0,0.0063 0,0.0095 0,0.0032 0,0.0064 0,0.0096 0,0.0032 0,0.0064 0,0.0097 0,0.0032 0,0.0065 0,0.0098 0,0.0033 0,0.0065 0,0.0098 0,0.0033 0,0.0066 0,0.0099 0,0.0033 0,0.0066 0,0.01 0,0.0033 0,0.0067 0,0.01006 0,0.0034 0,0.0067 0,0.01013 0,0.0034 0,0.0068 0,0.01021 0,0.0034 0,0.0068 0,0.01027 0,0.0034 0,0.0069 0,0.01034 0,0.0035 0,0.0069 0,0.0104 0,0.0035 0,0.007 0,0.01047 0,0.0035 0,0.007 0,0.01053 0,0.0035 0,0.007 0,0.01058 0,0.0035 0,0.0071 0,0.01065 0,0.0036 0,0.0071 0,0.0107 0,0.0036 0,0.0072 0,0.01077 0,0.0036 0,0.0072 0,0.01081 0,0.0036 0,0.0072 0,0.01087 0,0.0036 0,0.0073 0,0.01093 0,0.0036 0,0.0073 0,0.01097 0,0.0037 0,0.0073 0,0.01102 0,0.0037 0,0.0074 0,0.01107 0,0.0037 0,0.0074 0,0.01112 0,0.0037 0,0.0074 0,0.01116 0,0.0037 0,0.0075 0,0.0112 0,0.0037 0,0.0075 0,0.01125 0,0.0038 0,0.0075 0,0.01128 0,0.0038 0,0.0075 0,0.01133 0,0.0038 0,0.0076 0,0.01136 0,0.0038 0,0.0076 0,0.0114 0,0.0038 0,0.0076 0,0.01144 0,0.0038 0,0.0076 0,0.01147 0,0.0038 0,0.0077 0,0.0115 0,0.0038 0,0.0077 0,0.01153 0,0.0038 0,0.0077 0,0.01155 0,0.0039 0,0.0077 0,0.01159 0,0.0039 0,0.0077 0,0.01161 0,0.0039 0,0.0078 0,0.01164 0,0.0039 0,0.0078 0,0.01166 0,0.0039 0,0.0078 0,0.01168 0,0.0039 0,0.0078 0,0.01169 0,0.0039 0,0.0078 0,0.01172 0,0.0039 0,0.0078 0,0.01174 0,0.0039 0,0.0078 0,0.01175 0,0.0039 0,0.0078 0,0.01177 0,0.0039 0,0.0079 0,0.01178 0,0.0039 0,0.0079 0,0.01179 0,0.0039 0,0.0079 0,0.0118 0,0.0039 0,0.0079 0,0.01181 0,0.0039 0,0.0079 0,0.01182 0,0.0039 0,0.0079 0,0.01182 0,0.0039 0,0.0079 0,0.01183 0,0.0039 0,0.0079 0,0.01183 0,0.0039 0,0.0079 0,0.01183 0,0.0039 0,0.0079 0,0.01183 0,0.0039 0,0.0079 0,0.01183 0,0.0039 0,0.0079 0,0.01183 0,0.0039 0,0.0079 0,0.01182 0,0.0039 0,0.0079 0,0.01182 0,0.0039 0,0.0079 0,0.01181 0,0.0039 0,0.0079 0,0.0118 0,0.0039 0,0.0079 0,0.01179 0,0.0039 0,0.0079 0,0.01178 0,0.0039 0,0.0079 0,0.01177 0,0.0039 0,0.0078 0,0.01175 0,0.0039 0,0.0078 0,0.01173 0,0.0039 0,0.0078 0,0.01172 0,0.0039 0,0.0078 0,0.0117 0,0.0039 0,0.0078 0,0.01168 0,0.0039 0,0.0078 0,0.01166 0,0.0039 0,0.0078 0,0.01164 0,0.0039 0,0.0077 0,0.01161 0,0.0039 0,0.0077 0,0.01158 0,0.0039 0,0.0077 0,0.01156 0,0.0038 0,0.0077 0,0.01153 0,0.0038 0,0.0077 0,0.0115 0,0.0038 0,0.0077 0,0.01147 0,0.0038 0,0.0076 0,0.01144 0,0.0038 0,0.0076 0,0.0114 0,0.0038 0,0.0076 0,0.01136 0,0.0038 0,0.0076 0,0.01132 0,0.0038 0,0.0075 0,0.01129 0,0.0038 0,0.0075 0,0.01125 0,0.0037 0,0.0075 0,0.0112 0,0.0037 0,0.0074 0,0.01116 0,0.0037 0,0.0074 0,0.01112 0,0.0037 0,0.0074 0,0.01107 0,0.0037 0,0.0074 0,0.01102 0,0.0037 0,0.0073 0,0.01097 0,0.0037 0,0.0073 0,0.01093 0,0.0036 0,0.0073 0,0.01087 0,0.0036 0,0.0072 0,0.01081 0,0.0036 0,0.0072 0,0.01076 0,0.0036 0,0.0071 0,0.0107 0,0.0036 0,0.0071 0,0.01064 0,0.0035 0,0.0071 0,0.01059 0,0.0035 0,0.007 0,0.01053 0,0.0035 0,0.007 0,0.01047 0,0.0035 0,0.0069 0,0.0104 0,0.0035 0,0.0069 0,0.01034 0,0.0034 0,0.0069 0,0.01027 0,0.0034 0,0.0068 0,0.01021 0,0.0034 0,0.0068 0,0.01013 0,0.0034 0,0.0067 0,0.01006 0,0.0033 0,0.0067 0,0.01 0,0.0033 0,0.0066 0,0.0099 0,0.0033 0,0.0066 0,0.0098 0,0.0033 0,0.0065 0,0.0098 0,0.0032 0,0.0065 0,0.0097 0,0.0032 0,0.0064 0,0.0096 0,0.0032 0,0.0064 0,0.0095 0,0.0032 0,0.0063 0,0.0094 0,0.0031 0,0.0063 0,0.0094 0,0.0031 0,0.0062 0,0.0093 0,0.0031 0,0.0061 0,0.0092 0,0.0031 0,0.0061 0,0.0091 0,0.003 0,0.006 0,0.009 0,0.003 0,0.006 0,0.0089 0,0.003 0,0.0059 0,0.0088 0,0.0029 0,0.0058 0,0.0087 0,0.0029 0,0.0058 0,0.0086 0,0.0029 0,0.0057 0,0.0085 0,0.0028 0,0.0056 0,0.0084 0,0.0028 0,0.0056 0,0.0083 0,0.0028 0,0.0055 0,0.0082 0,0.0027 0,0.0054 0,0.0081 0,0.0027 0,0.0054 0,0.008 0,0.0027 0,0.0053 0,0.0079 0,0.0026 0,0.0052 0,0.0078 0,0.0026 0,0.0052 0,0.0077 0,0.0025 0,0.0051 0,0.0076 0,0.0025 0,0.005 0,0.0075 0,0.0025 0,0.0049 0,0.0074 0,0.0024 0,0.0049 0,0.0073 0,0.0024 0,0.0048 0,0.0072 0,0.0024 0,0.0047 0,0.007 0,0.0023 0,0.0046 0,0.0069 0,0.0023 0,0.0046 0,0.0068 0,0.0022 0,0.0045 0,0.0067 0,0.0022 0,0.0044 0,0.0066 0,0.0022 0,0.0043 0,0.0064 0,0.0021 0,0.0042 0,0.0063 0,0.0021 0,0.0041 0,0.0062 0,0.002 0,0.0041 0,0.006 0,0.002 0,0.004 0,0.0059 0,0.002 0,0.0039 0,0.0058 0,0.0019 0,0.0038 0,0.0057 0,0.0019 0,0.0037 0,0.0055 0,0.0018 0,0.0036 0,0.0054 0,0.0018 0,0.0035 0,0.0052 0,0.0017 0,0.0034 0,0.0051 0,0.0017 0,0.0033 0,0.005 0,0.0016 0,0.0032 0,0.0048 0,0.0016 0,0.0031 0,0.0047 0,0.0015 0,0.003 0,0.0045 0,0.0015 0,0.003 0,0.0044 0,0.0014 0,0.0029 0,0.0042 0,0.0014 0,0.0028 0,0.0041 0,0.0013 0,0.0027 0,0.0039 0,0.0013 0,0.0026 0,0.0038 0,0.0012 0,0.0024 0,0.0036 0,0.0012 0,0.0023 0,0.0035 0,0.0011 0,0.0022 0,0.0033 0,0.0011 0,0.0021 0,0.0032 0,0.001 0,0.002 0,0.003 0,9.77e-4 0,0.0019 0,0.0029 0,9.23e-4 0,0.0018 0,0.0027 0,8.7e-4 0,0.0017 0,0.0025 0,8.16e-4 0,0.0016 0,0.0024 0,7.63e-4 0,0.0015 0,0.0022 0,7.02e-4 0,0.0014 0,0.002 0,6.48e-4 0,0.0013 0,0.0019 0,5.88e-4 0,0.0012 0,0.0017 0,5.42e-4 0,0.001 0,0.0015 0,4.8e-4 0,9.3e-4 0,0.0014 0,4.2e-4 0,8.09e-4 0,0.0012 0,3.67e-4 0,6.95e-4 0,0.001 0,2.97e-4 0,5.72e-4 0,8.16e-4 0,2.44e-4 0,4.58e-4 0,6.41e-4 0,1.83e-4 0,3.36e-4 0,4.58e-4 0,1.22e-4 0,2.13e-4 0,2.74e-4 0,6.1e-5 0,9.2e-5 -20,9.2e-5 z m 20,8.077324 c 0,10.970062 -2.444685,30.159302 6.265894,48.385696 3.991199,8.351357 10.407463,16.314011 21.316532,22.4036 C 59.076027,107.09993 76.049606,112 102,112 v 40 C 71.152496,152 47.022335,146.18147 28.447479,135.81274 9.649756,125.3196 -2.243827,110.8354 -9.462737,95.730247 -23.17238,67.043602 -19.638338,35.281158 -19.638338,30.096634 Z" /></g><g
       transform="translate(215.04687,212.5)"
       id="g20"><path
         id="path22"
         style="fill:#06adf4;fill-opacity:1;fill-rule:nonzero;stroke:none"
         d="m 0.436122,22.01931 c -19.999999,0 -19.999999,-3.1e-5 -19.999999,-9.2e-5 0,-6.1e-5 0,-1.52e-4 0,-2.74e-4 0,-1.22e-4 0,-2.75e-4 0,-4.58e-4 0,-1.83e-4 0,-3.97e-4 0,-6.41e-4 0,-2.44e-4 0,-5.19e-4 0,-8.16e-4 0,-3.05e-4 0,-6.33e-4 0,-0.001 0,-3.58e-4 0,-7.47e-4 0,-0.0012 0,-4.2e-4 0,-8.7e-4 0,-0.0014 0,-4.73e-4 0,-9.77e-4 0,-0.0015 0,-5.34e-4 0,-0.0011 0,-0.0017 0,-5.95e-4 0,-0.0012 0,-0.0019 0,-6.49e-4 0,-0.0013 0,-0.002 0,-7.09e-4 0,-0.0014 0,-0.0022 0,-7.55e-4 0,-0.0015 0,-0.0024 0,-8.16e-4 0,-0.0017 0,-0.0025 0,-8.7e-4 0,-0.0018 0,-0.0027 0,-9.23e-4 0,-0.0019 0,-0.0029 0,-9.76e-4 0,-0.002 0,-0.003 0,-10e-4 0,-0.0021 0,-0.0032 0,-0.0011 0,-0.0022 0,-0.0033 0,-0.0011 0,-0.0023 0,-0.0035 0,-0.0012 0,-0.0024 0,-0.0036 0,-0.0012 0,-0.0025 0,-0.0038 0,-0.0013 0,-0.0026 0,-0.0039 0,-0.0013 0,-0.0027 0,-0.0041 0,-0.0014 0,-0.0028 0,-0.0042 0,-0.0014 0,-0.0029 0,-0.0044 0,-0.0015 0,-0.003 0,-0.0045 0,-0.0015 0,-0.0031 0,-0.0047 0,-0.0016 0,-0.0032 0,-0.0048 0,-0.0016 0,-0.0033 0,-0.005 0,-0.0017 0,-0.0034 0,-0.0051 0,-0.0017 0,-0.0035 0,-0.0052 0,-0.0018 0,-0.0036 0,-0.0054 0,-0.0018 0,-0.0037 0,-0.0055 0,-0.0019 0,-0.0037 0,-0.0057 0,-0.0019 0,-0.0038 0,-0.0058 0,-0.0019 0,-0.0039 0,-0.0059 0,-0.002 0,-0.004 0,-0.006 0,-0.002 0,-0.0041 0,-0.0062 0,-0.0021 0,-0.0042 0,-0.0063 0,-0.0021 0,-0.0043 0,-0.0064 0,-0.0022 0,-0.0043 0,-0.0066 0,-0.0022 0,-0.0044 0,-0.0067 0,-0.0022 0,-0.0045 0,-0.0068 0,-0.0023 0,-0.0046 0,-0.0069 0,-0.0023 0,-0.0047 0,-0.007 0,-0.0024 0,-0.0048 0,-0.0072 0,-0.0024 0,-0.0048 0,-0.0073 0,-0.0024 0,-0.0049 0,-0.0074 0,-0.0025 0,-0.005 0,-0.0075 0,-0.0025 0,-0.0051 0,-0.0076 0,-0.0026 0,-0.0051 0,-0.0077 0,-0.0026 0,-0.0052 0,-0.0078 0,-0.0026 0,-0.0053 0,-0.0079 0,-0.0027 0,-0.0053 0,-0.008 0,-0.0027 0,-0.0054 0,-0.0081 0,-0.0027 0,-0.0055 0,-0.0082 0,-0.0028 0,-0.0055 0,-0.0083 0,-0.0028 0,-0.0056 0,-0.0084 0,-0.0028 0,-0.0057 0,-0.0085 0,-0.0029 0,-0.0057 0,-0.0086 0,-0.0029 0,-0.0058 0,-0.0087 0,-0.0029 0,-0.0059 0,-0.0088 0,-0.003 0,-0.0059 0,-0.0089 0,-0.003 0,-0.006 0,-0.009 0,-0.003 0,-0.0061 0,-0.0091 0,-0.003 0,-0.0061 0,-0.0092 0,-0.0031 0,-0.0062 0,-0.0093 0,-0.0031 0,-0.0062 0,-0.0094 0,-0.0031 0,-0.0063 0,-0.0094 0,-0.0032 0,-0.0063 0,-0.0095 0,-0.0032 0,-0.0064 0,-0.0096 0,-0.0032 0,-0.0064 0,-0.0097 0,-0.0032 0,-0.0065 0,-0.0098 0,-0.0033 0,-0.0066 0,-0.0098 0,-0.0033 0,-0.0066 0,-0.0099 0,-0.0033 0,-0.0066 0,-0.01 0,-0.0033 0,-0.0067 0,-0.01006 0,-0.0034 0,-0.0067 0,-0.01013 0,-0.0034 0,-0.0068 0,-0.01021 0,-0.0034 0,-0.0068 0,-0.01027 0,-0.0034 0,-0.0069 0,-0.01034 0,-0.0035 0,-0.0069 0,-0.0104 0,-0.0035 0,-0.007 0,-0.01047 0,-0.0035 0,-0.007 0,-0.01053 0,-0.0035 0,-0.007 0,-0.01059 0,-0.0035 0,-0.0071 0,-0.01064 0,-0.0036 0,-0.0071 0,-0.0107 0,-0.0036 0,-0.0072 0,-0.01076 0,-0.0036 0,-0.0072 0,-0.01081 0,-0.0036 0,-0.0072 0,-0.01087 0,-0.0036 0,-0.0073 0,-0.01093 0,-0.0036 0,-0.0073 0,-0.01097 0,-0.0037 0,-0.0073 0,-0.01102 0,-0.0037 0,-0.0074 0,-0.01107 0,-0.0037 0,-0.0074 0,-0.01112 0,-0.0037 0,-0.0074 0,-0.01116 0,-0.0037 0,-0.0075 0,-0.0112 0,-0.0037 0,-0.0075 0,-0.01125 0,-0.0038 0,-0.0075 0,-0.01129 0,-0.0038 0,-0.0075 0,-0.01132 0,-0.0038 0,-0.0076 0,-0.01136 0,-0.0038 0,-0.0076 0,-0.0114 0,-0.0038 0,-0.0076 0,-0.01144 0,-0.0038 0,-0.0076 0,-0.01147 0,-0.0038 0,-0.0077 0,-0.0115 0,-0.0038 0,-0.0077 0,-0.01153 0,-0.0038 0,-0.0077 0,-0.01156 0,-0.0039 0,-0.0077 0,-0.01158 0,-0.0039 0,-0.0077 0,-0.01161 0,-0.0039 0,-0.0078 0,-0.01164 0,-0.0039 0,-0.0078 0,-0.01166 0,-0.0039 0,-0.0078 0,-0.01168 0,-0.0039 0,-0.0078 0,-0.0117 0,-0.0039 0,-0.0078 0,-0.01172 0,-0.0039 0,-0.0078 0,-0.01173 0,-0.0039 0,-0.0078 0,-0.01175 0,-0.0039 0,-0.0078 0,-0.01177 0,-0.0039 0,-0.0079 0,-0.01178 0,-0.0039 0,-0.0079 0,-0.01179 0,-0.0039 0,-0.0079 0,-0.0118 0,-0.0039 0,-0.0079 0,-0.01181 0,-0.0039 0,-0.0079 0,-0.01182 0,-0.0039 0,-0.0079 0,-0.01182 0,-0.0039 0,-0.0079 0,-0.01183 0,-0.0039 0,-0.0079 0,-0.01183 0,-0.0039 0,-0.0079 0,-0.01183 0,-0.0039 0,-0.0079 0,-0.01183 0,-0.0039 0,-0.0079 0,-0.01183 0,-0.0039 0,-0.0079 0,-0.01183 0,-0.0039 0,-0.0079 0,-0.01182 0,-0.0039 0,-0.0079 0,-0.01182 0,-0.0039 0,-0.0079 0,-0.01181 0,-0.0039 0,-0.0079 0,-0.0118 0,-0.0039 0,-0.0079 0,-0.01179 0,-0.0039 0,-0.0079 0,-0.01178 0,-0.0039 0,-0.0078 0,-0.01177 0,-0.0039 0,-0.0078 0,-0.01175 0,-0.0039 0,-0.0078 0,-0.01174 0,-0.0039 0,-0.0078 0,-0.01172 0,-0.0039 0,-0.0078 0,-0.01169 0,-0.0039 0,-0.0078 0,-0.01168 0,-0.0039 0,-0.0078 0,-0.01166 0,-0.0039 0,-0.0078 0,-0.01164 0,-0.0039 0,-0.0077 0,-0.01161 0,-0.0039 0,-0.0077 0,-0.01159 0,-0.0039 0,-0.0077 0,-0.01155 0,-0.0039 0,-0.0077 0,-0.01153 0,-0.0038 0,-0.0077 0,-0.0115 0,-0.0038 0,-0.0077 0,-0.01147 0,-0.0038 0,-0.0076 0,-0.01144 0,-0.0038 0,-0.0076 0,-0.0114 0,-0.0038 0,-0.0076 0,-0.01136 0,-0.0038 0,-0.0076 0,-0.01133 0,-0.0038 0,-0.0075 0,-0.01128 0,-0.0038 0,-0.0075 0,-0.01125 0,-0.0037 0,-0.0075 0,-0.0112 0,-0.0037 0,-0.0074 0,-0.01116 0,-0.0037 0,-0.0074 0,-0.01112 0,-0.0037 0,-0.0074 0,-0.01107 0,-0.0037 0,-0.0074 0,-0.01102 0,-0.0037 0,-0.0073 0,-0.01097 0,-0.0037 0,-0.0073 0,-0.01093 0,-0.0036 0,-0.0073 0,-0.01087 0,-0.0036 0,-0.0072 0,-0.01081 0,-0.0036 0,-0.0072 0,-0.01077 0,-0.0036 0,-0.0071 0,-0.0107 0,-0.0036 0,-0.0071 0,-0.01065 0,-0.0035 0,-0.0071 0,-0.01058 0,-0.0035 0,-0.007 0,-0.01053 0,-0.0035 0,-0.007 0,-0.01047 0,-0.0035 0,-0.0069 0,-0.0104 0,-0.0035 0,-0.0069 0,-0.01034 0,-0.0034 0,-0.0069 0,-0.01027 0,-0.0034 0,-0.0068 0,-0.01021 0,-0.0034 0,-0.0068 0,-0.01013 0,-0.0034 0,-0.0067 0,-0.01006 0,-0.0033 0,-0.0067 0,-0.01 0,-0.0033 0,-0.0066 0,-0.0099 0,-0.0033 0,-0.0066 0,-0.0098 0,-0.0033 0,-0.0065 0,-0.0098 0,-0.0032 0,-0.0065 0,-0.0097 0,-0.0032 0,-0.0064 0,-0.0096 0,-0.0032 0,-0.0064 0,-0.0095 0,-0.0032 0,-0.0063 0,-0.0094 0,-0.0031 0,-0.0063 0,-0.0094 0,-0.0031 0,-0.0062 0,-0.0093 0,-0.0031 0,-0.0061 0,-0.0092 0,-0.0031 0,-0.0061 0,-0.0091 0,-0.003 0,-0.006 0,-0.009 0,-0.003 0,-0.006 0,-0.0089 0,-0.003 0,-0.0059 0,-0.0088 0,-0.0029 0,-0.0058 0,-0.0087 0,-0.0029 0,-0.0058 0,-0.0086 0,-0.0029 0,-0.0057 0,-0.0085 0,-0.0028 0,-0.0056 0,-0.0084 0,-0.0028 0,-0.0056 0,-0.0083 0,-0.0028 0,-0.0055 0,-0.0082 0,-0.0027 0,-0.0054 0,-0.0081 0,-0.0027 0,-0.0054 0,-0.008 0,-0.0027 0,-0.0053 0,-0.0079 0,-0.0026 0,-0.0052 0,-0.0078 0,-0.0026 0,-0.0052 0,-0.0077 0,-0.0026 0,-0.0051 0,-0.0076 0,-0.0025 0,-0.005 0,-0.0075 0,-0.0025 0,-0.0049 0,-0.0074 0,-0.0024 0,-0.0049 0,-0.0073 0,-0.0024 0,-0.0048 0,-0.0072 0,-0.0024 0,-0.0047 0,-0.007 0,-0.0023 0,-0.0046 0,-0.0069 0,-0.0023 0,-0.0046 0,-0.0068 0,-0.0022 0,-0.0045 0,-0.0067 0,-0.0022 0,-0.0044 0,-0.0066 0,-0.0022 0,-0.0043 0,-0.0064 0,-0.0021 0,-0.0042 0,-0.0063 0,-0.0021 0,-0.0041 0,-0.0062 0,-0.002 0,-0.0041 0,-0.006 0,-0.002 0,-0.004 0,-0.0059 0,-0.002 0,-0.0039 0,-0.0058 0,-0.0019 0,-0.0038 0,-0.0056 0,-0.0019 0,-0.0037 0,-0.0055 0,-0.0018 0,-0.0036 0,-0.0054 0,-0.0018 0,-0.0035 0,-0.0052 0,-0.0017 0,-0.0034 0,-0.0051 0,-0.0017 0,-0.0033 0,-0.005 0,-0.0016 0,-0.0032 0,-0.0048 0,-0.0016 0,-0.0031 0,-0.0047 0,-0.0015 0,-0.0031 0,-0.0045 0,-0.0015 0,-0.003 0,-0.0044 0,-0.0014 0,-0.0029 0,-0.0042 0,-0.0014 0,-0.0028 0,-0.0041 0,-0.0013 0,-0.0027 0,-0.0039 0,-0.0013 0,-0.0026 0,-0.0038 0,-0.0012 0,-0.0025 0,-0.0036 0,-0.0012 0,-0.0023 0,-0.0035 0,-0.0011 0,-0.0022 0,-0.0033 0,-0.0011 0,-0.0021 0,-0.0032 0,-10e-4 0,-0.002 0,-0.003 0,-9.77e-4 0,-0.0019 0,-0.0029 0,-9.24e-4 0,-0.0018 0,-0.0027 0,-8.69e-4 0,-0.0017 0,-0.0025 0,-8.16e-4 0,-0.0016 0,-0.0024 0,-7.63e-4 0,-0.0015 0,-0.0022 0,-7.1e-4 0,-0.0014 0,-0.002 0,-6.48e-4 0,-0.0013 0,-0.0019 0,-5.95e-4 0,-0.0012 0,-0.0017 0,-5.34e-4 0,-10e-4 0,-0.0015 0,-4.81e-4 0,-9.31e-4 0,-0.0014 0,-4.19e-4 0,-8.08e-4 0,-0.0012 0,-3.59e-4 0,-6.94e-4 0,-9.92e-4 0,-3.05e-4 0,-5.8e-4 0,-8.24e-4 0,-2.36e-4 0,-4.5e-4 0,-6.33e-4 0,-1.83e-4 0,-3.36e-4 0,-4.58e-4 0,-1.22e-4 0,-2.13e-4 0,-2.74e-4 0,-6.1e-5 19.999999,-9.2e-5 40,-9.2e-5 0,0 0,3.1e-5 0,9.2e-5 0,6.1e-5 0,1.52e-4 0,2.74e-4 0,1.3e-4 0,2.82e-4 0,4.73e-4 0,1.83e-4 0,4.05e-4 0,6.56e-4 0,2.45e-4 0,5.27e-4 0,8.47e-4 0,3.13e-4 0,6.56e-4 0,0.001 0,3.74e-4 0,7.86e-4 0,0.0012 0,4.43e-4 0,9.23e-4 0,0.0014 0,5.11e-4 0,0.0011 0,0.0016 0,5.72e-4 0,0.0012 0,0.0018 0,6.41e-4 0,0.0013 0,0.002 0,7.02e-4 0,0.0014 0,0.0022 0,7.71e-4 0,0.0016 0,0.0024 0,8.4e-4 0,0.0017 0,0.0026 0,9.08e-4 0,0.0019 0,0.0028 0,9.85e-4 0,0.002 0,0.003 0,10e-4 0,0.0021 0,0.0032 0,0.0011 0,0.0023 0,0.0035 0,0.0012 0,0.0024 0,0.0037 0,0.0013 0,0.0025 0,0.0039 0,0.0013 0,0.0027 0,0.0041 0,0.0014 0,0.0028 0,0.0043 0,0.0015 0,0.003 0,0.0045 0,0.0015 0,0.0031 0,0.0047 0,0.0016 0,0.0033 0,0.005 0,0.0017 0,0.0034 0,0.0052 0,0.0018 0,0.0036 0,0.0054 0,0.0018 0,0.0037 0,0.0056 0,0.0019 0,0.0039 0,0.0059 0,0.002 0,0.004 0,0.0061 0,0.0021 0,0.0042 0,0.0063 0,0.0021 0,0.0043 0,0.0065 0,0.0022 0,0.0045 0,0.0068 0,0.0023 0,0.0046 0,0.007 0,0.0024 0,0.0048 0,0.0072 0,0.0024 0,0.0049 0,0.0075 0,0.0025 0,0.0051 0,0.0077 0,0.0026 0,0.0053 0,0.0079 0,0.0027 0,0.0054 0,0.0082 0,0.0028 0,0.0056 0,0.0084 0,0.0028 0,0.0057 0,0.0087 0,0.0029 0,0.0059 0,0.0089 0,0.003 0,0.0061 0,0.0092 0,0.0031 0,0.0062 0,0.0094 0,0.0032 0,0.0064 0,0.0097 0,0.0033 0,0.0066 0,0.0099 0,0.0033 0,0.0067 0,0.01016 0,0.0034 0,0.0069 0,0.01041 0,0.0035 0,0.0071 0,0.01067 0,0.0036 0,0.0072 0,0.01092 0,0.0037 0,0.0074 0,0.01118 0,0.0038 0,0.0076 0,0.01144 0,0.0039 0,0.0078 0,0.0117 0,0.0039 0,0.0079 0,0.01196 0,0.004 0,0.0081 0,0.01222 0,0.0041 0,0.0083 0,0.01249 0,0.0042 0,0.0085 0,0.01275 0,0.0043 0,0.0086 0,0.01302 0,0.0044 0,0.0088 0,0.01329 0,0.0045 0,0.009 0,0.01356 0,0.0046 0,0.0092 0,0.01383 0,0.0047 0,0.0094 0,0.01411 0,0.0047 0,0.0095 0,0.01437 0,0.0048 0,0.0097 0,0.01465 0,0.0049 0,0.0099 0,0.01493 0,0.005 0,0.01009 0,0.01521 0,0.0051 0,0.01028 0,0.01549 0,0.0052 0,0.01047 0,0.01577 0,0.0053 0,0.01066 0,0.01605 0,0.0054 0,0.01085 0,0.01634 0,0.0055 0,0.01103 0,0.01662 0,0.0056 0,0.01122 0,0.01691 0,0.0057 0,0.01142 0,0.0172 0,0.0058 0,0.01161 0,0.01749 0,0.0059 0,0.0118 0,0.01778 0,0.006 0,0.012 0,0.01808 0,0.0061 0,0.01219 0,0.01836 0,0.0062 0,0.0124 0,0.01867 0,0.0063 0,0.01259 0,0.01896 0,0.0064 0,0.0128 0,0.01926 0,0.0065 0,0.01299 0,0.01956 0,0.0066 0,0.01319 0,0.01987 0,0.0067 0,0.01339 0,0.02016 0,0.0068 0,0.01359 0,0.02047 0,0.0069 0,0.0138 0,0.02078 0,0.007 0,0.01401 0,0.02109 0,0.0071 0,0.01421 0,0.02139 0,0.0072 0,0.01442 0,0.02171 0,0.0073 0,0.01462 0,0.02202 0,0.0074 0,0.01483 0,0.02233 0,0.0075 0,0.01505 0,0.02265 0,0.0076 0,0.01526 0,0.02296 0,0.0077 0,0.01547 0,0.02328 0,0.0078 0,0.01568 0,0.02361 0,0.0079 0,0.01589 0,0.02392 0,0.008 0,0.01611 0,0.02424 0,0.0081 0,0.01633 0,0.02457 0,0.0082 0,0.01654 0,0.0249 0,0.0083 0,0.01675 0,0.02521 0,0.0085 0,0.01697 0,0.02554 0,0.0086 0,0.0172 0,0.02587 0,0.0087 0,0.01742 0,0.02621 0,0.0088 0,0.01764 0,0.02653 0,0.0089 0,0.01786 0,0.02687 0,0.009 0,0.01808 0,0.02721 0,0.0091 0,0.01831 0,0.02754 0,0.0092 0,0.01853 0,0.02788 0,0.0093 0,0.01875 0,0.02821 0,0.0095 0,0.01899 0,0.02856 0,0.0096 0,0.01921 0,0.0289 0,0.0097 0,0.01944 0,0.02925 0,0.0098 0,0.01967 0,0.02959 0,0.0099 0,0.0199 0,0.02994 0,0.01004 0,0.02013 0,0.03029 0,0.01015 0,0.02036 0,0.03064 0,0.01027 0,0.0206 0,0.03098 0,0.01039 0,0.02084 0,0.03134 0,0.0105 0,0.02107 0,0.03169 0,0.01062 0,0.02131 0,0.03205 0,0.01074 0,0.02154 0,0.0324 0,0.01086 0,0.02178 0,0.03276 0,0.01099 0,0.02203 0,0.03313 0,0.0111 0,0.02226 0,0.03349 0,0.01122 0,0.0225 0,0.03384 0,0.01135 0,0.02275 0,0.03421 0,0.01147 0,0.02299 0,0.03458 0,0.01159 0,0.02324 0,0.03494 0,0.01171 0,0.02348 0,0.03532 0,0.01183 0,0.02372 0,0.03568 0,0.01196 0,0.02398 0,0.03606 0,0.01208 0,0.02422 0,0.03642 0,0.01221 0,0.02448 0,0.0368 0,0.01233 0,0.02473 0,0.03718 0,0.01245 0,0.02497 0,0.03755 0,0.01258 0,0.02522 0,0.03793 0,0.0127 0,0.02548 0,0.03831 0,0.01283 0,0.02573 0,0.03869 0,0.01296 0,0.02599 0,0.03908 0,0.01308 0,0.02624 0,0.03946 0,0.01321 0,0.0265 0,0.03984 0,0.01334 0,0.02676 0,0.04023 0,0.01347 0,0.02702 0,0.04062 0,0.0136 0,0.02727 0,0.04101 0,0.01373 0,0.02754 0,0.04141 0,0.01386 0,0.02779 0,0.04179 0,0.01399 0,0.02805 0,0.04218 0,0.01413 0,0.02833 0,0.04259 0,0.01426 0,0.02859 0,0.04298 0,0.0144 0,0.02886 0,0.04338 0,0.01453 0,0.02912 0,0.04378 0,0.01466 0,0.02939 0,0.04418 0,0.01479 0,0.02966 0,0.04459 0,0.01493 0,0.02992 0,0.04499 0,0.01506 0,0.0302 0,0.04539 0,0.0152 0,0.03046 0,0.0458 0,0.01534 0,0.03074 0,0.04621 0,0.01547 0,0.03101 0,0.04662 0,0.0156 0,0.03128 0,0.04703 0,0.01575 0,0.03156 0,0.04745 0,0.01588 0,0.03184 0,0.04786 0,0.01602 0,0.03211 0,0.04828 0,0.01616 0,0.03239 0,0.04869 0,0.0163 0,0.03267 0,0.04911 0,0.01644 0,0.03295 0,0.04953 0,0.01659 0,0.03323 0,0.04996 0,0.01672 0,0.03352 0,0.05038 0,0.01686 0,0.0338 0,0.0508 0,0.017 0,0.03408 0,0.05122 0,0.01715 0,0.03437 0,0.05166 0,0.01729 0,0.03465 0,0.05209 0,0.01743 0,0.03494 0,0.05251 0,0.01758 0,0.03523 0,0.05295 0,0.01772 0,0.03551 0,0.05338 0,0.01787 0,0.0358 0,0.05382 0,0.01801 0,0.03609 0,0.05425 0,0.01815 0,0.03638 0,0.05469 0,0.0183 0,0.03667 0,0.05512 0,0.01845 0,0.03697 0,0.05557 0,0.01859 0,0.03726 0,0.05601 0,0.01875 0,0.03756 0,0.05646 0,0.01889 0,0.03786 0,0.05689 0,0.01904 0,0.03815 0,0.05735 0,0.01919 0,0.03845 0,0.05779 0,0.01933 0,0.03875 0,0.05823 0,0.01949 0,0.03906 0,0.05869 0,0.01965 0,0.03936 0,0.05915 0,0.01978 0,0.03965 0,0.05959 0,0.01994 0,0.03996 0,0.06005 0,0.02009 0,0.04027 0,0.06051 0,0.02025 0,0.04057 0,0.06097 0,0.02039 0,0.04087 0,0.06142 0,0.02055 0,0.04118 0,0.06188 0,0.02071 0,0.04149 0,0.06236 0,0.02086 0,0.04179 0,0.06281 0,0.02101 0,0.04211 0,0.06328 0,0.02116 0,0.04242 0,0.06374 0,0.02132 0,0.04273 0,0.06421 0,0.02149 0,0.04305 0,0.06468 0,0.02164 0,0.04336 0,0.06516 0,0.0218 0,0.04367 0,0.06562 0,0.02196 0,0.04399 0,0.0661 0,0.02211 0,0.0443 0,0.06657 0,0.02227 0,0.04462 0,0.06705 0,0.02243 0,0.04494 0,0.06753 0,0.02259 0,0.04526 0,0.06801 0,0.02274 0,0.04558 0,0.06849 0,0.02291 0,0.0459 0,0.06897 0,0.02307 0,0.04622 0,0.06946 0,0.02323 0,0.04654 0,0.06994 0,0.02339 0,0.04687 0,0.07043 0,0.02356 0,0.0472 0,0.07092 0,0.02372 0,0.04752 0,0.0714 0,0.02389 0,0.04785 0,0.0719 0,0.02405 0,0.04817 0,0.07239 0,0.02421 0,0.04851 0,0.07288 0,0.02438 0,0.04884 0,0.07338 0,0.02454 0,0.04916 0,0.07388 0,0.0247 0,0.04949 0,0.07437 0,0.02487 0,0.04983 0,0.07488 0,0.02504 0,0.05016 0,0.07537 0,0.02521 0,0.0505 0,0.07587 0,0.02538 0,0.05084 0,0.07638 0,0.02554 0,0.05117 0,0.07688 0,0.02572 0,0.05151 0,0.0774 0,0.02588 0,0.05185 0,0.0779 0,0.02605 0,0.05219 0,0.07841 0,0.02622 0,0.05253 0,0.07892 0,0.0264 0,0.05287 0,0.07944 0,0.02656 0,0.05321 0,0.07995 0,0.02674 0,0.05356 0,0.08047 0,0.02691 0,0.0539 0,0.08099 0,0.02708 0,0.05425 0,0.0815 0,0.02725 0,0.0546 0,0.08202 0,0.02743 0,0.05494 0,0.08254 0,0.0276 0,0.05529 0,0.08306 0,0.02778 0,0.05564 0,0.0836 0,0.02795 0,0.05598 0,0.08411 0,0.02812 0,0.05634 0,0.08464 0,0.02831 0,0.05669 0,0.08517 0,0.02847 0,0.05704 0,0.0857 0,0.02866 0,0.0574 0,0.08623 0,0.02884 0,0.05775 0,0.08677 0,0.02901 0,0.05811 0,0.0873 0,0.02918 0,0.05846 0,0.08783 0,0.02937 0,0.05883 0,0.08838 0,0.02954 0,0.05918 0,0.08891 0,0.02973 0,0.05955 0,0.08946 0,0.02991 0,0.05991 0,0.09 0,0.03009 0,0.06026 0,0.09054 0,0.03027 0,0.06063 0,0.09108 0,0.03045 0,0.06099 0,0.09163 0,0.03063 0,0.06135 0,0.09217 0,0.03082 0,0.06172 0,0.09273 0,0.031 0,0.06209 0,0.09327 0,0.03118 0,0.06246 0,0.09383 0,0.03137 0,0.06283 0,0.09438 h -40 c 0,-0.03156 0,-0.06301 0,-0.09438 0,-0.03137 0,-0.06264 0,-0.09383 0,-0.03118 0,-0.06227 0,-0.09327 0,-0.03101 0,-0.06191 0,-0.09273 0,-0.03082 0,-0.06154 0,-0.09217 0,-0.03064 0,-0.06118 0,-0.09163 0,-0.03045 0,-0.06081 0,-0.09108 0,-0.03027 0,-0.06045 0,-0.09054 0,-0.03009 0,-0.06009 0,-0.09 0,-0.02991 0,-0.05972 0,-0.08946 0,-0.02972 0,-0.05936 0,-0.08891 0,-0.02955 0,-0.05901 0,-0.08838 0,-0.02937 0,-0.05865 0,-0.08783 0,-0.02919 0,-0.0583 0,-0.0873 0,-0.02902 0,-0.05793 0,-0.08677 0,-0.02883 0,-0.05757 0,-0.08623 0,-0.02866 0,-0.05723 0,-0.0857 0,-0.02848 0,-0.05687 0,-0.08517 0,-0.0283 0,-0.05652 0,-0.08464 0,-0.02813 0,-0.05617 0,-0.08411 0,-0.02795 0,-0.05582 0,-0.0836 0,-0.02777 0,-0.05546 0,-0.08306 0,-0.0276 0,-0.05512 0,-0.08254 0,-0.02743 0,-0.05477 0,-0.08202 0,-0.02725 0,-0.05442 0,-0.0815 0,-0.02708 0,-0.05408 0,-0.08099 0,-0.02691 0,-0.05373 0,-0.08047 0,-0.02673 0,-0.05338 0,-0.07995 0,-0.02657 0,-0.05304 0,-0.07944 0,-0.02639 0,-0.0527 0,-0.07892 0,-0.02622 0,-0.05236 0,-0.07841 0,-0.02605 0,-0.05202 0,-0.0779 0,-0.02589 0,-0.05168 0,-0.0774 0,-0.02571 0,-0.05134 0,-0.07688 0,-0.02554 0,-0.05101 0,-0.07638 0,-0.02538 0,-0.05067 0,-0.07587 0,-0.02521 0,-0.05033 0,-0.07537 0,-0.02505 0,-0.05 0,-0.07488 0,-0.02488 0,-0.04967 0,-0.07437 0,-0.02471 0,-0.04934 0,-0.07388 0,-0.02454 0,-0.049 0,-0.07338 0,-0.02438 0,-0.04868 0,-0.07288 0,-0.02422 0,-0.04834 0,-0.07239 0,-0.02405 0,-0.04801 0,-0.0719 0,-0.02388 0,-0.04768 0,-0.0714 0,-0.02372 0,-0.04736 0,-0.07092 0,-0.02356 0,-0.04704 0,-0.07043 0,-0.0234 0,-0.04671 0,-0.06994 0,-0.02324 0,-0.04639 0,-0.06946 0,-0.02307 0,-0.04606 0,-0.06897 0,-0.02291 0,-0.04575 0,-0.06849 0,-0.02275 0,-0.04542 0,-0.06801 0,-0.02259 0,-0.0451 0,-0.06753 0,-0.02243 0,-0.04479 0,-0.06705 0,-0.02227 0,-0.04446 0,-0.06657 0,-0.02211 0,-0.04414 0,-0.0661 0,-0.02195 0,-0.04382 0,-0.06562 0,-0.0218 0,-0.04352 0,-0.06516 0,-0.02164 0,-0.0432 0,-0.06468 0,-0.02148 0,-0.04288 0,-0.06421 0,-0.02132 0,-0.04258 0,-0.06374 0,-0.02117 0,-0.04227 0,-0.06328 0,-0.02102 0,-0.04196 0,-0.06281 0,-0.02087 0,-0.04165 0,-0.06236 0,-0.02071 0,-0.04133 0,-0.06188 0,-0.02055 0,-0.04103 0,-0.06142 0,-0.0204 0,-0.04072 0,-0.06097 0,-0.02024 0,-0.04041 0,-0.06051 0,-0.02009 0,-0.04011 0,-0.06005 0,-0.01994 0,-0.03981 0,-0.05959 0,-0.01979 0,-0.0395 0,-0.05915 0,-0.01964 0,-0.0392 0,-0.05869 0,-0.01949 0,-0.0389 0,-0.05823 0,-0.01934 0,-0.03861 0,-0.05779 0,-0.0192 0,-0.03831 0,-0.05735 0,-0.01904 0,-0.038 0,-0.05689 0,-0.0189 0,-0.03771 0,-0.05646 0,-0.01875 0,-0.03741 0,-0.05601 0,-0.0186 0,-0.03712 0,-0.05557 0,-0.01845 0,-0.03682 0,-0.05512 0,-0.0183 0,-0.03654 0,-0.05469 0,-0.01816 0,-0.03624 0,-0.05425 0,-0.01801 0,-0.03595 0,-0.05382 0,-0.01787 0,-0.03566 0,-0.05338 0,-0.01772 0,-0.03537 0,-0.05295 0,-0.01758 0,-0.03508 0,-0.05251 0,-0.01743 0,-0.0348 0,-0.05209 0,-0.01729 0,-0.03451 0,-0.05166 0,-0.01714 0,-0.03423 0,-0.05122 0,-0.01701 0,-0.03394 0,-0.0508 0,-0.01686 0,-0.03365 0,-0.05038 0,-0.01672 0,-0.03337 0,-0.04996 0,-0.01658 0,-0.03309 0,-0.04953 0,-0.01644 0,-0.03281 0,-0.04911 0,-0.0163 0,-0.03253 0,-0.04869 0,-0.01617 0,-0.03226 0,-0.04828 0,-0.01602 0,-0.03198 0,-0.04786 0,-0.01588 0,-0.0317 0,-0.04745 0,-0.01575 0,-0.03142 0,-0.04703 0,-0.01561 0,-0.03115 0,-0.04662 0,-0.01547 0,-0.03088 0,-0.04621 0,-0.01534 0,-0.0306 0,-0.0458 0,-0.0152 0,-0.03033 0,-0.04539 0,-0.01507 0,-0.03006 0,-0.04499 0,-0.01493 0,-0.02979 0,-0.04459 0,-0.01479 0,-0.02952 0,-0.04418 0,-0.01466 0,-0.02925 0,-0.04378 0,-0.01453 0,-0.02898 0,-0.04338 0,-0.01439 0,-0.02872 0,-0.04298 0,-0.01426 0,-0.02846 0,-0.04259 0,-0.01413 0,-0.02819 0,-0.04218 0,-0.014 0,-0.02793 0,-0.04179 0,-0.01387 0,-0.02767 0,-0.04141 0,-0.01373 0,-0.0274 0,-0.04101 0,-0.0136 0,-0.02715 0,-0.04062 0,-0.01347 0,-0.02689 0,-0.04023 0,-0.01334 0,-0.02663 0,-0.03984 0,-0.01322 0,-0.02638 0,-0.03946 0,-0.01309 0,-0.02612 0,-0.03908 0,-0.01296 0,-0.02586 0,-0.03869 0,-0.01283 0,-0.0256 0,-0.03831 0,-0.01271 0,-0.02535 0,-0.03793 0,-0.01258 0,-0.0251 0,-0.03755 0,-0.01245 0,-0.02485 0,-0.03718 0,-0.01232 0,-0.02459 0,-0.0368 0,-0.0122 0,-0.02435 0,-0.03642 0,-0.01208 0,-0.0241 0,-0.03606 0,-0.01196 0,-0.02385 0,-0.03568 0,-0.01183 0,-0.0236 0,-0.03532 0,-0.0117 0,-0.02335 0,-0.03494 0,-0.01158 0,-0.02311 0,-0.03458 0,-0.01146 0,-0.02286 0,-0.03421 0,-0.01134 0,-0.02262 0,-0.03384 0,-0.01122 0,-0.02238 0,-0.03349 0,-0.0111 0,-0.02214 0,-0.03313 0,-0.01098 0,-0.0219 0,-0.03276 0,-0.01086 0,-0.02166 0,-0.0324 0,-0.01074 0,-0.02143 0,-0.03205 0,-0.01062 0,-0.02119 0,-0.03169 0,-0.01051 0,-0.02095 0,-0.03134 0,-0.01038 0,-0.02071 0,-0.03098 0,-0.01028 0,-0.02049 0,-0.03064 0,-0.01015 0,-0.02025 0,-0.03029 0,-0.01003 0,-0.02001 0,-0.02994 0,-0.0099 0,-0.01978 0,-0.02959 0,-0.0098 0,-0.01956 0,-0.02925 0,-0.0097 0,-0.01932 0,-0.0289 0,-0.0096 0,-0.0191 0,-0.02856 0,-0.0095 0,-0.01887 0,-0.02821 0,-0.0094 0,-0.01865 0,-0.02788 0,-0.0092 0,-0.01842 0,-0.02754 0,-0.0091 0,-0.01819 0,-0.02721 0,-0.009 0,-0.01797 0,-0.02687 0,-0.0089 0,-0.01775 0,-0.02653 0,-0.0088 0,-0.01752 0,-0.02621 0,-0.0087 0,-0.0173 0,-0.02587 0,-0.0086 0,-0.01708 0,-0.02554 0,-0.0085 0,-0.01687 0,-0.02521 0,-0.0084 0,-0.01666 0,-0.0249 0,-0.0082 0,-0.01643 0,-0.02457 0,-0.0081 0,-0.01621 0,-0.02424 0,-0.008 0,-0.016 0,-0.02392 0,-0.0079 0,-0.01579 0,-0.02361 0,-0.0078 0,-0.01557 0,-0.02328 0,-0.0077 0,-0.01536 0,-0.02296 0,-0.0076 0,-0.01515 0,-0.02265 0,-0.0075 0,-0.01494 0,-0.02233 0,-0.0074 0,-0.01473 0,-0.02202 0,-0.0073 0,-0.01452 0,-0.02171 0,-0.0072 0,-0.01431 0,-0.02139 0,-0.0071 0,-0.01411 0,-0.02109 0,-0.007 0,-0.0139 0,-0.02078 0,-0.0069 0,-0.01369 0,-0.02047 0,-0.0068 0,-0.0135 0,-0.02016 0,-0.0067 0,-0.0133 0,-0.01987 0,-0.0066 0,-0.01309 0,-0.01956 0,-0.0065 0,-0.01289 0,-0.01926 0,-0.0064 0,-0.01269 0,-0.01896 0,-0.0063 0,-0.0125 0,-0.01867 0,-0.0062 0,-0.01229 0,-0.01836 0,-0.0061 0,-0.0121 0,-0.01808 0,-0.006 0,-0.0119 0,-0.01778 0,-0.0059 0,-0.01171 0,-0.01749 0,-0.0058 0,-0.01151 0,-0.0172 0,-0.0057 0,-0.01132 0,-0.01691 0,-0.0056 0,-0.01113 0,-0.01662 0,-0.0055 0,-0.01094 0,-0.01634 0,-0.0054 0,-0.01075 0,-0.01605 0,-0.0053 0,-0.01056 0,-0.01577 0,-0.0052 0,-0.01037 0,-0.01549 0,-0.0051 0,-0.01018 0,-0.01521 0,-0.005 0,-0.01 0,-0.01493 0,-0.0049 0,-0.0098 0,-0.01465 0,-0.0048 0,-0.0096 0,-0.01437 0,-0.0047 0,-0.0095 0,-0.01411 0,-0.0047 0,-0.0093 0,-0.01383 0,-0.0046 0,-0.0091 0,-0.01356 0,-0.0045 0,-0.0089 0,-0.01329 0,-0.0044 0,-0.0087 0,-0.01302 0,-0.0043 0,-0.0085 0,-0.01275 0,-0.0042 0,-0.0084 0,-0.01249 0,-0.0041 0,-0.0082 0,-0.01222 0,-0.004 0,-0.008 0,-0.01196 0,-0.0039 0,-0.0078 0,-0.0117 0,-0.0039 0,-0.0077 0,-0.01144 0,-0.0038 0,-0.0075 0,-0.01118 0,-0.0037 0,-0.0073 0,-0.01092 0,-0.0036 0,-0.0072 0,-0.01067 0,-0.0035 0,-0.007 0,-0.01041 0,-0.0034 0,-0.0068 0,-0.01016 0,-0.0033 0,-0.0067 0,-0.0099 0,-0.0033 0,-0.0065 0,-0.0097 0,-0.0032 0,-0.0063 0,-0.0094 0,-0.0031 0,-0.0061 0,-0.0092 0,-0.003 0,-0.006 0,-0.0089 0,-0.0029 0,-0.0058 0,-0.0087 0,-0.0029 0,-0.0057 0,-0.0084 0,-0.0028 0,-0.0055 0,-0.0082 0,-0.0027 0,-0.0053 0,-0.0079 0,-0.0026 0,-0.0052 0,-0.0077 0,-0.0025 0,-0.005 0,-0.0075 0,-0.0025 0,-0.0049 0,-0.0072 0,-0.0024 0,-0.0047 0,-0.007 0,-0.0023 0,-0.0046 0,-0.0068 0,-0.0022 0,-0.0044 0,-0.0065 0,-0.0021 0,-0.0042 0,-0.0063 0,-0.0021 0,-0.0041 0,-0.0061 0,-0.002 0,-0.0039 0,-0.0059 0,-0.0019 0,-0.0038 0,-0.0056 0,-0.0018 0,-0.0036 0,-0.0054 0,-0.0018 0,-0.0035 0,-0.0052 0,-0.0017 0,-0.0033 0,-0.005 0,-0.0016 0,-0.0032 0,-0.0047 0,-0.0015 0,-0.0031 0,-0.0045 0,-0.0015 0,-0.0029 0,-0.0043 0,-0.0014 0,-0.0028 0,-0.0041 0,-0.0013 0,-0.0026 0,-0.0039 0,-0.0013 0,-0.0025 0,-0.0037 0,-0.0012 0,-0.0023 0,-0.0035 0,-0.0011 0,-0.0022 0,-0.0032 0,-0.0011 0,-0.0021 0,-0.003 0,-9.76e-4 0,-0.0019 0,-0.0028 0,-9.08e-4 0,-0.0018 0,-0.0026 0,-8.46e-4 0,-0.0017 0,-0.0024 0,-7.78e-4 0,-0.0015 0,-0.0022 0,-7.09e-4 0,-0.0014 0,-0.002 0,-6.41e-4 0,-0.0013 0,-0.0018 0,-5.72e-4 0,-0.0011 0,-0.0016 0,-5.04e-4 0,-9.84e-4 0,-0.0014 0,-4.42e-4 0,-8.54e-4 0,-0.0012 0,-3.82e-4 0,-7.25e-4 0,-0.001 0,-3.2e-4 0,-6.02e-4 0,-8.47e-4 0,-2.51e-4 0,-4.73e-4 0,-6.56e-4 0,-1.91e-4 0,-3.43e-4 0,-4.73e-4 0,-1.22e-4 0,-2.13e-4 0,-2.74e-4 0,-6.1e-5 0,-9.2e-5 0,-9.2e-5 19.999999,0 40,3.1e-5 40,9.2e-5 0,6.1e-5 0,1.52e-4 0,2.74e-4 0,1.22e-4 0,2.75e-4 0,4.58e-4 0,1.83e-4 0,3.97e-4 0,6.33e-4 0,2.44e-4 0,5.19e-4 0,8.24e-4 0,2.98e-4 0,6.33e-4 0,9.92e-4 0,3.59e-4 0,7.48e-4 0,0.0012 0,4.2e-4 0,8.7e-4 0,0.0014 0,4.73e-4 0,9.84e-4 0,0.0015 0,5.34e-4 0,0.0011 0,0.0017 0,5.87e-4 0,0.0012 0,0.0019 0,6.49e-4 0,0.0013 0,0.002 0,7.02e-4 0,0.0014 0,0.0022 0,7.55e-4 0,0.0015 0,0.0024 0,8.16e-4 0,0.0017 0,0.0025 0,8.7e-4 0,0.0018 0,0.0027 0,9.23e-4 0,0.0019 0,0.0029 0,9.77e-4 0,0.002 0,0.003 0,0.001 0,0.0021 0,0.0032 0,0.0011 0,0.0022 0,0.0033 0,0.0011 0,0.0023 0,0.0035 0,0.0012 0,0.0024 0,0.0036 0,0.0012 0,0.0025 0,0.0038 0,0.0013 0,0.0026 0,0.0039 0,0.0013 0,0.0027 0,0.0041 0,0.0014 0,0.0028 0,0.0042 0,0.0014 0,0.0029 0,0.0044 0,0.0015 0,0.003 0,0.0045 0,0.0015 0,0.0031 0,0.0047 0,0.0016 0,0.0032 0,0.0048 0,0.0016 0,0.0033 0,0.005 0,0.0017 0,0.0034 0,0.0051 0,0.0017 0,0.0035 0,0.0052 0,0.0018 0,0.0036 0,0.0054 0,0.0018 0,0.0037 0,0.0055 0,0.0019 0,0.0037 0,0.0056 0,0.0019 0,0.0038 0,0.0058 0,0.0019 0,0.0039 0,0.0059 0,0.002 0,0.004 0,0.006 0,0.002 0,0.0041 0,0.0062 0,0.0021 0,0.0042 0,0.0063 0,0.0021 0,0.0043 0,0.0064 0,0.0022 0,0.0043 0,0.0066 0,0.0022 0,0.0044 0,0.0067 0,0.0022 0,0.0045 0,0.0068 0,0.0023 0,0.0046 0,0.0069 0,0.0023 0,0.0047 0,0.007 0,0.0024 0,0.0048 0,0.0072 0,0.0024 0,0.0048 0,0.0073 0,0.0024 0,0.0049 0,0.0074 0,0.0025 0,0.005 0,0.0075 0,0.0025 0,0.0051 0,0.0076 0,0.0026 0,0.0051 0,0.0077 0,0.0026 0,0.0052 0,0.0078 0,0.0026 0,0.0053 0,0.0079 0,0.0027 0,0.0053 0,0.008 0,0.0027 0,0.0054 0,0.0081 0,0.0027 0,0.0055 0,0.0082 0,0.0028 0,0.0055 0,0.0083 0,0.0028 0,0.0056 0,0.0084 0,0.0028 0,0.0057 0,0.0085 0,0.0029 0,0.0057 0,0.0086 0,0.0029 0,0.0058 0,0.0087 0,0.0029 0,0.0059 0,0.0088 0,0.003 0,0.0059 0,0.0089 0,0.003 0,0.006 0,0.009 0,0.003 0,0.0061 0,0.0091 0,0.003 0,0.0061 0,0.0092 0,0.0031 0,0.0062 0,0.0093 0,0.0031 0,0.0062 0,0.0094 0,0.0031 0,0.0063 0,0.0094 0,0.0032 0,0.0063 0,0.0095 0,0.0032 0,0.0064 0,0.0096 0,0.0032 0,0.0064 0,0.0097 0,0.0032 0,0.0065 0,0.0098 0,0.0033 0,0.0065 0,0.0098 0,0.0033 0,0.0066 0,0.0099 0,0.0033 0,0.0066 0,0.01 0,0.0033 0,0.0067 0,0.01006 0,0.0034 0,0.0067 0,0.01013 0,0.0034 0,0.0068 0,0.01021 0,0.0034 0,0.0068 0,0.01027 0,0.0034 0,0.0069 0,0.01034 0,0.0035 0,0.0069 0,0.0104 0,0.0035 0,0.007 0,0.01047 0,0.0035 0,0.007 0,0.01053 0,0.0035 0,0.007 0,0.01058 0,0.0035 0,0.0071 0,0.01065 0,0.0036 0,0.0071 0,0.0107 0,0.0036 0,0.0072 0,0.01077 0,0.0036 0,0.0072 0,0.01081 0,0.0036 0,0.0072 0,0.01087 0,0.0036 0,0.0073 0,0.01093 0,0.0036 0,0.0073 0,0.01097 0,0.0037 0,0.0073 0,0.01102 0,0.0037 0,0.0074 0,0.01107 0,0.0037 0,0.0074 0,0.01112 0,0.0037 0,0.0074 0,0.01116 0,0.0037 0,0.0075 0,0.0112 0,0.0037 0,0.0075 0,0.01125 0,0.0038 0,0.0075 0,0.01128 0,0.0038 0,0.0075 0,0.01133 0,0.0038 0,0.0076 0,0.01136 0,0.0038 0,0.0076 0,0.0114 0,0.0038 0,0.0076 0,0.01144 0,0.0038 0,0.0076 0,0.01147 0,0.0038 0,0.0077 0,0.0115 0,0.0038 0,0.0077 0,0.01153 0,0.0038 0,0.0077 0,0.01155 0,0.0039 0,0.0077 0,0.01159 0,0.0039 0,0.0077 0,0.01161 0,0.0039 0,0.0078 0,0.01164 0,0.0039 0,0.0078 0,0.01166 0,0.0039 0,0.0078 0,0.01168 0,0.0039 0,0.0078 0,0.01169 0,0.0039 0,0.0078 0,0.01172 0,0.0039 0,0.0078 0,0.01174 0,0.0039 0,0.0078 0,0.01175 0,0.0039 0,0.0078 0,0.01177 0,0.0039 0,0.0079 0,0.01178 0,0.0039 0,0.0079 0,0.01179 0,0.0039 0,0.0079 0,0.0118 0,0.0039 0,0.0079 0,0.01181 0,0.0039 0,0.0079 0,0.01182 0,0.0039 0,0.0079 0,0.01182 0,0.0039 0,0.0079 0,0.01183 0,0.0039 0,0.0079 0,0.01183 0,0.0039 0,0.0079 0,0.01183 0,0.0039 0,0.0079 0,0.01183 0,0.0039 0,0.0079 0,0.01183 0,0.0039 0,0.0079 0,0.01183 0,0.0039 0,0.0079 0,0.01182 0,0.0039 0,0.0079 0,0.01182 0,0.0039 0,0.0079 0,0.01181 0,0.0039 0,0.0079 0,0.0118 0,0.0039 0,0.0079 0,0.01179 0,0.0039 0,0.0079 0,0.01178 0,0.0039 0,0.0079 0,0.01177 0,0.0039 0,0.0078 0,0.01175 0,0.0039 0,0.0078 0,0.01173 0,0.0039 0,0.0078 0,0.01172 0,0.0039 0,0.0078 0,0.0117 0,0.0039 0,0.0078 0,0.01168 0,0.0039 0,0.0078 0,0.01166 0,0.0039 0,0.0078 0,0.01164 0,0.0039 0,0.0077 0,0.01161 0,0.0039 0,0.0077 0,0.01158 0,0.0039 0,0.0077 0,0.01156 0,0.0038 0,0.0077 0,0.01153 0,0.0038 0,0.0077 0,0.0115 0,0.0038 0,0.0077 0,0.01147 0,0.0038 0,0.0076 0,0.01144 0,0.0038 0,0.0076 0,0.0114 0,0.0038 0,0.0076 0,0.01136 0,0.0038 0,0.0076 0,0.01132 0,0.0038 0,0.0075 0,0.01129 0,0.0038 0,0.0075 0,0.01125 0,0.0037 0,0.0075 0,0.0112 0,0.0037 0,0.0074 0,0.01116 0,0.0037 0,0.0074 0,0.01112 0,0.0037 0,0.0074 0,0.01107 0,0.0037 0,0.0074 0,0.01102 0,0.0037 0,0.0073 0,0.01097 0,0.0037 0,0.0073 0,0.01093 0,0.0036 0,0.0073 0,0.01087 0,0.0036 0,0.0072 0,0.01081 0,0.0036 0,0.0072 0,0.01076 0,0.0036 0,0.0071 0,0.0107 0,0.0036 0,0.0071 0,0.01064 0,0.0035 0,0.0071 0,0.01059 0,0.0035 0,0.007 0,0.01053 0,0.0035 0,0.007 0,0.01047 0,0.0035 0,0.0069 0,0.0104 0,0.0035 0,0.0069 0,0.01034 0,0.0034 0,0.0069 0,0.01027 0,0.0034 0,0.0068 0,0.01021 0,0.0034 0,0.0068 0,0.01013 0,0.0034 0,0.0067 0,0.01006 0,0.0033 0,0.0067 0,0.01 0,0.0033 0,0.0066 0,0.0099 0,0.0033 0,0.0066 0,0.0098 0,0.0033 0,0.0065 0,0.0098 0,0.0032 0,0.0065 0,0.0097 0,0.0032 0,0.0064 0,0.0096 0,0.0032 0,0.0064 0,0.0095 0,0.0032 0,0.0063 0,0.0094 0,0.0031 0,0.0063 0,0.0094 0,0.0031 0,0.0062 0,0.0093 0,0.0031 0,0.0061 0,0.0092 0,0.0031 0,0.0061 0,0.0091 0,0.003 0,0.006 0,0.009 0,0.003 0,0.006 0,0.0089 0,0.003 0,0.0059 0,0.0088 0,0.0029 0,0.0058 0,0.0087 0,0.0029 0,0.0058 0,0.0086 0,0.0029 0,0.0057 0,0.0085 0,0.0028 0,0.0056 0,0.0084 0,0.0028 0,0.0056 0,0.0083 0,0.0028 0,0.0055 0,0.0082 0,0.0027 0,0.0054 0,0.0081 0,0.0027 0,0.0054 0,0.008 0,0.0027 0,0.0053 0,0.0079 0,0.0026 0,0.0052 0,0.0078 0,0.0026 0,0.0052 0,0.0077 0,0.0025 0,0.0051 0,0.0076 0,0.0025 0,0.005 0,0.0075 0,0.0025 0,0.0049 0,0.0074 0,0.0024 0,0.0049 0,0.0073 0,0.0024 0,0.0048 0,0.0072 0,0.0024 0,0.0047 0,0.007 0,0.0023 0,0.0046 0,0.0069 0,0.0023 0,0.0046 0,0.0068 0,0.0022 0,0.0045 0,0.0067 0,0.0022 0,0.0044 0,0.0066 0,0.0022 0,0.0043 0,0.0064 0,0.0021 0,0.0042 0,0.0063 0,0.0021 0,0.0041 0,0.0062 0,0.002 0,0.0041 0,0.006 0,0.002 0,0.004 0,0.0059 0,0.002 0,0.0039 0,0.0058 0,0.0019 0,0.0038 0,0.0057 0,0.0019 0,0.0037 0,0.0055 0,0.0018 0,0.0036 0,0.0054 0,0.0018 0,0.0035 0,0.0052 0,0.0017 0,0.0034 0,0.0051 0,0.0017 0,0.0033 0,0.005 0,0.0016 0,0.0032 0,0.0048 0,0.0016 0,0.0031 0,0.0047 0,0.0015 0,0.003 0,0.0045 0,0.0015 0,0.003 0,0.0044 0,0.0014 0,0.0029 0,0.0042 0,0.0014 0,0.0028 0,0.0041 0,0.0013 0,0.0027 0,0.0039 0,0.0013 0,0.0026 0,0.0038 0,0.0012 0,0.0024 0,0.0036 0,0.0012 0,0.0023 0,0.0035 0,0.0011 0,0.0022 0,0.0033 0,0.0011 0,0.0021 0,0.0032 0,0.001 0,0.002 0,0.003 0,9.77e-4 0,0.0019 0,0.0029 0,9.23e-4 0,0.0018 0,0.0027 0,8.7e-4 0,0.0017 0,0.0025 0,8.16e-4 0,0.0016 0,0.0024 0,7.63e-4 0,0.0015 0,0.0022 0,7.02e-4 0,0.0014 0,0.002 0,6.48e-4 0,0.0013 0,0.0019 0,5.88e-4 0,0.0012 0,0.0017 0,5.42e-4 0,0.001 0,0.0015 0,4.8e-4 0,9.3e-4 0,0.0014 0,4.2e-4 0,8.09e-4 0,0.0012 0,3.67e-4 0,6.95e-4 0,0.001 0,2.97e-4 0,5.72e-4 0,8.16e-4 0,2.44e-4 0,4.58e-4 0,6.41e-4 0,1.83e-4 0,3.36e-4 0,4.58e-4 0,1.22e-4 0,2.13e-4 0,2.74e-4 0,6.1e-5 0,9.2e-5 -20.000001,9.2e-5 z m 20.000001,8.077324 c 0,11.413834 -2.869568,29.478378 7.241609,47.023262 C 36.344841,92.159027 58.659332,112 123,112 v 40 C 50.35751,152 11.39006,128.96658 -6.978981,97.092682 -23.903952,67.724525 -19.563877,34.837387 -19.563877,30.096634 Z" /></g><g
       transform="translate(212.04687,-14.260254)"
       id="g24"><path
         id="path26"
         style="fill:#000000;fill-opacity:1;fill-rule:nonzero;stroke:none"
         d="M 89.5,92.260254 C 89.5,80.54686 85.082542,72.961868 79.517448,68.281403 73.625237,63.325806 65.302223,60.699799 56.48941,61.469177 47.837051,62.224533 39.085773,66.236374 32.366127,74.164124 25.691423,82.038834 20,95.033974 20,115.29991 H -20 C -20,87.335678 -12.003923,64.64827 1.852623,48.300522 15.664225,32.005798 34.287949,23.255249 53.01059,21.620743 71.572777,20.000229 90.624763,25.356873 105.2638,37.6689 120.22996,50.256042 129.5,69.223648 129.5,92.260254 Z M 20,115.29991 c 0,23.50655 1.628714,39.81659 4.663391,51.26781 2.934588,11.07351 6.841108,16.34724 10.772957,19.46622 4.253052,3.37376 10.929867,6.13287 22.858486,7.78271 12.037937,1.66498 27.204205,1.9436 47.205166,1.9436 v 40 c -19.65641,0 -37.506325,-0.22137 -52.685398,-2.32078 C 37.526215,231.32492 22.7852,227.05527 10.577594,217.37149 -1.951213,207.43292 -9.54818,193.62033 -14.001913,176.81438 -18.355556,160.38611 -20,140.02354 -20,115.29991 Z" /></g><g
       transform="translate(412.04687,-7.5)"
       id="g28"><path
         id="path30"
         style="fill:#06adf4;fill-opacity:1;fill-rule:nonzero;stroke:none"
         d="m 71.5,54.5 c 0,-17.673111 -14.326889,-32 -32,-32 v -15 c 25.957382,0 47,21.042618 47,47 z m -32,-32 c -17.673113,0 -32,14.326889 -32,32 h -15 c 0,-25.957382 21.042617,-47 47,-47 z m -32,32 c 0,17.673111 14.326887,32 32,32 v 15 c -25.957383,0 -47,-21.042618 -47,-47 z m 32,32 c 17.673111,0 32,-14.326889 32,-32 h 15 c 0,25.957382 -21.042618,47 -47,47 z" /></g><g
       transform="translate(517.04687,-7.5)"
       id="g32"><path
         id="path34"
         style="fill:#06adf4;fill-opacity:1;fill-rule:nonzero;stroke:none"
         d="m 71.5,54.5 c 0,-17.673111 -14.326889,-32 -32,-32 v -15 c 25.957382,0 47,21.042618 47,47 z m -32,-32 c -17.673113,0 -32,14.326889 -32,32 h -15 c 0,-25.957382 21.042617,-47 47,-47 z m -32,32 c 0,17.673111 14.326887,32 32,32 v 15 c -25.957383,0 -47,-21.042618 -47,-47 z m 32,32 c 17.673111,0 32,-14.326889 32,-32 h 15 c 0,25.957382 -21.042618,47 -47,47 z" /></g><g
       transform="translate(464.04687,87.5)"
       id="g36"><path
         id="path38"
         style="fill:#06adf4;fill-opacity:1;fill-rule:nonzero;stroke:none"
         d="m 72.5,54.5 c 0,-17.58445 -14.461525,-32 -32.5,-32 v -15 c 26.144302,0 47.5,20.953957 47.5,47 z M 40,22.5 c -18.038477,0 -32.5,14.41555 -32.5,32 h -15 c 0,-26.046043 21.355697,-47 47.5,-47 z m -32.5,32 c 0,17.58445 14.461523,32 32.5,32 v 15 c -26.144303,0 -47.5,-20.953957 -47.5,-47 z m 32.5,32 c 18.038475,0 32.5,-14.41555 32.5,-32 h 15 c 0,26.046043 -21.355698,47 -47.5,47 z" /></g></g></svg>