<?xml version="1.0" encoding="UTF-8" standalone="no"?>
<svg
   xmlns:dc="http://purl.org/dc/elements/1.1/"
   xmlns:cc="http://creativecommons.org/ns#"
   xmlns:rdf="http://www.w3.org/1999/02/22-rdf-syntax-ns#"
   xmlns:svg="http://www.w3.org/2000/svg"
   xmlns="http://www.w3.org/2000/svg"
   viewBox="0 0 2494.0625 547.19995"
   height="547.19995"
   width="2494.0625"
   xml:space="preserve"
   id="svg2"
   version="1.1"><metadata
     id="metadata8"><rdf:RDF><cc:Work
         rdf:about=""><dc:format>image/svg+xml</dc:format><dc:type
           rdf:resource="http://purl.org/dc/dcmitype/StillImage" /></cc:Work></rdf:RDF></metadata><defs
     id="defs6" /><g
     transform="matrix(1.3333333,0,0,-1.3333333,0,547.19995)"
     id="g10"><g
       id="g12"><g
         transform="translate(114.16797,-3)"
         id="g14"><path
           id="path16"
           style="fill:#000000;fill-opacity:1;fill-rule:nonzero;stroke:none"
           d="m 32.550003,171.06 h 3 v 3 h -3 z m 0,-114.660006 v -3 h 3 v 3 z m -31.290004,0 h -3 v -3 h 3 z m 0,114.660006 v 3 h -3 v -3 z m 27.720002,41.58 -1.664102,-2.49616 0.0367,-0.0245 0.0374,-0.0234 1.589996,2.54401 z m 0,-23.94 -1.664098,2.49615 h -4e-6 z m -24.150001,0 -1.713191,-2.46271 0.024379,-0.017 0.024709,-0.0165 z m 0,23.94 1.638802,-2.51283 0.012693,0.008 0.012608,0.008 z m 155.12438,-49.56001 -2.01384,-2.22361 0.0116,-0.0105 0.0118,-0.0104 1.99047,2.24456 z m 11.13,-106.679996 v -3 h 3 v 3 z m -31.29001,0 h -3 v -3 h 3 z m -4.40999,85.469996 -2.4577,-1.72039 0.0138,-0.0197 0.0141,-0.0195 2.42982,1.75953 z m -33.6,-3.57 2.63587,-1.43253 0.006,0.0118 0.006,0.0119 -2.64862,1.40883 z M 96.534378,56.399994 v -3 h 3 v 3 z m -31.290001,0 h -3 v -3 h 3 z m 0,114.660006 v 3 h -3 v -3 z m 23.939995,0 2.884575,0.82415 -0.621674,2.17585 h -2.262901 z m 4.200005,-14.70002 -2.884575,-0.82415 0.621673,-2.17585 h 2.262902 z m 1.68,0 v -3 h 1.637855 l 0.885682,1.37774 z m 9.239993,9.45002 1.64175,-2.51091 0.0332,0.0217 0.0327,0.0226 -1.70763,2.46659 z m 12.18001,5.46 0.72761,-2.91043 0.0425,0.0106 0.0422,0.0119 -0.81224,2.88795 z m 145.15759,-90.930004 -0.6373,2.931534 v 0 z m 9.65997,2.519989 h 3 v 4.048905 l -3.87347,-1.178879 z m 0,-23.309997 1.15384,-2.769226 1.84616,0.769226 v 2 z m -12.59998,-3.569992 -0.5726,2.944839 -0.0481,-0.0093 -0.0478,-0.01093 0.66848,-2.924576 z m -34.65,1.679992 -1.16417,-2.764907 0.0127,-0.0054 0.0128,-0.0052 1.13868,2.775512 z m -12.81,11.550003 -2.62865,-1.445755 0.0217,-0.03943 0.0229,-0.03877 2.58409,1.523956 z m -4.62001,78.329999 h 3 v 3 h -3 z m -14.90999,0 h -3 v -3 h 3 z m 0,13.23 -1.56183,2.56138 -1.43817,-0.87693 v -1.68445 z m 17.21999,10.50001 1.56182,-2.56138 0.88509,0.53969 0.36307,0.97099 z m 9.03001,24.15 v 3 h -2.08112 l -0.72886,-1.9493 z m 19.95,0 h 3 v 3 h -3 z m 0,-24.36 h -3 v -3 h 3 z m 32.13,0 h 3 v 3 h -3 z m 0,-23.52001 v -3 h 3 v 3 z m -32.13,0 v 3 h -3 v -3 z m 3.78,-65.100003 -1.99309,-2.242233 0.0358,-0.03178 0.0368,-0.03064 1.92055,2.304657 z m 127.17468,84.630003 -1.41937,-2.64299 0.01,-0.005 0.0101,-0.005 1.39923,2.6537 z m 17.85,-17.64 -2.63369,-1.43655 v 0 z m 6.30002,-43.47 v -3 h 3 v 3 z m -73.92001,0 v 3 h -3.09674 l 0.0982,-3.09519 2.99851,0.0952 z m 7.76999,-20.789992 -2.15097,-2.091232 0.0147,-0.01515 0.0149,-0.01494 2.12131,2.121322 z m 40.95001,-5.460007 0.67953,-2.922027 0.0321,0.0075 0.0319,0.0082 -0.7435,2.906402 z m 18.69,6.929993 h 3 v 4.760231 l -4.29437,-2.053825 z m 0,-24.149994 1.34165,-2.683288 1.65835,0.829193 v 1.854095 z m -17.85,-6.089996 -0.58835,2.941742 -0.0384,-0.0077 -0.0382,-0.0087 0.66486,-2.9254 z m -52.92002,4.199997 -1.32452,-2.691773 0.0173,-0.0085 0.0174,-0.0083 1.28979,2.708588 z m -20.79001,19.529999 -2.59436,-1.506409 v 0 z m -0.83999,66.15001 -2.66641,1.37488 -0.004,-0.008 -0.004,-0.008 2.67475,-1.3586 z m 19.11001,20.16 -1.44921,2.62673 v 0 z m 13.44001,-21.42001 -2.08377,2.1582 -0.019,-0.0183 -0.0186,-0.0186 2.12131,-2.12134 z m -6.93,-18.27 -2.98928,0.25333 -0.2757,-3.25333 h 3.26498 z m 43.88999,0 v -3 h 3 v 3 z m -2.51999,12.38999 -2.76291,-1.16891 0.0188,-0.0444 0.0202,-0.0438 2.72388,1.25717 z m -7.14002,8.61002 1.6388,2.51283 v 0 z m 82.07227,-87.360016 -1.39725,-2.654755 0.0184,-0.0097 0.0185,-0.0094 1.36038,2.673828 z m -18.26999,19.320007 2.70047,1.306687 v 0 z m 0.84,67.619999 -2.64008,1.4248 v 0 z m 19.73999,19.52999 -1.32398,2.69207 -0.009,-0.004 -0.009,-0.004 1.34165,-2.68329 z m 49.77002,3.99001 -0.77738,-2.89752 0.009,-0.002 0.009,-0.002 0.76007,2.90211 z m 15.32998,-5.45999 2.80191,-1.07204 0.98435,2.57273 -2.47959,1.19979 z m -9.23999,-24.15001 -1.11416,-2.78543 2.82776,-1.1311 1.08831,2.84449 z m -13.86001,4.83 -0.86203,-2.87349 0.0128,-0.004 0.0128,-0.004 0.83643,2.88103 z m -26.25,-2.09999 1.70764,-2.46658 0.0315,0.0218 0.0309,0.0226 -1.77005,2.42218 z m -8.19001,-11.55002 -2.83038,0.99448 -0.008,-0.0228 -0.008,-0.0229 2.84603,-0.9487 z m 0.21003,-38.009992 -2.82166,-1.018936 0.0173,-0.04793 0.0189,-0.04731 2.78543,1.114173 z m 8.39999,-11.130004 -1.70764,-2.466584 0.0326,-0.0226 0.0332,-0.02173 1.64175,2.510911 z m 30.66,-1.049988 0.94867,-2.846054 0.0353,0.01176 0.035,0.01263 -1.01893,2.821656 z m 14.69999,7.349998 h 3 v 5.514435 l -4.62976,-2.995728 z m 0,-26.670006 1.62976,-2.518707 1.37024,0.886627 v 1.63208 z m -15.12,-6.509994 -0.6914,2.919235 -0.0458,-0.01085 -0.0455,-0.0123 0.78271,-2.896088 z m 72.17108,110.879986 -2.99017,0.24245 -0.003,-0.0402 -0.002,-0.0403 2.9956,-0.16193 z m -0.83996,-10.92 -2.9737,0.3965 -0.45288,-3.3965 h 3.42658 z m 1.67999,0 v -3 h 1.63788 l 0.88568,1.37774 z m 8.82001,9.45002 1.73407,-2.44808 0.0333,0.0236 0.0326,0.0245 -1.79998,2.4 z m 11.13,5.46 0.79779,-2.89198 0.0322,0.009 0.032,0.01 -0.86206,2.87349 z m 34.85999,-2.52 -1.29218,-2.70744 v 0 z m 14.28003,-13.65001 -2.63367,-1.43655 0.0125,-0.0229 0.0128,-0.0226 2.6084,1.48202 z m 5.24994,-98.699996 v -3 h 3 v 3 z m -31.28998,0 h -3 v -3 h 3 z m -4.62,85.469996 -2.4577,-1.72039 0.033,-0.047 0.0347,-0.0457 2.39007,1.81317 z m -28.77002,1.89 -1.88501,2.33382 -0.0225,-0.0181 -0.0221,-0.0186 1.92956,-2.29711 z m -7.56,-12.80999 -2.89263,0.79547 v 0 z m -2.30999,-74.550006 v -3 h 3 v 3 z m -31.28998,0 h -3 v -3 h 3 z m 0,159.600006 v 3 h -3 v -3 z m 31.28998,0 h 3 v 3 h -3 z m 423.74231,-52.92001 -2.01386,-2.22361 0.0117,-0.0105 0.0117,-0.0104 1.99048,2.24456 z M 992.42224,56.399994 v -3 h 3 v 3 z m -31.28998,0 h -3 v -3 h 3 z m -4.40997,85.469996 -2.4577,-1.72039 0.0138,-0.0197 0.0141,-0.0195 2.42981,1.75953 z m -33.60004,-3.57 2.63587,-1.43253 0.006,0.0118 0.006,0.0119 -2.64862,1.40883 z m -5.25,-81.899996 v -3 h 3 v 3 z m -31.28998,0 h -3 v -3 h 3 z m 0,114.660006 v 3 h -3 v -3 z m 23.94001,0 2.88458,0.82415 -0.6217,2.17585 h -2.26288 z m 4.20001,-14.70002 -2.88458,-0.82415 0.6217,-2.17585 h 2.26288 z m 1.67999,0 v -3 h 1.63788 l 0.88568,1.37774 z m 9.23999,9.45002 1.64173,-2.51091 0.0333,0.0217 0.0326,0.0226 -1.70764,2.46659 z m 12.18,5.46 0.7276,-2.91043 0.0425,0.0106 0.0422,0.0119 -0.81225,2.88795 z m 118.06763,-0.21 h 3 v 3 h -3 z m 0,-114.660006 v -3 h 3 v 3 z m -31.29,0 h -3 v -3 h 3 z m 0,114.660006 v 3 h -3 v -3 z m 27.7199,41.58 -1.664,-2.49616 0.037,-0.0245 0.038,-0.0234 1.5899,2.54401 z m 0,-23.94 -1.664,2.49615 v 0 z m -24.15,0 -1.7131,-2.46271 0.024,-0.017 0.025,-0.0165 1.6641,2.49614 z m 0,23.94 1.6388,-2.51283 0.013,0.008 0.013,0.008 -1.6641,2.49616 z m 116.4844,-43.68001 -1.3417,-2.68329 v 0 z m 14.28,-12.60001 -2.4576,-1.72038 0.8956,-1.27962 h 1.562 z m 0.84,0 v -3 h 2.5294 l 0.4275,2.49311 z m 2.52,14.70002 v 3 h -2.5294 l -0.4275,-2.49311 z m 26.4601,0 h 3 v 3 h -3 z m -6.51,-142.380007 -2.5896,1.514648 -0.011,-0.01836 -0.01,-0.01849 2.6108,-1.477798 z m -19.11,-16.800003 -1.2143,2.743286 -0.019,-0.0083 -0.019,-0.0085 1.2515,-2.726486 z m -54.39,-4.410004 -0.4244,-2.969864 0.01,-0.00116 0.4159,2.971024 z m -20.1601,5.25 h -3 v -2.063553 l 1.927,-0.738022 z m 0,24.990005 1.1422,2.774033 -4.1422,1.705627 v -4.47966 z m 14.2801,-4.830001 0.8242,2.884567 -0.028,0.0081 -0.028,0.0075 -0.7677,-2.900116 z m 14.9099,-2.940003 0.4017,2.972977 -0.035,0.0048 -0.035,0.0039 -0.3313,-2.981644 z m 33.6001,5.460007 -2.1908,2.049469 -0.018,-0.01915 -0.018,-0.01946 2.2264,-2.010864 z m 6.2999,29.190002 -2.9817,0.331299 -0.01,-0.08226 v -0.08263 l 2.9954,-0.166413 z m 0.63,6.720002 2.9924,-0.213746 0.2295,3.213746 h -3.2219 z m -0.84,0 v 3 h -1.6264 l -0.8876,-1.362977 z m -64.4699,-1.470002 -2.4346,-1.752914 0.013,-0.01843 0.014,-0.01822 2.4079,1.789566 z m -6.0901,75.809994 2.7884,-1.10653 v 0.007 0.008 l -2.7943,1.09155 z m 15.12,20.37 1.7238,-2.45526 0.01,0.007 -1.734,2.44808 z m 21.2101,-22.26 1.8488,-2.36251 0.01,0.005 0.01,0.005 -1.862,2.35212 z m -7.35,-11.55 -2.8537,0.92552 -0.01,-0.0244 -0.01,-0.0245 2.869,-0.87666 z m 3.1499,-44.940001 -2.5336,-1.606628 0.01,-0.01422 0.01,-0.01411 2.5154,1.634964 z m 27.51,-6.929993 0.9487,-2.846054 0.06,0.02003 0.059,0.02255 -1.068,2.803466 z m 7.14,5.25 -2.368,1.841828 -0.01,-0.0097 -0.01,-0.0098 2.3831,-1.822342 z m 4.41,9.659996 2.9104,-0.727607 v 0 z m -1.05,38.009998 2.8461,0.94869 v 0 z m -7.77,10.92 -1.6869,-2.48077 0.034,-0.0235 0.035,-0.0226 1.6172,2.52682 z m 236.2107,18.9 -2.1436,-2.09886 0.022,-0.0226 0.023,-0.0221 2.0989,2.14353 z m 10.0799,-106.679996 v -3 h 3 v 3 z m -31.2899,0 h -3 v -3 h 3 z m -4.2001,85.469996 -2.4961,-1.6641 0.013,-0.0197 0.013,-0.0195 2.4696,1.70321 z m -30.66,-2.52 -2.5779,1.53446 v 0 z m -5.25,-82.949996 v -3 h 3 v 3 z m -31.2899,0 h -3 v -3 h 3 z m -1.89,80.639996 -2.835,-0.98134 v 0 z m -5.6701,8.18999 -1.8418,-2.36804 0.042,-0.0327 0.043,-0.0312 1.7564,2.43204 z m -23.3099,-1.46999 1.9754,-2.25773 v 0 z m -7.14,-12.80999 2.9104,-0.72762 v 0 z m -2.1,-74.550006 v -3 h 3 v 3 z m -31.29,0 h -3 v -3 h 3 z m 0,114.660006 v 3 h -3 v -3 z m 23.9399,0 2.8845,0.82417 -0.6216,2.17583 h -2.2629 z m 4.2001,-14.70002 -2.8846,-0.82417 0.6216,-2.17583 h 2.263 z m 1.6799,0 v -3 h 1.6882 l 0.8761,1.44307 z m 8.8201,9.45002 1.6869,-2.48078 0.033,0.0226 0.033,0.0235 -1.7529,2.4346 z m 11.5499,5.46 0.7729,-2.89871 0.032,0.008 0.032,0.009 -0.8364,2.88104 z m 34.4401,-2.31001 -1.2898,-2.70859 0.026,-0.0126 0.027,-0.0121 1.2365,2.73332 z m 13.4399,-12.60001 -2.6434,-1.41844 0.8486,-1.58156 h 1.7948 z m 2.7301,0 v -3 h 1.7056 l 0.8723,1.46557 z m 14.49,12.81 -1.1669,2.76377 -0.011,-0.005 -0.011,-0.005 1.1893,-2.7542 z m 173.3385,-5.87999 -1.9127,-2.31118 0.022,-0.0179 0.022,-0.0174 1.8693,2.34648 z m 12.39,-106.889996 v -3 h 3 v 3 z m -21.84,0 -2.7932,-1.09462 0.7467,-1.90538 h 2.0465 z m -6.0899,15.539993 2.7932,1.09462 -0.7467,1.90538 h -2.0465 z m -0.8401,0 v 3 h -1.4497 l -0.9008,-1.135818 z m -10.08,-10.080002 -1.8153,2.388489 -0.024,-0.01794 -0.023,-0.0184 1.862,-2.352143 z m -11.76,-5.669998 -0.7276,2.910431 -0.055,-0.01367 -0.054,-0.01572 0.8364,-2.881043 z m -34.4399,1.89 -1.3417,-2.683289 0.042,-0.02095 0.043,-0.01964 1.2572,2.723877 z m -12.6001,11.970001 -2.6129,-1.473969 0.01,-0.01462 0.01,-0.01453 2.5963,1.503113 z m 8.19,47.460012 1.6735,-2.48986 0.014,0.009 0.014,0.01 -1.7013,2.47094 z m 38.43,9.65999 -0.095,2.9985 v -1.1e-4 l 0.098,-2.99839 z m 19.9501,0.63 0.095,-2.99851 2.9053,0.0918 v 2.90676 h -3 z m -4.83,18.27 -2.0181,-2.21982 0.025,-0.0223 0.025,-0.0217 1.9685,2.26381 z m -29.4,1.68001 0.8342,-2.88168 0.035,0.01 0.034,0.0109 -0.9034,2.86075 z m -15.9601,-5.88001 -2.6991,-1.30947 1.2694,-2.61664 2.6548,1.18765 z m -10.2899,21.21 -1.3898,2.65869 -2.5802,-1.34873 1.2709,-2.61943 z m 20.37,7.56001 -0.7022,2.9167 -0.013,-0.003 0.7148,-2.91362 z m 27.9299,-61.53001 0.083,-2.99884 0.01,2.8e-4 0.01,3.5e-4 -0.1034,2.99821 z m -21,-5.46 -1.9524,2.27778 v 0 z m -1.6799,-23.52 -1.8001,-2.399994 0.039,-0.02951 0.04,-0.0282 1.7204,2.457703 z m 27.9299,2.940002 1.9409,-2.287521 0.02,0.01685 0.02,0.01718 -1.9803,2.253494 z m 6.9301,26.459998 h 3 v 3.10523 l -3.1034,-0.10701 z M 29.550003,171.06 V 56.399994 h 6 V 171.06 Z m 3,-111.660006 H 1.259999 v -6 h 31.290004 z m -28.290004,-3 V 171.06 h -6 V 56.399994 Z m -3,111.660006 h 31.290004 v 6 H 1.259999 Z M 17.010002,213 c 4.115589,0 7.507055,-0.99027 10.305897,-2.85616 l 3.328205,4.9923 C 26.722944,217.75026 22.134411,219 17.010002,219 Z m 10.380003,-2.90401 C 29.496918,208.77917 31.02,206.05435 31.02,200.67 h 6 c 0,6.37564 -1.836914,11.63081 -6.450002,14.51399 z M 31.02,200.67 c 0,-5.19423 -1.498382,-8.00337 -3.704097,-9.47385 l 3.328197,-4.99231 c 4.514286,3.00952 6.3759,8.18038 6.3759,14.46616 z m -3.704101,-9.47385 C 24.517057,189.33025 21.125591,188.34 17.010002,188.34 v -6 c 5.124409,0 9.712942,1.24974 13.634102,3.86386 z M 17.010002,188.34 c -4.27576,0 -7.731509,0.99989 -10.515899,2.85615 L 3.165897,186.20386 C 7.101507,183.58011 11.765759,182.34 17.010002,182.34 Z m -10.46681,2.82272 C 4.457739,192.61346 3,195.42917 3,200.67 h -6 c 0,-6.23918 1.762261,-11.40348 6.116809,-14.43271 z M 3,200.67 c 0,5.43228 1.482536,8.16177 3.468802,9.45717 l -3.277604,5.02566 C -1.262536,212.24821 -3,206.99771 -3,200.67 Z m 3.494103,9.47384 C 9.278493,212.00011 12.734242,213 17.010002,213 v 6 c -5.244243,0 -9.908495,-1.24011 -13.844105,-3.86386 z M 130.34438,170.16 c 11.75524,0 20.84791,-3.192 27.59616,-9.30362 l 4.02768,4.44722 c -8.09177,7.32839 -18.73909,10.8564 -31.62384,10.8564 z m 27.61953,-9.32457 c 6.51999,-5.78187 10.12047,-15.41476 10.12047,-29.67544 h 6 c 0,15.13933 -3.81953,26.78645 -12.13954,34.16456 z m 10.12047,-29.67544 V 56.399994 h 6 v 74.759996 z m 3,-71.759996 h -31.29001 v -6 h 31.29001 z m -28.29001,-3 v 66.989996 h -6 V 56.399994 Z m 0,66.989996 c 0,8.51901 -1.49843,15.43142 -4.98016,20.23953 l -4.85965,-3.51906 c 2.39827,-3.31189 3.83981,-8.71947 3.83981,-16.72047 z m -4.95228,20.20039 c -3.64534,5.20762 -9.38999,7.5796 -16.52771,7.5796 v -6 c 5.74227,0 9.37765,-1.828 11.6123,-5.02038 z m -16.52771,7.5796 c -10.26793,0 -18.00759,-3.6196 -22.178623,-11.46115 l 5.297243,-2.81767 c 2.82896,5.31845 8.10931,8.27882 16.88138,8.27882 z M 99.148506,139.73254 c -3.847809,-7.07998 -5.614128,-16.97476 -5.614128,-29.36255 h 6 c 0,11.9722 1.733682,20.69742 4.885872,26.49747 z M 93.534378,110.36999 V 56.399994 h 6 v 53.969996 z m 3,-50.969996 H 65.244377 v -6 h 31.290001 z m -28.290001,-3 V 171.06 h -6 V 56.399994 Z m -3,111.660006 h 23.939995 v 6 H 65.244377 Z m 21.05542,2.17582 4.200005,-14.69999 5.769149,1.64833 -4.200004,14.69999 z m 7.08458,-16.87584 h 1.68 v 6 h -1.68 z m 4.203537,1.37774 c 2.308403,3.59086 5.096146,6.42848 8.358206,8.56137 l -3.28349,5.0218 c -4.017939,-2.6271 -7.3902,-6.08948 -10.12179,-10.33862 z m 8.424086,8.60569 c 3.33004,2.30541 7.05543,3.98002 11.19999,5.01616 l -1.45522,5.82085 c -4.81543,-1.20386 -9.21005,-3.16925 -13.16002,-5.90385 z m 11.28462,5.03864 c 4.20964,1.18396 8.55603,1.77795 13.04776,1.77795 v 6 c -5.02829,0 -9.92188,-0.66601 -14.67224,-2.00204 z M 251.56195,76.289993 c 3.70103,0 7.27539,0.37024 10.71732,1.11847 l -1.2746,5.863067 c -2.99808,-0.651764 -6.14377,-0.981537 -9.44272,-0.981537 z m 10.71732,1.11847 c 3.3012,0.717651 6.59994,1.578308 9.89614,2.581497 l -1.74694,5.740051 c -3.1438,-0.956818 -6.28501,-1.776138 -9.4238,-2.458481 z m 6.02267,5.451522 V 59.549988 h 6 v 23.309997 z m 1.84616,-20.540771 c -3.11389,-1.29744 -7.10373,-2.438675 -12.01874,-3.394379 l 1.14521,-5.889679 c 5.165,1.004303 9.5751,2.243058 13.18121,3.745606 z m -12.11462,-3.414642 c -4.6474,-1.062272 -9.80954,-1.604584 -15.50153,-1.604584 v -6 c 6.06801,0 11.6859,0.577698 16.8385,1.755432 z m -15.50153,-1.604584 c -6.53207,0 -12.2964,1.065796 -17.34132,3.135513 l -2.27735,-5.551025 c 5.87508,-2.410279 12.43074,-3.584488 19.61867,-3.584488 z m -17.31583,3.124908 c -4.66688,1.965012 -8.46377,5.347061 -11.39007,10.309052 l -5.16818,-3.047913 c 3.5137,-5.958023 8.2568,-10.275955 14.22992,-12.790954 z m -11.34552,10.23085 c -2.74021,4.982224 -4.24865,12.113282 -4.24865,21.654244 h -6 c 0,-10.059044 1.57158,-18.327965 4.99136,-24.545754 z m -4.24865,21.654244 v 55.23 h -6 v -55.23 z m -3,58.23 h -14.90999 v -6 h 14.90999 z m -11.90999,-3 v 13.23 h -6 v -13.23 z m -1.43817,10.66861 17.21998,10.50002 -3.12365,5.12277 -17.21999,-10.50002 z m 18.46814,12.0107 9.03001,24.15001 -5.61996,2.10139 -9.03002,-24.15001 z m 6.22003,22.2007 h 19.95 v 6 h -19.95 z m 16.95,3 v -24.36 h 6 v 24.36 z m 3,-27.36 h 32.13 v 6 h -32.13 z m 29.13,3 v -23.52001 h 6 V 171.06 Z m 3,-20.52001 h -32.13 v -6 h 32.13 z m -35.13,-3 v -55.23 h 6 v 55.23 z m 0,-55.23 c 0,-4.934563 1.4535,-9.149208 4.78691,-12.112236 l 3.98617,4.484466 c -1.70659,1.516968 -2.77308,3.882332 -2.77308,7.62777 z m 4.85945,-12.17466 c 3.17807,-2.648392 7.20089,-3.845337 11.79054,-3.845337 v 6 c -3.53035,0 -6.08751,0.903046 -7.94945,2.454651 z M 341.56665,170.16 c 10.26169,0 18.84961,-1.95709 25.88062,-5.733 l 2.83874,5.28598 c -8.08902,4.3441 -17.70105,6.44702 -28.71936,6.44702 z m 25.90076,-5.74371 c 7.17349,-3.78238 12.69601,-9.23701 16.61554,-16.42285 l 5.26739,2.87311 c -4.48047,8.21417 -10.85797,14.51953 -19.08447,18.85714 z m 16.61554,-16.42285 c 3.9021,-7.15384 5.93371,-16.07965 5.93371,-26.91345 h 6 c 0,11.56622 -2.16842,21.54039 -6.66632,29.78656 z m 5.93371,-26.91345 v -15.12 h 6 v 15.12 z m 3,-12.12 h -73.92001 v -6 h 73.92001 z m -76.91852,-3.09519 c 0.29746,-9.369095 3.0723,-17.082398 8.61753,-22.786034 l 4.30194,4.182464 c -4.25479,4.376359 -6.65991,10.523041 -6.92246,18.79395 z m 8.64719,-22.816124 c 5.72992,-5.72992 13.49588,-8.438691 22.91132,-8.438691 v 6 c -8.22455,0 -14.31861,2.331253 -18.6687,6.681336 z m 22.91132,-8.438691 c 7.60473,0 14.55761,0.717072 20.83953,2.177979 l -1.35907,5.844055 c -5.75808,-1.339096 -12.2452,-2.022034 -19.48046,-2.022034 z m 20.9035,2.193604 c 6.23526,1.595062 12.64972,3.977707 19.24087,7.129989 l -2.58874,5.412812 c -6.28885,-3.007706 -12.33438,-5.245056 -18.13913,-6.729996 z m 14.9465,9.836395 V 62.48999 h 6 v 24.149994 z m 1.65836,-21.466705 c -5.35529,-2.677658 -11.0513,-4.622452 -17.09671,-5.831543 l 1.1767,-5.883484 c 6.55459,1.310913 12.7586,3.426102 18.6033,6.34845 z m -17.17322,-5.847885 c -5.87506,-1.335251 -13.12802,-2.025406 -21.80514,-2.025406 v -6 c 8.96286,0 16.68994,0.709854 23.13485,2.174606 z m -21.80514,-2.025406 c -11.11133,0 -20.80777,2.031219 -29.16022,6.00859 l -2.57959,-5.417175 c 9.28753,-4.422638 19.89114,-6.591415 31.73981,-6.591415 z m -29.12549,5.991775 c -8.27732,4.072968 -14.77063,10.164887 -19.52017,18.344635 l -5.18873,-3.012817 c 5.33048,-9.180252 12.69718,-16.108322 22.05985,-20.715363 z m -19.52017,18.344635 c -4.70402,8.10138 -7.15436,18.462552 -7.15436,31.253592 h -6 c 0,-13.528952 2.58966,-25.007788 7.96563,-34.266409 z m -7.15436,31.253592 c 0,13.12883 2.19116,23.75562 6.39474,32.03141 l -5.34949,2.7172 c -4.7564,-9.36422 -7.04525,-20.99744 -7.04525,-34.74861 z m 6.38641,32.01513 c 4.37216,8.47937 10.33917,14.7406 17.89282,18.90814 l -2.89843,5.25347 c -8.68635,-4.79247 -15.45939,-11.97124 -20.32721,-21.41185 z m 17.89282,18.90814 c 7.60892,4.19802 16.54477,6.34674 26.90079,6.34674 v 6 c -11.20398,0 -21.16812,-2.33128 -29.79922,-7.09327 z m 27.11078,-9.91327 c -6.74029,0 -12.54468,-2.22335 -17.20376,-6.7218 l 4.16754,-4.3164 c 3.46093,3.34158 7.73651,5.0382 13.03622,5.0382 z m -17.2413,-6.75866 c -4.61704,-4.61704 -7.06677,-11.50995 -7.79797,-20.13801 l 5.97857,-0.50665 c 0.66879,7.89194 2.83905,13.17905 6.06201,16.40201 z m -4.80869,-23.39134 h 43.88999 V 129.75 h -43.88999 z m 46.88999,3 c 0,4.98817 -0.90845,9.55726 -2.79611,13.64717 l -5.44776,-2.51435 c 1.47235,-3.19006 2.24387,-6.88098 2.24387,-11.13282 z m -2.75708,13.55892 c -1.76569,4.17342 -4.52933,7.51818 -8.26413,9.95392 l -3.27759,-5.02566 c 2.7052,-1.76427 4.7016,-4.15953 6.0159,-7.2661 z m -8.26413,9.95392 c -3.82526,2.49474 -8.49555,3.63716 -13.81879,3.63716 v -6 c 4.47675,0 7.92645,-0.95755 10.5412,-2.66282 z M 465.00891,57.299988 c -10.98993,0 -20.15832,1.967712 -27.61963,5.763824 l -2.72076,-5.347656 c 8.49869,-4.323898 18.65033,-6.416168 30.34039,-6.416168 z m -27.58276,5.744751 c -7.37235,3.880188 -13.02542,9.826523 -16.96677,17.971939 l -5.40094,-2.613373 c 4.45868,-9.2146 10.98557,-16.148254 19.57321,-20.668076 z m -16.96677,17.971939 c -3.93933,8.141312 -6.00049,18.783028 -6.00049,32.083312 h -6 c 0,-13.85971 2.13889,-25.477996 6.59955,-34.696685 z m -6.00049,32.083312 c 0,13.68926 2.33142,24.56212 6.78009,32.80521 l -5.28015,2.84959 c -5.07135,-9.39691 -7.49994,-21.34405 -7.49994,-35.6548 z m 6.78009,32.80521 c 4.4877,8.31549 10.63141,14.36644 18.44156,18.27151 l -2.68329,5.36656 c -8.98987,-4.49493 -16.00613,-11.46397 -21.03842,-20.78848 z m 18.42389,18.26274 c 8.06619,3.96698 17.40082,5.99206 28.07605,5.99206 v 6 c -11.44476,0 -21.71017,-2.17494 -30.724,-6.60795 z m 28.07605,5.99206 c 7.65573,0 14.17197,-0.7532 19.59262,-2.20753 l 1.55475,5.79506 c -6.05933,1.62567 -13.12311,2.41247 -21.14737,2.41247 z m 19.60993,-2.21212 c 5.73794,-1.5028 10.65695,-3.26171 14.78338,-5.25837 l 2.61334,5.40097 c -4.55355,2.20334 -9.85452,4.08443 -15.87658,5.66163 z m 13.28814,-1.48584 -9.23999,-24.15001 5.60382,-2.14408 9.23999,24.15001 z m -5.32391,-22.43662 c -4.97632,1.99052 -9.68964,3.63422 -14.13776,4.9256 l -1.67285,-5.76206 c 4.23187,-1.22862 8.75858,-2.80493 13.58228,-4.7344 z m -14.11215,4.91806 c -4.46729,1.34018 -8.9574,2.01651 -13.46201,2.01651 v -6 c 3.89539,0 7.80521,-0.58366 11.73795,-1.76349 z m -13.46201,2.01651 c -5.95904,0 -11.1655,-1.45871 -15.42007,-4.56782 l 3.5401,-4.84435 c 3.02542,2.21088 6.919,3.41217 11.87997,3.41217 z m -15.35766,-4.52342 c -4.27381,-2.9588 -7.33411,-7.39061 -9.31275,-13.02211 l 5.66077,-1.98892 c 1.66134,4.72848 4.06106,7.99667 7.06726,10.07788 z m -9.3284,-13.06789 c -1.81662,-5.44983 -2.67395,-12.1679 -2.67395,-20.05868 h 6 c 0,7.50921 0.82263,13.53112 2.36602,18.16131 z M 440.37891,113.31 c 0,-7.77604 0.93274,-14.448023 2.90835,-19.918948 l 5.64331,2.037873 C 447.2662,100.038 446.37891,105.96603 446.37891,113.31 Z m 2.94458,-20.014185 c 2.13604,-5.340096 5.26699,-9.567238 9.47778,-12.482415 l 3.41528,4.933167 c -3.06921,2.124817 -5.53824,5.317688 -7.3222,9.777595 z m 9.54367,-12.526742 c 4.21487,-2.755859 9.22174,-4.059082 14.87176,-4.059082 v 6 c -4.70996,0 -8.5231,1.076767 -11.58825,3.080903 z m 14.87176,-4.059082 c 6.82865,0 12.96985,0.871018 18.37866,2.673951 l -1.89734,5.692108 c -4.67117,-1.557068 -10.14996,-2.366059 -16.48132,-2.366059 z m 18.44892,2.698349 c 5.26651,1.901795 10.37045,4.456238 15.31082,7.652939 l -3.25952,5.037422 c -4.57963,-2.963287 -9.27567,-5.30883 -14.08915,-7.04705 z M 496.8689,89.579994 V 62.909988 h 6 v 26.670006 z m 1.37024,-24.151298 c -4.48316,-2.900864 -9.20728,-4.931321 -14.18164,-6.109467 l 1.38281,-5.83847 c 5.66562,1.341858 11.02151,3.651382 16.05835,6.910522 z m -14.27295,-6.132614 c -4.83347,-1.306336 -11.12647,-1.996094 -18.95728,-1.996094 v -6 c 8.12918,0 14.99619,0.710266 20.52271,2.203918 z M 554.54999,183.45 c 0,-5.52526 -0.20722,-10.83413 -0.62018,-15.92757 l 5.98035,-0.48489 c 0.42706,5.26657 0.63983,10.7377 0.63983,16.41246 z m -0.62561,-16.00809 c -0.28009,-5.1814 -0.5553,-8.71504 -0.81806,-10.68543 l 5.94739,-0.79298 c 0.2973,2.22961 0.58197,5.97597 0.86188,11.15456 z m 2.15564,-14.08193 h 1.67999 v 6 h -1.67999 z m 4.20355,1.37774 c 2.33935,3.63906 5.02276,6.49371 8.03052,8.6242 l -3.46814,4.89615 c -3.71222,-2.62953 -6.90888,-6.07487 -9.6095,-10.2758 z M 568.38,163.41 c 3.05884,2.2941 6.42872,3.94757 10.12781,4.96802 l -1.59558,5.78397 c -4.4209,-1.21958 -8.47101,-3.20609 -12.1322,-5.952 z m 10.19208,4.98651 c 3.9057,1.17173 8.02423,1.76349 12.36792,1.76349 v 6 c -4.8963,0 -9.59772,-0.66822 -14.09204,-2.01652 z M 590.94,170.16 c 7.90534,0 14.65723,-1.40625 20.33783,-4.11744 l 2.58435,5.41488 C 607.22278,174.62625 599.55469,176.16 590.94,176.16 Z m 20.33783,-4.11744 c 5.57343,-2.66005 9.87177,-6.75675 12.93854,-12.37912 l 5.26733,2.87312 c -3.6532,6.6976 -8.87493,11.70091 -15.62152,14.92088 z m 12.96381,-12.42459 c 3.16351,-5.5678 4.85834,-12.98778 4.85834,-22.45798 h 6 c 0,10.1298 -1.80512,18.66981 -5.64155,25.42204 z m 4.85834,-22.45798 V 56.399994 h 6 v 74.759996 z m 3,-71.759996 H 600.81 v -6 h 31.28998 z m -28.28998,-3 v 66.989996 h -6 V 56.399994 Z m 0,66.989996 c 0,8.53988 -1.57556,15.47604 -5.22992,20.29316 l -4.78015,-3.62633 c 2.50561,-3.30285 4.01007,-8.6867 4.01007,-16.66683 z m -5.1623,20.20039 c -3.63238,5.18907 -9.2918,7.5796 -16.31768,7.5796 v -6 c 5.57415,0 9.15466,-1.80946 11.40228,-5.02038 z m -16.31768,7.5796 c -6.74866,0 -12.4621,-1.57644 -16.79505,-5.07617 l 3.77002,-4.66763 c 2.94702,2.38028 7.17365,3.7438 13.02503,3.7438 z m -16.8396,-5.11288 c -4.07776,-3.4253 -6.86536,-8.28375 -8.52307,-14.31163 l 5.78527,-1.59094 c 1.42231,5.17212 3.67469,8.85365 6.59693,11.30836 z m -8.52307,-14.31163 c -1.63324,-5.93911 -2.41736,-13.08464 -2.41736,-21.37548 h 6 c 0,7.94917 0.75586,14.52364 2.20263,19.78454 z m -2.41736,-21.37548 V 56.399994 h 6 v 53.969996 z m 3,-50.969996 h -31.28998 v -6 h 31.28998 z m -28.28998,-3 V 216 h -6 V 56.399994 Z m -3,156.600006 h 31.28998 v 6 h -31.28998 z m 28.28998,3 v -32.55 h 6 V 216 Z m 397.13226,-45.84 c 11.75525,0 20.84796,-3.192 27.59619,-9.30362 l 4.02771,4.44722 c -8.09179,7.32839 -18.73913,10.8564 -31.6239,10.8564 z m 27.61957,-9.32457 c 6.52002,-5.78187 10.12042,-15.41475 10.12042,-29.67544 h 6 c 0,15.13931 -3.81946,26.78644 -12.13946,34.16456 z m 10.12042,-29.67544 V 56.399994 h 6 v 74.759996 z m 3,-71.759996 h -31.28998 v -6 h 31.28998 z m -28.28998,-3 v 66.989996 h -6 V 56.399994 Z m 0,66.989996 c 0,8.51901 -1.49841,15.43142 -4.98016,20.23953 l -4.85962,-3.51906 c 2.39826,-3.31189 3.83978,-8.71947 3.83978,-16.72047 z m -4.95227,20.20039 c -3.64532,5.20762 -9.38995,7.5796 -16.52771,7.5796 v -6 c 5.74225,0 9.37763,-1.828 11.61231,-5.02038 z m -16.52771,7.5796 c -10.26794,0 -18.00763,-3.6196 -22.17865,-11.46115 l 5.29724,-2.81767 c 2.82898,5.31845 8.10932,8.27882 16.88141,8.27882 z m -22.16589,-11.43744 c -3.84784,-7.07998 -5.61414,-16.97476 -5.61414,-29.36255 h 6 c 0,11.9722 1.73371,20.69742 4.88587,26.49747 z m -5.61414,-29.36255 V 56.399994 h 6 v 53.969996 z m 3,-50.969996 h -31.28998 v -6 h 31.28998 z m -28.28998,-3 V 171.06 h -6 V 56.399994 Z m -3,111.660006 h 23.94001 v 6 h -23.94001 z m 21.05542,2.17582 4.20002,-14.69999 5.76916,1.64833 -4.20001,14.69999 z m 7.0846,-16.87584 h 1.67999 v 6 h -1.67999 z m 4.20355,1.37774 c 2.30841,3.59086 5.09613,6.42848 8.35816,8.56137 l -3.28345,5.0218 c -4.01795,-2.6271 -7.3902,-6.08948 -10.12183,-10.33862 z m 8.42407,8.60569 c 3.33002,2.30542 7.05542,3.98002 11.19996,5.01616 l -1.4552,5.82085 c -4.81543,-1.20386 -9.21003,-3.16925 -13.16004,-5.90385 z m 11.28461,5.03864 c 4.2096,1.18396 8.55603,1.77795 13.04773,1.77795 v 6 c -5.02826,0 -9.92187,-0.66601 -14.67224,-2.00204 z M 1052.8899,171.06 V 56.399994 h 6 V 171.06 Z m 3,-111.660006 h -31.29 v -6 h 31.29 z m -28.29,-3 V 171.06 h -6 V 56.399994 Z m -3,111.660006 h 31.29 v 6 h -31.29 z m 15.75,44.94 c 4.1156,0 7.507,-0.99025 10.3059,-2.85616 l 3.3281,4.9923 c -3.9212,2.61412 -8.5097,3.86386 -13.634,3.86386 z m 10.38,-2.90401 c 2.1069,-1.31682 3.63,-4.04165 3.63,-9.42599 h 6 c 0,6.37565 -1.837,11.63081 -6.4501,14.51399 z m 3.63,-9.42599 c 0,-5.1942 -1.4985,-8.00336 -3.7041,-9.47385 l 3.3281,-4.99231 c 4.5143,3.00952 6.376,8.18036 6.376,14.46616 z m -3.7041,-9.47385 c -2.7989,-1.8659 -6.1903,-2.85615 -10.3059,-2.85615 v -6 c 5.1243,0 9.7128,1.24974 13.634,3.86386 z M 1040.3499,188.34 c -4.2758,0 -7.7316,0.99989 -10.516,2.85615 l -3.3282,-4.99229 c 3.9356,-2.62375 8.5999,-3.86386 13.8442,-3.86386 z m -10.467,2.82272 c -2.0853,1.45073 -3.5431,4.26643 -3.5431,9.50728 h -6 c 0,-6.23915 1.7623,-11.40346 6.1169,-14.43271 z m -3.5431,9.50728 c 0,5.43231 1.4826,8.16179 3.4688,9.45717 l -3.2776,5.02566 c -4.4537,-2.90462 -6.1912,-8.15515 -6.1912,-14.48283 z m 3.4941,9.47384 c 2.7844,1.85627 6.2402,2.85616 10.516,2.85616 v 6 c -5.2443,0 -9.9086,-1.24011 -13.8442,-3.86386 z M 1125.7543,170.16 c 6.5898,0 12.4218,-1.31506 17.5582,-3.8833 l 2.6834,5.36658 c -6.0636,3.03178 -12.8315,4.51672 -20.2416,4.51672 z m 17.5582,-3.8833 c 5.1136,-2.55676 9.5033,-6.40747 13.1641,-11.6371 l 4.9152,3.44078 c -4.1792,5.97037 -9.3095,10.51967 -15.3959,13.5629 z m 15.6217,-12.91672 h 0.84 v 6 h -0.84 z m 3.7969,2.49311 2.52,14.70001 -5.9138,1.01379 -2.52,-14.70001 z m -0.4369,12.20691 h 26.4601 v 6 h -26.4601 z m 23.4601,3 V 56.189987 h 6 V 171.06 Z m 0,-114.870013 c 0,-10.529251 -2.0918,-19.143371 -6.0996,-25.995346 l 5.1792,-3.029297 c 4.6722,7.988022 6.9204,17.713898 6.9204,29.024643 z m -6.1208,-26.032196 c -3.852,-6.805176 -9.7036,-11.98912 -17.7135,-15.534515 l 2.4285,-5.486573 c 9.0701,4.014618 15.9585,10.030671 20.5065,18.065491 z m -17.7507,-15.551315 c -8.0377,-3.689408 -18.1509,-5.606491 -30.4586,-5.606491 v -6 c 12.8922,0 23.9192,2.002929 32.9615,6.153518 z m -30.4586,-5.606491 c -8.0009,0 -15.4203,0.48291 -22.264,1.441025 l -0.8318,-5.942048 c 7.1562,-1.001876 14.8567,-1.498977 23.0958,-1.498977 z m -22.2556,1.43985 c -6.6345,0.947784 -13.1371,2.640518 -19.5114,5.081726 l -2.146,-5.60315 c 6.7858,-2.598785 13.7233,-4.406051 20.8087,-5.418274 z m -17.5844,2.280151 v 24.990005 h -6 V 12.719986 Z m -4.1422,22.215973 c 4.8765,-2.00795 9.7615,-3.660843 14.6546,-4.956085 l 1.5354,5.800232 c -4.627,1.224762 -9.262,2.79187 -13.9056,4.703918 z m 14.598,-4.940537 c 5.0606,-1.445861 10.1954,-2.458465 15.4029,-3.037078 l 0.6626,5.963287 c -4.8725,0.541397 -9.6775,1.488785 -14.417,2.842926 z m 15.3324,-3.028412 c 5.3119,-0.717834 10.6263,-1.077026 15.9418,-1.077026 v 6 c -5.0444,0 -10.0902,0.340805 -15.1383,1.02298 z m 15.9418,-1.077026 c 8.6276,0 15.6033,2.314316 20.2864,7.499146 l -4.4527,4.021728 c -3.1568,-3.495163 -8.2213,-5.520874 -15.8337,-5.520874 z m 20.2509,7.460541 c 4.7762,5.105606 6.8991,12.48497 6.8991,21.579468 h -6 c 0,-8.265503 -1.937,-13.906144 -5.2807,-17.48053 z m 6.8991,21.579468 v 2.309997 h -6 v -2.309997 z m 0,2.309997 c 0,2.32132 0.068,4.715744 0.2054,7.183594 l -5.9908,0.332825 c -0.1429,-2.572144 -0.2146,-5.077729 -0.2146,-7.516419 z m 0.1917,7.018708 c 0.2831,2.548568 0.4972,4.828979 0.6407,6.837554 l -5.9848,0.427491 c -0.1365,-1.911423 -0.3424,-4.111008 -0.6193,-6.602448 z m -2.3517,10.0513 h -0.84 v -6 h 0.84 z m -3.354,-1.362977 c -3.6781,-5.648498 -7.9814,-9.578506 -12.87,-11.960052 l 2.6279,-5.393951 c 6.0315,2.938446 11.1082,7.688446 15.2702,14.079956 z m -12.87,-11.960052 c -5.0005,-2.436157 -10.702,-3.686981 -17.166,-3.686981 v -6 c 7.256,0 13.8744,1.409195 19.7939,4.29303 z m -17.166,-3.686981 c -12.689,0 -22.4118,4.776352 -29.5121,14.329574 l -4.8157,-3.579132 c 8.2997,-11.166778 19.8567,-16.750442 34.3278,-16.750442 z m -29.4854,14.292923 c -7.0628,9.809494 -10.7746,23.670662 -10.7746,41.927079 h -6 c 0,-18.98359 3.8482,-34.242402 11.9055,-45.432908 z m -10.7746,41.927079 c 0,12.33842 1.7158,22.65034 5.0384,31.02347 l -5.5769,2.21307 c -3.6773,-9.26688 -5.4615,-20.37496 -5.4615,-33.23654 z m 5.0443,31.03845 c 3.3281,8.51972 8.041,14.78751 14.0495,19.00632 l -3.4477,4.91047 c -7.1514,-5.02119 -12.5186,-12.33338 -16.1904,-21.73368 z m 14.0597,19.01347 c 6.16,4.36336 13.449,6.58809 21.9961,6.58809 v 6 c -9.653,0 -18.1842,-2.53528 -25.4641,-7.69194 z M 1135.6243,150.75 c -5.4742,0 -10.2875,-1.49916 -14.2521,-4.63788 l 3.7241,-4.70425 c 2.7554,2.18129 6.202,3.34213 10.528,3.34213 z m -14.2389,-4.62749 c -3.8235,-2.99228 -6.5504,-7.42376 -8.3548,-12.987 l 5.7073,-1.85103 c 1.5558,4.79677 3.7288,8.06528 6.3452,10.113 z m -8.3701,-13.03586 c -1.6569,-5.42217 -2.4411,-12.11328 -2.4411,-19.98666 h 6 c 0,7.52662 0.7559,13.57552 2.1791,18.23335 z m -2.4411,-19.98666 c 0,-11.70038 1.8374,-20.988563 5.9264,-27.436629 l 5.0671,3.213256 c -3.191,5.031937 -4.9935,12.963743 -4.9935,24.223373 z m 5.9446,-27.464965 c 4.2855,-6.593094 10.9915,-9.76503 19.5254,-9.76503 v 6 c -6.8661,0 -11.5003,2.428055 -14.4946,7.034958 z m 19.5254,-9.76503 c 4.2883,0 8.1246,0.515946 11.4487,1.623947 l -1.8974,5.692108 c -2.5559,-0.852005 -5.7196,-1.316055 -9.5513,-1.316055 z m 11.568,1.666535 c 3.4337,1.308074 6.279,3.385574 8.4551,6.231124 l -4.7662,3.644684 c -1.4639,-1.914444 -3.3786,-3.33696 -5.8249,-4.268875 z m 8.44,6.211639 c 2.2748,2.924774 3.8971,6.552986 4.9524,10.774216 l -5.8208,1.455215 c -0.9046,-3.618767 -2.2225,-6.43055 -3.8676,-8.545776 z m 4.9524,10.774216 c 1.0574,4.229515 1.5596,9.249055 1.5596,15.007605 h -6 c 0,-5.44145 -0.4778,-9.941901 -1.3804,-13.55239 z m 1.5596,15.007605 V 113.31 h -6 v -3.78001 z m 0,3.78001 c 0,8.42425 -0.8518,15.4321 -2.6739,20.89868 l -5.6922,-1.89737 c 1.5379,-4.61341 2.3661,-10.90556 2.3661,-19.00131 z m -2.6739,20.89868 c -1.8356,5.50674 -4.776,9.79544 -8.9989,12.49814 l -3.2344,-5.05365 c 2.7771,-1.7773 5.0167,-4.7686 6.5411,-9.34186 z m -8.9292,12.45209 c -4.1353,2.81196 -9.3266,4.08923 -15.3368,4.08923 v -6 c 5.1897,0 9.0982,-1.10275 11.963,-3.05078 z M 1356.0848,170.16 c 12.5304,0 21.4296,-3.22795 27.2565,-9.17887 l 4.2871,4.19773 c -7.333,7.48908 -18.0339,10.98114 -31.5436,10.98114 z m 27.3012,-9.22354 c 5.8899,-5.76712 9.1788,-15.44034 9.1788,-29.77647 h 6 c 0,15.06386 -3.4309,26.67067 -10.9811,34.06354 z m 9.1788,-29.77647 V 56.399994 h 6 v 74.759996 z m 3,-71.759996 h -31.2899 v -6 h 31.2899 z m -28.2899,-3 v 66.989996 h -6 V 56.399994 Z m 0,66.989996 c 0,8.49899 -1.4222,15.38632 -4.7305,20.18319 l -4.9392,-3.4064 c 2.2918,-3.32309 3.6697,-8.75577 3.6697,-16.77679 z m -4.704,20.1441 c -3.4549,5.18248 -8.8248,7.63589 -15.5161,7.63589 v -6 c 5.0687,0 8.3789,-1.74658 10.5239,-4.96409 z m -15.5161,7.63589 c -9.0609,0 -16.0575,-3.29605 -20.2179,-10.28553 l 5.1558,-3.06891 c 2.8396,4.77052 7.603,7.35444 15.0621,7.35444 z m -20.2179,-10.28553 c -3.8973,-6.54757 -5.6721,-15.64413 -5.6721,-26.94445 h 6 c 0,10.81967 1.7252,18.66309 4.8279,23.87554 z M 1321.1648,113.94 V 56.399994 h 6 V 113.94 Z m 3,-54.540006 h -31.2899 v -6 h 31.2899 z m -28.2899,-3 v 66.989996 h -6 V 56.399994 Z m 0,66.989996 c 0,5.6661 -0.6507,10.57403 -2.0551,14.63134 l -5.6699,-1.96268 c 1.1156,-3.22268 1.725,-7.41476 1.725,-12.66866 z m -2.0551,14.63134 c -1.4131,4.08214 -3.6198,7.38111 -6.7485,9.64069 l -3.5129,-4.86408 c 1.9113,-1.3804 3.4846,-3.54141 4.5915,-6.73929 z m -6.6632,9.57672 c -3.1577,2.45597 -7.0704,3.57193 -11.5017,3.57193 v -6 c 3.4088,0 5.9358,-0.84402 7.8181,-2.30804 z m -11.5017,3.57193 c -6.2537,0 -11.5773,-1.61 -15.6255,-5.15225 l 3.9509,-4.51547 c 2.6718,2.33774 6.4483,3.66772 11.6746,3.66772 z m -15.6255,-5.15225 c -3.9385,-3.44609 -6.5698,-8.31961 -8.0749,-14.34012 l 5.8208,-1.45523 c 1.2949,5.17951 3.4234,8.84598 6.205,11.27988 z m -8.0749,-14.34012 c -1.4782,-5.91242 -2.1896,-13.03325 -2.1896,-21.30762 h 6 c 0,7.96563 0.6885,14.56482 2.0104,19.85239 z m -2.1896,-21.30762 V 56.399994 h 6 v 53.969996 z m 3,-50.969996 h -31.29 v -6 h 31.29 z m -28.29,-3 V 171.06 h -6 V 56.399994 Z m -3,111.660006 h 23.9399 v 6 h -23.9399 z m 21.0554,2.17581 4.2,-14.7 5.7691,1.64836 -4.2001,14.7 z m 7.0846,-16.87583 h 1.6799 v 6 h -1.6799 z m 4.2442,1.44307 c 2.1759,3.58385 4.8268,6.40737 7.9427,8.52617 l -3.3738,4.96155 c -3.8842,-2.6412 -7.1134,-6.11767 -9.6975,-10.37384 z m 8.0087,8.57235 c 3.2019,2.30536 6.7192,3.96904 10.5699,4.99589 l -1.5459,5.79741 c -4.5493,-1.21315 -8.7318,-3.18947 -12.5299,-5.9241 z m 10.6334,5.01356 c 4.0795,1.18437 8.1382,1.77104 12.1836,1.77104 v 6 c -4.6345,0 -9.2558,-0.67332 -13.8564,-2.00897 z m 12.1836,1.77104 c 8.0784,0 14.7523,-1.34765 20.1303,-3.9086 l 2.5796,5.41718 c -6.3821,3.03906 -13.9882,4.49142 -22.7099,4.49142 z m 20.1836,-3.93333 c 5.2731,-2.38548 9.2615,-6.12023 12.033,-11.28513 l 5.2868,2.8369 c -3.3885,6.3151 -8.3601,10.98036 -14.8469,13.91487 z m 14.6764,-12.86669 h 2.7301 v 6 h -2.7301 z m 5.308,1.46557 c 3.1839,5.34895 7.5333,9.18585 13.1014,11.59025 l -2.3786,5.50838 c -6.7519,-2.91559 -12.0625,-7.6187 -15.8786,-14.02974 z m 13.079,11.5807 c 5.9455,2.51033 11.9897,3.75375 18.153,3.75375 v 6 c -6.9965,0 -13.8324,-1.41659 -20.4868,-4.22625 z m 136.8917,3.96374 c 15.0146,0 25.985,-3.28179 33.3672,-9.39118 l 3.8254,4.62236 c -8.8578,7.33062 -21.4073,10.76882 -37.1926,10.76882 z m 33.4106,-9.42648 c 7.3423,-5.84891 11.2593,-15.0011 11.2593,-28.10351 h 6 c 0,14.33758 -4.343,25.48538 -13.5207,32.79647 z M 1519.4934,132.84 V 56.399994 h 6 V 132.84 Z m 3,-73.440006 h -21.84 v -6 h 21.84 z m -19.0467,-1.90538 -6.09,15.539993 -5.5864,-2.18924 6.0899,-15.539993 z m -8.8832,17.445373 h -0.8401 v -6 h 0.8401 z m -3.1906,-1.135818 c -3.0912,-3.897507 -6.2761,-7.071579 -9.5448,-9.555695 l 3.6306,-4.776977 c 3.7314,2.835876 7.2663,6.38182 10.6152,10.604309 z m -9.5915,-9.592041 c -3.0005,-2.375367 -6.5265,-4.08696 -10.6256,-5.11171 l 1.4553,-5.820862 c 4.8609,1.215256 9.1749,3.283646 12.8944,6.228287 z M 1471.047,59.07103 c -3.98,-1.155487 -9.0671,-1.771042 -15.3336,-1.771042 v -6 c 6.6135,0 12.3064,0.644439 17.0064,2.008957 z m -15.3336,-1.771042 c -6.3372,0 -11.991,1.186127 -17.0127,3.503876 l -2.5144,-5.447754 c 5.8982,-2.722245 12.4243,-4.056122 19.5271,-4.056122 z m -16.9282,3.463287 c -4.7773,2.388565 -8.549,5.959427 -11.3455,10.789826 l -5.1926,-3.006226 c 3.3635,-5.809601 7.9919,-10.218735 13.8547,-13.150177 z m -11.3289,10.760681 c -2.7582,4.889496 -4.2329,11.203553 -4.2329,19.106034 h -6 c 0,-8.617508 1.6052,-16.023468 5.0071,-22.053971 z m -4.2329,19.106034 c 0,11.39239 3.9341,19.31589 11.4835,24.39015 l -3.3469,4.97971 c -9.5305,-6.40574 -14.1366,-16.40225 -14.1366,-29.36986 z m 11.5113,24.40907 c 7.8516,5.40595 19.9862,8.58039 36.8269,9.13254 l -0.1965,5.99678 c -17.3193,-0.56786 -30.8044,-3.8334 -40.0329,-10.18745 z m 36.8234,9.13243 19.9501,0.62999 -0.1895,5.99701 -19.95,-0.63 z m 22.8554,3.6285 V 132.84 h -6 v -5.04001 z m 0,5.04001 c 0,6.5191 -1.7513,11.91977 -5.8615,15.4938 l -3.937,-4.52762 c 2.3298,-2.02597 3.7985,-5.44531 3.7985,-10.96618 z m -5.8119,15.44981 c -3.7994,3.4539 -8.9535,4.98018 -15.0381,4.98018 v -6 c 5.1153,0 8.6413,-1.27373 11.0019,-3.41982 z m -15.0381,4.98018 c -5.9053,0 -11.6701,-0.8866 -17.2835,-2.65924 l 1.8069,-5.7215 c 5.0266,1.58736 10.1819,2.38074 15.4766,2.38074 z m -17.2143,-2.63831 c -5.4602,-1.58056 -10.9106,-3.58943 -16.3509,-6.02324 l 2.4502,-5.47691 c 5.1997,2.3262 10.3894,4.23737 15.5692,5.73679 z m -12.4267,-7.45224 -10.2899,21.21002 -5.3982,-2.61894 10.2899,-21.21 z m -11.5993,17.24189 c 5.9262,3.09771 12.4865,5.53692 19.695,7.30503 l -1.4295,5.82726 c -7.6314,-1.87189 -14.6511,-4.47269 -21.045,-7.81494 z m 19.6824,7.302 c 7.3201,1.76223 14.924,2.64666 22.8179,2.64666 v 6 c -8.3461,0 -16.4223,-0.93557 -24.2222,-2.81332 z m 27.1445,-55.6145 c -10.208,-0.28355 -18.1199,-2.11042 -22.8691,-6.18106 l 3.9048,-4.55555 c 3.0909,2.64936 9.1788,4.46248 19.1309,4.73893 z m -22.8691,-6.18106 c -4.6273,-3.96628 -6.9276,-9.229413 -6.9276,-15.507779 h 6 c 0,4.641639 1.6197,8.198509 4.8324,10.952229 z m -6.9276,-15.507779 c 0,-5.338311 1.5933,-9.834939 5.4,-12.689995 l 3.6001,4.799988 c -1.7933,1.34494 -3.0001,3.708313 -3.0001,7.890007 z m 5.4797,-12.747704 c 3.44,-2.40799 7.7343,-3.4823 12.6403,-3.4823 v 6 c -4.0541,0 -7.0396,0.885697 -9.1996,2.397705 z m 12.6403,-3.4823 c 7.348,0 13.7287,2.161514 18.9509,6.592484 l -3.8818,4.575042 c -4.0178,-3.409027 -8.9771,-5.167526 -15.0691,-5.167526 z m 18.9903,6.626511 c 5.3884,4.735138 7.9498,11.294594 7.9498,19.263492 h -6 c 0,-6.591114 -2.0588,-11.371646 -5.9104,-14.756504 z m 7.9498,19.263492 v 9.45 h -6 v -9.45 z m -3.1034,12.44822 -12.1801,-0.42 0.2068,-5.99643 12.18,0.42 z" /></g><g
         transform="translate(114.16797,-3)"
         id="g18"><path
           id="path20"
           style="fill:#000000;fill-opacity:1;fill-rule:nonzero;stroke:none"
           d="M 32.550003,171.06 V 56.399994 H 1.259999 V 171.06 Z M 17.010002,216 c 4.619999,0 8.609999,-1.12 11.969999,-3.36 3.360003,-2.10001 5.039999,-6.09 5.039999,-11.97 0,-5.74001 -1.679996,-9.73 -5.039999,-11.97 -3.36,-2.24001 -7.35,-3.36 -11.969999,-3.36 C 12.250001,185.34 8.19,186.45999 4.83,188.7 1.61,190.94 0,194.92999 0,200.67 c 0,5.88 1.61,9.86999 4.83,11.97 3.36,2.24 7.420001,3.36 12.180002,3.36 z" /></g><g
         transform="translate(114.16797,-3)"
         id="g22"><path
           id="path24"
           style="fill:#000000;fill-opacity:1;fill-rule:nonzero;stroke:none"
           d="m 130.34438,173.16 c 12.31999,0 22.19,-3.36 29.61,-10.08001 7.41999,-6.57999 11.13,-17.22001 11.13,-31.92 V 56.399994 h -31.29001 v 66.989996 c 0,8.26 -1.46998,14.42001 -4.40999,18.48 -2.94,4.19999 -7.63,6.29999 -14.07,6.29999 -9.52001,0 -16.03,-3.28998 -19.53,-9.86999 -3.500002,-6.44001 -5.250002,-15.75 -5.250002,-27.93 V 56.399994 H 65.244377 V 171.06 h 23.939995 l 4.200005,-14.70002 h 1.68 c 2.519996,3.92002 5.599993,7.07001 9.239993,9.45002 3.64001,2.51999 7.70001,4.33999 12.18001,5.46 4.48,1.26 9.09999,1.89 13.86,1.89 z" /></g><g
         transform="translate(114.16797,-3)"
         id="g26"><path
           id="path28"
           style="fill:#000000;fill-opacity:1;fill-rule:nonzero;stroke:none"
           d="m 251.56195,79.289993 c 3.5,0 6.86002,0.350006 10.08002,1.050003 3.22,0.699997 6.43997,1.539994 9.65997,2.519989 V 59.549988 c -3.35998,-1.399994 -7.55997,-2.589997 -12.59998,-3.569992 -4.89999,-1.119995 -10.29,-1.680008 -16.17001,-1.680008 -6.86,0 -13.01999,1.119995 -18.47999,3.36 -5.32,2.240006 -9.59,6.089997 -12.81,11.550003 -3.08,5.600007 -4.62001,13.300004 -4.62001,23.099999 v 55.23 h -14.90999 v 13.23 l 17.21999,10.50001 9.03001,24.15 h 19.95 v -24.36 h 32.13 v -23.52001 h -32.13 v -55.23 c 0,-4.340004 1.25999,-7.629997 3.78,-9.870003 2.52,-2.100006 5.80999,-3.149994 9.86999,-3.149994 z" /></g><g
         transform="translate(114.16797,-3)"
         id="g30"><path
           id="path32"
           style="fill:#000000;fill-opacity:1;fill-rule:nonzero;stroke:none"
           d="m 341.56665,173.16 c 10.64001,0 19.73999,-2.03 27.29999,-6.09001 7.70001,-4.06 13.65002,-9.94 17.85,-17.64 4.20002,-7.70001 6.30002,-17.14999 6.30002,-28.35 v -15.12 h -73.92001 c 0.28,-8.819998 2.86999,-15.749991 7.76999,-20.789992 5.04001,-5.039993 11.97,-7.560013 20.79001,-7.560013 7.42001,0 14.14001,0.700013 20.16,2.100006 6.01999,1.539994 12.25,3.849991 18.69,6.929993 V 62.48999 c -5.6,-2.800003 -11.55002,-4.830002 -17.85,-6.089996 -6.16001,-1.399994 -13.65,-2.100006 -22.47,-2.100006 -11.48002,0 -21.63001,2.100006 -30.45002,6.300003 -8.82,4.339996 -15.75,10.849991 -20.79001,19.529999 -5.04,8.68 -7.55999,19.599998 -7.55999,32.76 0,13.44 2.23999,24.57 6.72,33.39001 4.61999,8.95999 10.99002,15.67999 19.11001,20.16 8.12,4.48 17.57001,6.72 28.35001,6.72 z m 0.20999,-22.26001 c -6.01999,0 -11.06,-1.95999 -15.11999,-5.88 -3.92002,-3.91998 -6.22998,-10.01 -6.93,-18.27 h 43.88999 c 0,4.62 -0.84,8.75001 -2.51999,12.38999 -1.54001,3.64002 -3.92001,6.51001 -7.14002,8.61002 -3.22,2.10001 -7.27999,3.14999 -12.17999,3.14999 z" /></g><g
         transform="translate(114.16797,-3)"
         id="g34"><path
           id="path36"
           style="fill:#000000;fill-opacity:1;fill-rule:nonzero;stroke:none"
           d="m 465.00891,54.299988 c -11.34,0 -21,2.029999 -28.98001,6.089996 -7.98001,4.199997 -14.06998,10.64 -18.26999,19.320007 -4.20001,8.680001 -6.30002,19.809998 -6.30002,33.389999 0,14 2.38001,25.41 7.14002,34.23 4.76001,8.82 11.33999,15.33 19.73999,19.52999 8.54001,4.20002 18.34002,6.30002 29.40002,6.30002 7.84,0 14.63001,-0.77 20.37,-2.31001 5.88,-1.53999 10.98999,-3.36 15.32998,-5.45999 l -9.23999,-24.15001 c -4.89999,1.95999 -9.52002,3.57001 -13.86001,4.83 -4.20001,1.26 -8.39997,1.89 -12.59998,1.89 -5.45999,0 -10.01001,-1.33 -13.65002,-3.98999 -3.63999,-2.52002 -6.37,-6.37001 -8.19001,-11.55002 -1.67999,-5.03999 -2.51998,-11.40998 -2.51998,-19.10998 0,-7.56001 0.91,-13.860011 2.73001,-18.900012 1.95999,-4.900001 4.76001,-8.61 8.39999,-11.130004 3.64002,-2.380005 8.05002,-3.569993 13.23001,-3.569993 6.57999,0 12.38999,0.840012 17.42999,2.520005 5.04001,1.820007 9.93998,4.270004 14.69999,7.349998 V 62.909988 c -4.76001,-3.080001 -9.79999,-5.25 -15.12,-6.509994 C 479.56891,55 472.98892,54.299988 465.00891,54.299988 Z" /></g><g
         transform="translate(114.16797,-3)"
         id="g38"><path
           id="path40"
           style="fill:#000000;fill-opacity:1;fill-rule:nonzero;stroke:none"
           d="m 557.54999,183.45 c 0,-5.60001 -0.21002,-10.99001 -0.63001,-16.17002 -0.27997,-5.17999 -0.55993,-8.81999 -0.83996,-10.92 h 1.67999 c 2.52002,3.92002 5.46002,7.07001 8.82001,9.45002 3.35998,2.51999 7.07,4.33999 11.13,5.46 4.20001,1.26 8.60999,1.89 13.22998,1.89 8.26001,0 15.47003,-1.47 21.63001,-4.41 6.16003,-2.94 10.92004,-7.49001 14.28003,-13.65001 3.5,-6.15999 5.24994,-14.14 5.24994,-23.94 V 56.399994 H 600.81 v 66.989996 c 0,8.26 -1.53998,14.42001 -4.62,18.48 -2.94,4.19999 -7.56,6.29999 -13.85998,6.29999 -6.29999,0 -11.27002,-1.46998 -14.91004,-4.40999 -3.5,-2.94 -6.02002,-7.21 -7.56,-12.80999 -1.53997,-5.6 -2.30999,-12.46001 -2.30999,-20.58001 V 56.399994 H 526.26001 V 216 h 31.28998 z" /></g><g
         transform="translate(114.16797,-3)"
         id="g42"><path
           id="path44"
           style="fill:#000000;fill-opacity:1;fill-rule:nonzero;stroke:none"
           d="m 951.68225,173.16 c 12.32001,0 22.19006,-3.36 29.61005,-10.08001 7.41998,-6.57999 11.12994,-17.22001 11.12994,-31.92 V 56.399994 h -31.28998 v 66.989996 c 0,8.26 -1.46997,14.42001 -4.40997,18.48 -2.94,4.19999 -7.63001,6.29999 -14.07001,6.29999 -9.52002,0 -16.03003,-3.28998 -19.53003,-9.86999 -3.5,-6.44001 -5.25,-15.75 -5.25,-27.93 V 56.399994 H 886.58227 V 171.06 h 23.94001 l 4.20001,-14.70002 h 1.67999 c 2.52002,3.92002 5.59998,7.07001 9.23999,9.45002 3.64002,2.51999 7.70001,4.33999 12.18,5.46 4.47998,1.26 9.09997,1.89 13.85998,1.89 z" /></g><g
         transform="translate(114.16797,-3)"
         id="g46"><path
           id="path48"
           style="fill:#000000;fill-opacity:1;fill-rule:nonzero;stroke:none"
           d="M 1055.8899,171.06 V 56.399994 h -31.29 V 171.06 Z m -15.54,44.94 c 4.6199,0 8.6099,-1.12 11.9699,-3.36 3.36,-2.10001 5.0401,-6.09 5.0401,-11.97 0,-5.74001 -1.6801,-9.73 -5.0401,-11.97 -3.36,-2.24001 -7.35,-3.36 -11.9699,-3.36 -4.7601,0 -8.8201,1.11999 -12.1801,3.36 -3.22,2.24 -4.83,6.22999 -4.83,11.97 0,5.88 1.61,9.86999 4.83,11.97 3.36,2.24 7.42,3.36 12.1801,3.36 z" /></g><g
         transform="translate(114.16797,-3)"
         id="g50"><path
           id="path52"
           style="fill:#000000;fill-opacity:1;fill-rule:nonzero;stroke:none"
           d="m 1125.7543,173.16 c 7,0 13.2999,-1.40001 18.8999,-4.20001 5.6,-2.79999 10.36,-7 14.28,-12.60001 h 0.84 l 2.52,14.70002 h 26.4601 V 56.189987 c 0,-10.919998 -2.1701,-20.089996 -6.51,-27.509994 -4.2,-7.419998 -10.57,-13.020005 -19.11,-16.800003 -8.5401,-3.919999 -19.1101,-5.880005 -31.7101,-5.880005 -8.12,0 -15.6799,0.490005 -22.6799,1.470001 -6.86,0.979996 -13.5801,2.729996 -20.1601,5.25 v 24.990005 c 4.76,-1.960006 9.52,-3.570007 14.2801,-4.830001 4.9,-1.399994 9.8698,-2.380005 14.9099,-2.940003 5.18,-0.699997 10.36,-1.050003 15.54,-1.050003 8.12,0 14.14,2.170014 18.0601,6.51001 4.06,4.339996 6.0899,10.850006 6.0899,19.529999 v 2.309997 c 0,2.380005 0.07,4.830002 0.21,7.350006 0.28,2.520005 0.49,4.759995 0.63,6.720002 h -0.84 c -3.92,-6.020005 -8.6101,-10.360001 -14.07,-13.020005 -5.46,-2.660003 -11.62,-3.990005 -18.48,-3.990005 -13.58,0 -24.22,5.180008 -31.9199,15.540008 -7.5601,10.5 -11.3401,25.05999 -11.3401,43.679994 0,12.6 1.75,23.31 5.25,32.13 3.5,8.95999 8.54,15.75 15.12,20.37 6.7199,4.76001 14.6301,7.14001 23.7301,7.14001 z m 9.87,-25.41 c -4.9001,0 -9.0301,-1.33 -12.39,-3.99001 -3.22,-2.52 -5.67,-6.36999 -7.35,-11.55 -1.5401,-5.03999 -2.3101,-11.40999 -2.3101,-19.11 0,-11.48 1.82,-20.090003 5.46,-25.830001 3.64,-5.600006 9.31,-8.399994 17.01,-8.399994 4.06,0 7.56,0.490006 10.5,1.470001 2.9401,1.119995 5.3201,2.869995 7.14,5.25 1.96,2.519997 3.4301,5.739998 4.41,9.659996 0.98,3.919999 1.47,8.679998 1.47,14.279998 V 113.31 c 0,8.25999 -0.84,14.91 -2.52,19.94999 -1.6801,5.04 -4.27,8.68001 -7.77,10.92 -3.5,2.38001 -8.05,3.57001 -13.6499,3.57001 z" /></g><g
         transform="translate(114.16797,-3)"
         id="g54"><path
           id="path56"
           style="fill:#000000;fill-opacity:1;fill-rule:nonzero;stroke:none"
           d="m 1356.0848,173.16 c 13.0201,0 22.8201,-3.36 29.4001,-10.08001 6.7199,-6.57999 10.0799,-17.22001 10.0799,-31.92 V 56.399994 h -31.2899 v 66.989996 c 0,8.26 -1.4,14.42001 -4.2001,18.48 -2.8,4.19999 -7.14,6.29999 -13.02,6.29999 -8.26,0 -14.14,-2.94 -17.64,-8.81999 -3.5,-5.87999 -5.25,-14.35 -5.25,-25.40999 V 56.399994 h -31.2899 v 66.989996 c 0,5.46 -0.63,10.01 -1.89,13.65 -1.26,3.64 -3.1501,6.37 -5.6701,8.18999 -2.52,1.96001 -5.7398,2.94 -9.6599,2.94 -5.74,0 -10.29,-1.46998 -13.65,-4.40999 -3.36,-2.94 -5.74,-7.21 -7.14,-12.80999 -1.4001,-5.6 -2.1,-12.46001 -2.1,-20.58001 V 56.399994 h -31.29 V 171.06 h 23.9399 l 4.2001,-14.70002 h 1.6799 c 2.38,3.92002 5.3201,7.07001 8.8201,9.45002 3.5,2.51999 7.3499,4.33999 11.5499,5.46 4.34,1.26 8.68,1.89 13.02,1.89 8.4,0 15.5401,-1.40001 21.4201,-4.20001 5.88,-2.66 10.3599,-6.86 13.4399,-12.60001 h 2.7301 c 3.5,5.88001 8.33,10.15001 14.49,12.81 6.3,2.66002 12.74,3.99002 19.3199,3.99002 z" /></g><g
         transform="translate(114.16797,-3)"
         id="g58"><path
           id="path60"
           style="fill:#000000;fill-opacity:1;fill-rule:nonzero;stroke:none"
           d="m 1474.8235,173.36999 c 15.4,0 27.1599,-3.36 35.2799,-10.08 8.26,-6.58 12.39,-16.72999 12.39,-30.44999 V 56.399994 h -21.84 l -6.0899,15.539993 h -0.8401 c -3.22,-4.059997 -6.58,-7.419998 -10.08,-10.080002 -3.36,-2.660003 -7.28,-4.550003 -11.76,-5.669998 -4.3399,-1.259994 -9.7301,-1.889999 -16.17,-1.889999 -6.72,0 -12.81,1.259994 -18.2699,3.779999 -5.32,2.660003 -9.5202,6.649993 -12.6001,11.970001 -3.08,5.460007 -4.62,12.320007 -4.62,20.580002 0,12.18 4.27,21.14001 12.81,26.88001 8.5401,5.87999 21.35,9.09999 38.43,9.65999 l 19.9501,0.63 V 132.84 c 0,6.01998 -1.61,10.42999 -4.83,13.22999 -3.08,2.8 -7.42,4.2 -13.02,4.2 -5.6,0 -11.0601,-0.84 -16.38,-2.51999 -5.32,-1.54001 -10.6402,-3.5 -15.9601,-5.88001 l -10.2899,21.21 c 6.16,3.22 12.9499,5.74 20.37,7.56001 7.56,1.81999 15.4,2.72999 23.52,2.72999 z m 4.4099,-64.26 c -10.08,-0.28 -17.08,-2.09999 -21,-5.46 -3.92,-3.36 -5.88,-7.77 -5.88,-13.229999 0,-4.760003 1.4,-8.189995 4.2001,-10.290001 2.8,-1.960007 6.4399,-2.940003 10.9199,-2.940003 6.72,0 12.39,1.960007 17.01,5.880005 4.62,4.059998 6.9301,9.729996 6.9301,17.009998 v 9.45 z" /></g></g><g
       transform="translate(0.046875,44.780243)"
       id="g62"><path
         id="path64"
         style="fill:#000000;fill-opacity:1;fill-rule:evenodd;stroke:none"
         d="M 119.2759,199.74974 C 71.000359,206.38698 40,174.14595 40,137.07143 V 8.619705 H 0 V 137.07143 c 0,61.91578 52.999771,112.16667 124.72411,102.30554 z" /></g><g
       transform="translate(819.98438,278.40005)"
       id="g66"><path
         id="path68"
         style="fill:#06adf4;fill-opacity:1;fill-rule:evenodd;stroke:none"
         d="m 40.331211,16.371483 c 0.08673,-2.256386 0.167557,-4.359329 0.167557,-6.274941 V 7.48e-4 L 0.498766,0 v 10.096542 c 0,0.524613 -0.053146,1.393898 -0.124742,2.564942 -0.5754,9.411316 -2.34241,38.312835 12.709638,64.431106 18.369041,31.8739 57.336489,54.90732 129.978978,54.90732 V 91.999908 c -64.34067,0 -86.655154,-19.840972 -95.322264,-34.880104 C 39.32618,42.519516 39.901192,27.559364 40.331211,16.371483 Z" /></g><g
       transform="translate(1671.5469,45.899963)"
       id="g70"><path
         id="path72"
         style="fill:#06adf4;fill-opacity:1;fill-rule:evenodd;stroke:none"
         d="M 47,79 C 29.326887,79 15,64.673111 15,47 15,29.326889 29.326887,15 47,15 64.673111,15 79,29.326889 79,47 79,64.673111 64.673111,79 47,79 Z M 0,47 C 0,72.957382 21.042618,94 47,94 72.957382,94 94,72.957382 94,47 94,21.042618 72.957382,0 47,0 21.042618,0 0,21.042618 0,47 Z" /></g><g
       transform="translate(1776.5469,45.899963)"
       id="g74"><path
         id="path76"
         style="fill:#06adf4;fill-opacity:1;fill-rule:evenodd;stroke:none"
         d="M 47,79 C 29.326887,79 15,64.673111 15,47 15,29.326889 29.326887,15 47,15 64.673111,15 79,29.326889 79,47 79,64.673111 64.673111,79 47,79 Z M 0,47 C 0,72.957382 21.042618,94 47,94 72.957382,94 94,72.957382 94,47 94,21.042618 72.957382,0 47,0 21.042618,0 0,21.042618 0,47 Z" /></g><g
       transform="translate(1723.5469,140.89996)"
       id="g78"><path
         id="path80"
         style="fill:#06adf4;fill-opacity:1;fill-rule:evenodd;stroke:none"
         d="M 47.5,79 C 29.461523,79 15,64.58445 15,47 15,29.41555 29.461523,15 47.5,15 65.538475,15 80,29.41555 80,47 80,64.58445 65.538475,79 47.5,79 Z M 0,47 C 0,73.046051 21.355698,94 47.5,94 73.644302,94 95,73.046051 95,47 95,20.953957 73.644302,0 47.5,0 21.355698,0 0,20.953957 0,47 Z" /></g><g
       transform="translate(817.04687,48.639954)"
       id="g82"><path
         id="path84"
         style="fill:#000000;fill-opacity:1;fill-rule:evenodd;stroke:none"
         d="M 44.663391,146.56747 C 41.628716,135.11626 40,118.80621 40,95.299667 40,75.033722 45.691422,62.038589 52.366127,54.163879 59.085773,46.23613 67.837051,42.224289 76.48941,41.468933 85.302223,40.699554 93.625237,43.325562 99.517448,48.281158 105.08254,52.961624 109.5,60.546616 109.5,72.26001 h 40 C 149.5,49.223404 140.22995,30.255798 125.2638,17.668655 110.62476,5.356628 91.572777,-1.5e-5 73.01059,1.620499 54.287949,3.255005 35.664223,12.005554 21.852623,28.300278 7.996077,44.648026 0,67.335434 0,95.299667 0,120.0233 1.644444,140.38586 5.998087,156.81413 c 4.453733,16.80596 12.050701,30.61855 24.579508,40.55712 12.207607,9.68377 26.948623,13.95343 42.237011,16.06797 15.179077,2.09941 33.028984,2.32079 52.685394,2.32079 v -40 c -20.00096,0 -35.167236,-0.27863 -47.20517,-1.9436 -11.928619,-1.64985 -18.60543,-4.40896 -22.858482,-7.78272 -3.931847,-3.11897 -7.838371,-8.3927 -10.772957,-19.46622 z" /></g><g
       transform="translate(0,280.41928)"
       id="g86"><path
         id="path88"
         style="fill:#06adf4;fill-opacity:1;fill-rule:evenodd;stroke:none"
         d="m 40.272068,14.085571 c 0.07137,-2.196174 0.13689,-4.212356 0.13689,-6.008255 V 0 h -40 v 8.077316 c 0,0.596634 -0.046802,1.545258 -0.108742,2.800675 -0.476289,9.653587 -1.847589,37.447571 10.284342,62.832939 7.218911,15.105156 19.112492,29.58936 37.910216,40.0825 18.574852,10.36873 42.705017,16.18725 73.552526,16.18725 V 89.980682 c -25.950399,0 -42.923978,-4.90007 -54.055914,-11.114067 C 57.082317,72.777031 50.666054,64.814377 46.67485,56.463013 39.390274,41.220444 39.907494,25.304489 40.272068,14.085571 Z" /></g></g></svg>