<svg width="288" height="63" viewBox="0 0 288 63" fill="none" xmlns="http://www.w3.org/2000/svg">
<g clip-path="url(#clip0_6_631)">
<path d="M22.5897 37.2013H23.0516V36.7408H22.5897V37.2013ZM22.5897 54.8026V55.2632H23.0516V54.8026H22.5897ZM17.7721 54.8026H17.3102V55.2632H17.7721V54.8026ZM17.7721 37.2013V36.7408H17.3102V37.2013H17.7721ZM22.04 30.8184L21.7838 31.2016L21.7895 31.2054L21.7952 31.209L22.04 30.8184L22.04 30.8184ZM22.04 34.4934L21.7838 34.1102H21.7838L22.04 34.4934ZM18.3218 34.4934L18.058 34.8715L18.0617 34.8741L18.0655 34.8766L18.3218 34.4934ZM18.3218 30.8184L18.5741 31.2042L18.576 31.2029L18.578 31.2017L18.3218 30.8184ZM42.2056 38.4263L41.8955 38.7677L41.8973 38.7693L41.8991 38.7709L42.2056 38.4263L42.2056 38.4263ZM43.9192 54.8026V55.2632H44.3811V54.8026H43.9192ZM39.1016 54.8026H38.6397V55.2632H39.1016V54.8026ZM38.4227 41.6822L38.0443 41.9463L38.0464 41.9494L38.0485 41.9523L38.4227 41.6822L38.4227 41.6822ZM33.2494 42.2303L33.6552 42.4502L33.6562 42.4484L33.6571 42.4465L33.2493 42.2303H33.2494ZM32.4411 54.8026V55.2632H32.903V54.8026H32.4411ZM27.6235 54.8026H27.1616V55.2632H27.6235V54.8026ZM27.6235 37.2013V36.7408H27.1616V37.2013H27.6235ZM31.3094 37.2013L31.7536 37.0748L31.6578 36.7408H31.3094V37.2013ZM31.9561 39.4579L31.512 39.5844L31.6077 39.9184H31.9561V39.4579ZM32.2148 39.4579V39.9184H32.4669L32.6033 39.7069L32.2148 39.4579ZM33.6374 38.0072L33.8902 38.3927L33.8953 38.3893L33.9003 38.3859L33.6374 38.0072L33.6374 38.0072ZM35.5127 37.1691L35.6247 37.6159L35.6313 37.6142L35.6378 37.6124L35.5127 37.1691L35.5127 37.1691ZM57.862 51.1276L57.7639 50.6776L57.862 51.1276ZM59.3493 50.7408H59.8112V50.1192L59.2148 50.3002L59.3493 50.7408ZM59.3493 54.3191L59.5269 54.7442L59.8112 54.6261V54.3191H59.3493ZM57.4093 54.8671L57.3212 54.415L57.3138 54.4165L57.3064 54.4181L57.4093 54.8671L57.4093 54.8671ZM52.0744 54.6092L51.8952 55.0336L51.8971 55.0345L51.8991 55.0353L52.0744 54.6092L52.0744 54.6092ZM50.1021 52.8362L49.6974 53.0581L49.7007 53.0642L49.7043 53.0701L50.1021 52.8362H50.1021ZM49.3908 40.8118H49.8527V40.3513H49.3908V40.8118ZM47.0952 40.8118H46.6333V41.2724H47.0952V40.8118ZM47.0952 38.7809L46.8547 38.3877L46.6333 38.5223V38.7809H47.0952ZM49.7465 37.1691L49.9869 37.5623L50.1232 37.4794L50.1791 37.3304L49.7465 37.1691ZM51.1368 33.4618V33.0013H50.8163L50.7041 33.3005L51.1368 33.4618ZM54.2084 33.4618H54.6703V33.0013H54.2084V33.4618ZM54.2084 37.2013H53.7465V37.6618H54.2084V37.2013ZM59.1553 37.2013H59.6172V36.7408H59.1553V37.2013ZM59.1553 40.8118V41.2724H59.6172V40.8118H59.1553ZM54.2084 40.8118V40.3513H53.7465V40.8118H54.2084ZM54.7904 50.8053L54.4835 51.1495L54.489 51.1543L54.4947 51.159L54.7904 50.8053L54.7904 50.8053ZM74.3709 37.8138L74.1524 38.2195L74.1539 38.2203L74.1555 38.2211L74.3709 37.8137L74.3709 37.8138ZM77.1192 40.5217L76.7137 40.7422L77.1192 40.5217ZM78.0892 47.1947V47.6553H78.5511V47.1947H78.0892ZM66.708 47.1947V46.7342H66.2312L66.2464 47.2093L66.708 47.1947L66.708 47.1947ZM67.9043 50.3862L67.5732 50.7072L67.5754 50.7095L67.5777 50.7118L67.9043 50.3862H67.9043ZM74.2092 51.2243L74.3139 51.6729L74.3188 51.6717L74.3237 51.6705L74.2092 51.2243L74.2092 51.2243ZM77.0869 50.1605H77.5488V49.4298L76.8876 49.7451L77.0869 50.1605ZM77.0869 53.8678L77.2934 54.2797L77.5488 54.1524V53.8678H77.0869ZM74.3386 54.8026L74.248 54.351L74.2421 54.3522L74.2362 54.3536L74.3386 54.8026L74.3386 54.8026ZM66.1907 54.1579L65.9868 54.5711L65.9894 54.5724L65.9921 54.5737L66.1907 54.1579L66.1907 54.1579ZM62.9898 51.1599L62.5903 51.3911L62.9898 51.1599ZM62.8604 41.0053L62.4499 40.7942L62.4493 40.7954L62.4487 40.7967L62.8605 41.0052L62.8604 41.0053ZM65.8027 37.9105L65.5796 37.5073L65.8027 37.9105ZM67.872 41.1987L67.5512 40.8674L67.5483 40.8702L67.5454 40.873L67.872 41.1987L67.872 41.1987ZM66.805 44.0033L66.3448 43.9644L66.3023 44.4638H66.805V44.0033ZM73.5626 44.0033V44.4638H74.0245V44.0033H73.5626ZM73.1746 42.1013L72.7492 42.2808L72.7521 42.2876L72.7552 42.2943L73.1746 42.1013L73.1746 42.1013ZM72.0753 40.7796L72.3276 40.3939L72.0753 40.7796ZM84.7116 54.1901L84.4965 54.5977L84.4993 54.5991L84.5021 54.6006L84.7116 54.1901L84.7116 54.1901ZM81.8986 51.2243L82.3144 51.0238L81.8986 51.2243ZM82.028 40.8441L81.6215 40.6254L82.028 40.8441ZM85.0672 37.8461L84.8634 37.4328L84.862 37.4334L84.8606 37.434L85.0672 37.8459L85.0672 37.8461ZM92.7301 37.2335L92.6104 37.6783L92.6118 37.6787L92.6132 37.679L92.7302 37.2335L92.7301 37.2335ZM95.0904 38.0717L95.5218 38.2363L95.6734 37.8413L95.2916 37.6572L95.0904 38.0717ZM93.6678 41.7789L93.4962 42.2065L93.9316 42.3802L94.0992 41.9435L93.6678 41.7789ZM91.5338 41.0375L91.4011 41.4786L91.4031 41.4792L91.405 41.4798L91.5338 41.0376V41.0375ZM87.4922 41.3599L87.7551 41.7385L87.76 41.7352L87.7647 41.7317L87.4922 41.3599V41.3599ZM86.2312 43.1329L85.7954 42.9802L85.7942 42.9837L85.793 42.9872L86.2312 43.1329L86.2312 43.1329ZM86.2636 48.9678L85.8291 49.1242L85.8318 49.1315L85.8347 49.1388L86.2636 48.9678H86.2636ZM87.5569 50.6763L87.294 51.055L87.299 51.0584L87.3041 51.0618L87.5569 50.6763H87.5569ZM92.2775 50.8375L92.4235 51.2744L92.429 51.2726L92.4343 51.2706L92.2775 50.8375L92.2775 50.8375ZM94.5408 49.7092H95.0027V48.8627L94.2898 49.3226L94.5408 49.7092ZM94.5408 53.8033L94.7917 54.1899L95.0027 54.0538V53.8033H94.5408ZM92.2128 54.8026L92.1063 54.3545L92.0993 54.3562L92.0923 54.3581L92.2128 54.8026V54.8026ZM103.325 37.7816L102.864 37.7444L102.864 37.7505L102.864 37.7567L103.325 37.7816L103.325 37.7816ZM103.195 39.4579L102.737 39.397L102.668 39.9184H103.195V39.4579ZM103.454 39.4579V39.9184H103.706L103.843 39.7069L103.454 39.4579ZM104.812 38.0072L105.079 38.383L105.084 38.3794L105.089 38.3757L104.812 38.0072V38.0072ZM106.526 37.1691L106.648 37.613L106.653 37.6116L106.658 37.6101L106.526 37.169L106.526 37.1691ZM111.893 37.5559L111.694 37.9715L111.893 37.5559ZM114.091 39.6513L113.686 39.8718L113.688 39.8754L113.69 39.8788L114.092 39.6513L114.091 39.6513ZM114.9 54.8026V55.2632H115.362V54.8026H114.9ZM110.082 54.8026H109.62V55.2632H110.082V54.8026ZM109.371 41.6822L108.992 41.9463L108.998 41.9535L109.003 41.9606L109.371 41.6822L109.371 41.6822ZM104.941 41.3921L104.651 41.0338L104.648 41.0366L104.644 41.0395L104.941 41.3921H104.941ZM103.777 43.3585L103.332 43.2364L103.777 43.3585ZM103.422 54.8026V55.2632H103.884V54.8026H103.422ZM98.6041 54.8026H98.1422V55.2632H98.6041V54.8026ZM98.6041 30.3026V29.8421H98.1422V30.3026H98.6041ZM103.422 30.3026H103.884V29.8421H103.422V30.3026ZM168.663 38.4263L168.353 38.7677L168.355 38.7693L168.357 38.7709L168.663 38.4263V38.4263ZM170.377 54.8026V55.2632H170.839V54.8026H170.377ZM165.559 54.8026H165.098V55.2632H165.559V54.8026ZM164.88 41.6822L164.502 41.9463L164.504 41.9494L164.506 41.9523L164.88 41.6822V41.6822ZM159.707 42.2303L160.113 42.4502L160.114 42.4484L160.115 42.4465L159.707 42.2303H159.707ZM158.899 54.8026V55.2632H159.361V54.8026H158.899ZM154.081 54.8026H153.619V55.2632H154.081V54.8026ZM154.081 37.2013V36.7408H153.619V37.2013H154.081ZM157.767 37.2013L158.211 37.0748L158.116 36.7408H157.767V37.2013ZM158.414 39.4579L157.97 39.5844L158.066 39.9184H158.414V39.4579ZM158.673 39.4579V39.9184H158.925L159.061 39.7069L158.673 39.4579ZM160.095 38.0072L160.348 38.3927L160.353 38.3893L160.358 38.3859L160.095 38.0072V38.0072ZM161.971 37.1691L162.083 37.6159L162.089 37.6142L162.096 37.6124L161.971 37.1691L161.971 37.1691ZM180.149 37.2013H180.611V36.7408H180.149V37.2013ZM180.149 54.8026V55.2632H180.611V54.8026H180.149ZM175.331 54.8026H174.869V55.2632H175.331V54.8026ZM175.331 37.2013V36.7408H174.869V37.2013H175.331ZM179.599 30.8184L179.343 31.2016L179.349 31.2054L179.355 31.209L179.599 30.8184L179.599 30.8184ZM179.599 34.4934L179.343 34.1102L179.599 34.4934ZM175.881 34.4934L175.617 34.8715L175.621 34.8741L175.625 34.8766L175.881 34.4934V34.4934ZM175.881 30.8184L176.133 31.2042L176.135 31.2029L176.137 31.2017L175.881 30.8185L175.881 30.8184ZM193.816 37.5237L193.609 37.9356L193.816 37.5237ZM196.014 39.4579L195.636 39.722L195.774 39.9184H196.014V39.4579ZM196.144 39.4579V39.9184H196.533L196.599 39.5357L196.144 39.4579ZM196.532 37.2013V36.7408H196.142L196.076 37.1235L196.532 37.2013ZM200.605 37.2013H201.067V36.7408H200.605V37.2013ZM199.603 59.0579L199.204 58.8254L199.203 58.8282L199.201 58.831L199.603 59.0579H199.603ZM196.661 61.6368L196.474 61.2157L196.471 61.217L196.468 61.2183L196.661 61.6368H196.661ZM188.287 62.3138L188.221 62.7697L188.223 62.7699L188.287 62.3138H188.287ZM185.183 61.5079H184.721V61.8247L185.017 61.938L185.183 61.5079ZM185.183 57.6717L185.359 57.2459L184.721 56.984V57.6717H185.183ZM187.381 58.4132L187.508 57.9704L187.504 57.9691L187.5 57.968L187.381 58.4131L187.381 58.4132ZM189.677 58.8645L189.739 58.4081L189.733 58.4074L189.728 58.4068L189.677 58.8645L189.677 58.8645ZM194.85 58.0263L194.513 57.7117L194.51 57.7146L194.507 57.7176L194.85 58.0263L194.85 58.0263ZM195.82 53.5454L195.361 53.4945L195.36 53.5072V53.5198L195.821 53.5454L195.82 53.5454ZM195.917 52.5138L196.378 52.5466L196.413 52.0533H195.917V52.5138ZM195.788 52.5138V52.0533H195.537L195.401 52.2625L195.788 52.5138ZM185.862 52.7395L185.487 53.0086L185.489 53.0114L185.491 53.0142L185.862 52.7395H185.862ZM184.924 41.102L185.353 41.2718V41.2708V41.2695L184.923 41.102L184.924 41.102ZM187.252 37.975L187.517 38.3519L187.519 38.3508L187.252 37.975L187.252 37.975ZM190.518 41.3921L190.802 41.7548L190.804 41.754L190.805 41.7532L190.519 41.3922L190.518 41.3921ZM189.386 43.1651L188.947 43.0231L188.945 43.0268L188.944 43.0306L189.385 43.1651L189.386 43.1651ZM189.871 50.0638L189.481 50.3104L189.482 50.3126L189.484 50.3148L189.871 50.0638L189.871 50.0638ZM194.107 51.1276L194.253 51.5645L194.262 51.5614L194.271 51.558L194.107 51.1276L194.107 51.1276ZM195.206 50.3217L194.841 50.039L194.84 50.0405L194.838 50.042L195.205 50.3217L195.206 50.3217ZM195.885 48.8388L196.333 48.9505L195.885 48.8388ZM195.723 43.0039L196.161 42.8583L195.723 43.0039ZM194.527 41.3276L194.267 41.7084L194.272 41.7121L194.278 41.7155L194.527 41.3276L194.527 41.3276ZM230.895 38.4263L230.565 38.7485L230.569 38.752L230.572 38.7554L230.895 38.4263L230.895 38.4263ZM232.447 54.8026V55.2632H232.909V54.8026H232.447ZM227.63 54.8026H227.168V55.2632H227.63V54.8026ZM226.983 41.6822L226.599 41.9377L226.601 41.9407L226.603 41.9437L226.983 41.6822L226.983 41.6822ZM222.262 42.0691L221.865 41.8335L222.262 42.0691ZM221.454 54.8026V55.2632H221.916V54.8026H221.454ZM216.636 54.8026H216.175V55.2632H216.636V54.8026ZM216.345 42.4237L215.909 42.5743L216.345 42.4237ZM215.472 41.1664L215.189 41.53L215.195 41.535L215.202 41.5398L215.472 41.1664L215.472 41.1664ZM211.884 41.3921L212.188 41.7387L211.884 41.3921ZM210.784 43.3585L211.232 43.4702L210.784 43.3585ZM210.461 54.8026V55.2632H210.923V54.8026H210.461ZM205.643 54.8026H205.181V55.2632H205.643V54.8026ZM205.643 37.2013V36.7408H205.181V37.2013H205.643ZM209.329 37.2013L209.773 37.0748L209.678 36.7408H209.329V37.2013ZM209.976 39.4579L209.532 39.5844L209.627 39.9184H209.976V39.4579ZM210.235 39.4579V39.9184H210.494L210.629 39.6969L210.235 39.4579ZM211.593 38.0072L211.852 38.3881L211.857 38.3846L211.862 38.381L211.593 38.0072V38.0072ZM213.371 37.1691L213.49 37.6141L213.495 37.6128L213.5 37.6114L213.371 37.1692L213.371 37.1691ZM218.673 37.5237L218.475 37.9395L218.479 37.9414L218.483 37.9433L218.673 37.5237L218.673 37.5237ZM220.743 39.4579L220.336 39.6756L220.466 39.9184H220.743V39.4579ZM221.163 39.4579V39.9184H221.426L221.56 39.6934L221.163 39.4579ZM223.394 37.4914L223.214 37.0672L223.213 37.0679L223.211 37.0687L223.394 37.4915L223.394 37.4914ZM250.082 38.3941L249.788 38.7489L249.791 38.7516L249.794 38.7543L250.082 38.3941H250.082ZM251.99 54.8026V55.2632H252.452V54.8026H251.99ZM248.627 54.8026L248.197 54.9707L248.312 55.2632H248.627V54.8026ZM247.69 52.4171L248.12 52.2491L248.005 51.9566H247.69V52.4171ZM247.56 52.4171V51.9566H247.337L247.198 52.1309L247.56 52.4171ZM246.008 53.9645L245.729 53.5978L245.725 53.6006L245.722 53.6034L246.008 53.9645L246.008 53.9645ZM244.198 54.8349L244.086 54.3881L244.077 54.3902L244.069 54.3926L244.198 54.8349L244.198 54.8349ZM238.895 54.5447L238.688 54.9566L238.695 54.9599L238.702 54.9629L238.895 54.5447H238.895ZM236.955 52.7072L236.553 52.9335L236.554 52.9357L236.556 52.938L236.956 52.7072L236.955 52.7072ZM238.216 45.4217L238.474 45.8039L238.476 45.8025L238.478 45.801L238.216 45.4217L238.216 45.4217ZM244.133 43.9388L244.118 43.4785V43.4785L244.133 43.9388H244.133ZM247.205 43.8421L247.219 44.3024L247.667 44.2883V43.8421H247.205L247.205 43.8421ZM246.461 41.0375L246.15 41.3783L246.154 41.3817L246.158 41.385L246.461 41.0375L246.461 41.0375ZM241.934 40.7796L242.063 41.222L242.068 41.2204L242.073 41.2188L241.934 40.7796L241.934 40.7796ZM239.477 41.6822L239.061 41.8833L239.257 42.2849L239.666 42.1026L239.477 41.6822ZM237.893 38.4263L237.679 38.0182L237.281 38.2252L237.477 38.6273L237.893 38.4263ZM241.029 37.2658L240.921 36.818L240.919 36.8185L241.029 37.2658L241.029 37.2658ZM245.329 46.7112L245.342 47.1715L245.344 47.1715L245.345 47.1714L245.329 46.7112H245.329ZM242.096 47.5493L241.795 47.1997L242.096 47.5493ZM241.837 51.1599L241.56 51.5283L241.566 51.5328L241.572 51.5371L241.837 51.1599H241.837ZM246.138 50.7086L246.436 51.0597L246.44 51.0571L246.443 51.0545L246.138 50.7086H246.138ZM247.205 46.6467H247.666V46.17L247.189 46.1865L247.205 46.6467ZM22.1278 37.2013V54.8026H23.0516V37.2013H22.1278ZM22.5897 54.3421H17.7721V55.2632H22.5897V54.3421ZM18.234 54.8026V37.2013H17.3102V54.8026H18.234ZM17.7721 37.6618H22.5897V36.7408H17.7721V37.6618ZM20.1971 30.7632C20.8307 30.7632 21.3529 30.9152 21.7838 31.2016L22.2962 30.4352C21.6925 30.0339 20.986 29.8421 20.1971 29.8421V30.7632ZM21.7952 31.2089C22.1196 31.4111 22.3541 31.8294 22.3541 32.6559H23.2779C23.2779 31.6772 22.9951 30.8705 22.2848 30.4279L21.7952 31.2089ZM22.3541 32.6559C22.3541 33.4533 22.1234 33.8845 21.7838 34.1102L22.2962 34.8766C22.9913 34.4146 23.2779 33.6208 23.2779 32.6559H22.3541ZM21.7838 34.1102C21.3529 34.3967 20.8307 34.5487 20.1971 34.5487V35.4697C20.986 35.4697 21.6925 35.2779 22.2962 34.8766L21.7838 34.1102ZM20.1971 34.5487C19.5387 34.5487 19.0067 34.3952 18.578 34.1102L18.0655 34.8766C18.6715 35.2794 19.3896 35.4697 20.1971 35.4697V34.5487ZM18.5855 34.1154C18.2644 33.8927 18.04 33.4604 18.04 32.6559H17.1162C17.1162 33.6137 17.3875 34.4065 18.058 34.8715L18.5855 34.1154ZM18.04 32.6559C18.04 31.822 18.2683 31.403 18.5741 31.2042L18.0694 30.4327C17.3837 30.8786 17.1162 31.6846 17.1162 32.6559H18.04ZM18.578 31.2016C19.0067 30.9166 19.5387 30.7632 20.1971 30.7632V29.8421C19.3896 29.8421 18.6715 30.0325 18.0655 30.4352L18.578 31.2016ZM37.6467 37.3395C39.4566 37.3395 40.8565 37.8295 41.8955 38.7677L42.5157 38.085C41.2698 36.96 39.6305 36.4184 37.6467 36.4184V37.3395ZM41.8991 38.7709C42.903 39.6584 43.4573 41.1372 43.4573 43.3263H44.3811C44.3811 41.0023 43.793 39.2144 42.5121 38.0818L41.8991 38.7709ZM43.4573 43.3263V54.8026H44.3811V43.3263H43.4573ZM43.9192 54.3421H39.1016V55.2632H43.9192V54.3421ZM39.5635 54.8026V44.5191H38.6397V54.8026H39.5635ZM39.5635 44.5191C39.5635 43.2113 39.3328 42.1502 38.7968 41.4121L38.0485 41.9523C38.4178 42.4607 38.6397 43.2909 38.6397 44.5191H39.5635ZM38.8011 41.4181C38.2398 40.6187 37.3553 40.2546 36.2564 40.2546V41.1757C37.1405 41.1757 37.7002 41.4563 38.0443 41.9463L38.8011 41.4181ZM36.2564 40.2546C34.6754 40.2546 33.4838 40.8102 32.8416 42.014L33.6572 42.4465C34.0928 41.6301 34.9058 41.1757 36.2564 41.1757V40.2546ZM32.8436 42.0104C32.2511 43.0972 31.9792 44.6161 31.9792 46.5178H32.903C32.903 44.6799 33.1699 43.3405 33.6552 42.4502L32.8436 42.0104ZM31.9792 46.5178V54.8026H32.903V46.5178H31.9792ZM32.4411 54.3421H27.6235V55.2632H32.4411V54.3421ZM28.0854 54.8026V37.2013H27.1616V54.8026H28.0854ZM27.6235 37.6618H31.3094V36.7408H27.6235V37.6618ZM30.8653 37.3278L31.512 39.5844L32.4002 39.3314L31.7536 37.0748L30.8653 37.3278ZM31.9561 39.9184H32.2148V38.9974H31.9561V39.9184ZM32.6033 39.7069C32.9587 39.1557 33.3879 38.7201 33.8902 38.3927L33.3846 37.6218C32.766 38.0251 32.2468 38.5566 31.8262 39.2089L32.6033 39.7069ZM33.9003 38.3859C34.413 38.032 34.9866 37.7749 35.6247 37.6159L35.4007 36.7223C34.6593 36.9071 33.9826 37.2088 33.3745 37.6286L33.9003 38.3859ZM35.6378 37.6124C36.2859 37.4307 36.9551 37.3395 37.6467 37.3395V36.4184C36.8725 36.4184 36.119 36.5207 35.3876 36.7257L35.6378 37.6124ZM56.31 51.7493C56.8798 51.7493 57.4302 51.6925 57.9601 51.5776L57.7639 50.6776C57.3023 50.7777 56.8179 50.8283 56.31 50.8283V51.7493ZM57.9601 51.5776C58.4684 51.4675 58.9763 51.3354 59.4838 51.1814L59.2148 50.3002C58.7308 50.4471 58.2471 50.5729 57.7639 50.6776L57.9601 51.5776ZM58.8874 50.7408V54.3191H59.8112V50.7408H58.8874ZM59.1716 53.894C58.6922 54.0931 58.0779 54.2683 57.3212 54.415L57.4975 55.3192C58.2927 55.165 58.9717 54.9748 59.5269 54.7442L59.1716 53.894ZM57.3064 54.4182C56.5909 54.5812 55.7961 54.6645 54.9197 54.6645V55.5855C55.854 55.5855 56.7189 55.4968 57.5123 55.3161L57.3064 54.4182ZM54.9197 54.6645C53.914 54.6645 53.0265 54.5009 52.2497 54.1831L51.8991 55.0353C52.8037 55.4053 53.813 55.5855 54.9197 55.5855V54.6645ZM52.2537 54.1848C51.5351 53.8831 50.9505 53.364 50.5 52.6022L49.7043 53.0701C50.2452 53.9847 50.9755 54.6476 51.8952 55.0336L52.2537 54.1848ZM50.5068 52.6142C50.0849 51.8494 49.8527 50.7548 49.8527 49.2901H48.9289C48.9289 50.8343 49.1709 52.1036 49.6974 53.0581L50.5068 52.6142ZM49.8527 49.2901V40.8118H48.9289V49.2901H49.8527ZM49.3908 40.3513H47.0952V41.2724H49.3908V40.3513ZM47.5571 40.8118V38.7809H46.6333V40.8118H47.5571ZM47.3356 39.1741L49.9869 37.5623L49.506 36.7759L46.8547 38.3877L47.3356 39.1741ZM50.1791 37.3304L51.5694 33.6231L50.7041 33.3005L49.3138 37.0078L50.1791 37.3304ZM51.1368 33.9224H54.2084V33.0013H51.1368V33.9224ZM53.7465 33.4618V37.2013H54.6703V33.4618H53.7465ZM54.2084 37.6618H59.1553V36.7408H54.2084V37.6618ZM58.6934 37.2013V40.8118H59.6172V37.2013H58.6934ZM59.1553 40.3513H54.2084V41.2724H59.1553V40.3513ZM53.7465 40.8118V49.2901H54.6703V40.8118H53.7465ZM53.7465 49.2901C53.7465 50.0476 53.9703 50.6946 54.4835 51.1495L55.0972 50.4611C54.8345 50.2282 54.6703 49.8651 54.6703 49.2901H53.7465ZM54.4947 51.159C54.984 51.5656 55.6034 51.7493 56.31 51.7493V50.8283C55.7665 50.8283 55.3727 50.6897 55.0861 50.4515L54.4947 51.159ZM70.1676 37.3395C71.7476 37.3395 73.0698 37.6399 74.1524 38.2195L74.5894 37.4081C73.344 36.7412 71.8641 36.4184 70.1676 36.4184V37.3395ZM74.1555 38.2212C75.2599 38.8018 76.1102 39.6391 76.7137 40.7422L77.5247 40.3012C76.8349 39.0402 75.8529 38.0723 74.5863 37.4064L74.1555 38.2212ZM76.7137 40.7422C77.3145 41.8404 77.6273 43.2106 77.6273 44.8737H78.5511C78.5511 43.0982 78.2172 41.567 77.5247 40.3012L76.7137 40.7422ZM77.6273 44.8737V47.1947H78.5511V44.8737H77.6273ZM78.0892 46.7342H66.708V47.6553H78.0892V46.7342ZM66.2464 47.2093C66.2922 48.6476 66.7194 49.8316 67.5732 50.7072L68.2355 50.0652C67.5804 49.3933 67.2101 48.4498 67.1697 47.1801L66.2464 47.2093ZM67.5777 50.7118C68.46 51.5914 69.6556 52.0072 71.1053 52.0072V51.0862C69.839 51.0862 68.9007 50.7283 68.231 50.0605L67.5777 50.7118ZM71.1053 52.0072C72.2762 52.0072 73.3467 51.8972 74.3139 51.6729L74.1046 50.7758C73.2181 50.9813 72.2193 51.0862 71.1053 51.0862V52.0072ZM74.3237 51.6705C75.2837 51.4256 76.2713 51.0599 77.2862 50.576L76.8876 49.7451C75.9193 50.2068 74.9885 50.5502 74.0948 50.7782L74.3237 51.6705ZM76.625 50.1605V53.8678H77.5488V50.1605H76.625ZM76.8803 53.4559C76.0558 53.8669 75.1788 54.1654 74.248 54.351L74.4292 55.2542C75.4383 55.053 76.3935 54.7283 77.2934 54.2797L76.8803 53.4559ZM74.2362 54.3536C73.3317 54.5585 72.2149 54.6645 70.879 54.6645V55.5855C72.2589 55.5855 73.4486 55.4766 74.4409 55.2517L74.2362 54.3536ZM70.879 54.6645C69.1682 54.6645 67.6753 54.3527 66.3893 53.7421L65.9921 54.5737C67.4221 55.2526 69.0547 55.5855 70.879 55.5855V54.6645ZM66.3946 53.7447C65.1202 53.1194 64.1205 52.1843 63.3892 50.9286L62.5903 51.3911C63.411 52.8004 64.5452 53.8639 65.9868 54.5711L66.3946 53.7447ZM63.3892 50.9286C62.6649 49.685 62.2877 48.0945 62.2877 46.1309H61.3639C61.3639 48.2077 61.7626 49.9698 62.5903 51.3911L63.3892 50.9286ZM62.2877 46.1309C62.2877 44.1155 62.625 42.4842 63.2722 41.2138L62.4486 40.7967C61.7163 42.2342 61.3639 44.02 61.3639 46.1309H62.2877ZM63.271 41.2163C63.9441 39.9147 64.8628 38.9535 66.0258 38.3137L65.5796 37.5073C64.2422 38.243 63.1994 39.345 62.4499 40.7942L63.271 41.2163ZM66.0258 38.3137C67.1974 37.6693 68.5732 37.3395 70.1676 37.3395V36.4184C68.4426 36.4184 66.9085 36.7763 65.5796 37.5073L66.0258 38.3137ZM70.2 39.8355C69.1622 39.8355 68.2685 40.1768 67.5512 40.8674L68.1928 41.53C68.7257 41.017 69.384 40.7566 70.2 40.7566V39.8355ZM67.5454 40.873C66.8345 41.5818 66.4574 42.6399 66.3448 43.9644L67.2653 44.0422C67.3683 42.8307 67.7024 42.0191 68.1986 41.5243L67.5454 40.873ZM66.805 44.4638H73.5626V43.5428H66.805V44.4638ZM74.0245 44.0033C74.0245 43.2376 73.8846 42.5362 73.594 41.9083L72.7552 42.2943C72.9819 42.784 73.1007 43.3506 73.1007 44.0033H74.0245ZM73.6 41.9219C73.3281 41.2812 72.9026 40.7678 72.3276 40.3939L71.823 41.1653C72.2395 41.4362 72.5468 41.8039 72.7492 42.2808L73.6 41.9219ZM72.3276 40.3939C71.7386 40.0109 71.0196 39.8355 70.2 39.8355V40.7566C70.8892 40.7566 71.4204 40.9036 71.823 41.1653L72.3276 40.3939ZM89.1735 54.6645C87.4814 54.6645 86.0698 54.3624 84.921 53.7797L84.5021 54.6006C85.8106 55.2643 87.3736 55.5855 89.1735 55.5855V54.6645ZM84.9267 53.7826C83.7916 53.187 82.9212 52.2741 82.3144 51.0238L81.4829 51.4249C82.1693 52.8395 83.1743 53.9038 84.4965 54.5977L84.9267 53.7826ZM82.3144 51.0238C81.7079 49.774 81.3905 48.1404 81.3905 46.0987H80.4668C80.4668 48.2263 80.7961 50.0098 81.4829 51.4249L82.3144 51.0238ZM81.3905 46.0987C81.3905 43.9973 81.7495 42.3282 82.4344 41.0628L81.6215 40.6254C80.8407 42.0679 80.4668 43.9019 80.4668 46.0987H81.3905ZM82.4344 41.0628C83.1254 39.7863 84.0713 38.8574 85.2738 38.258L84.8607 37.4341C83.4766 38.1242 82.3963 39.194 81.6215 40.6254L82.4344 41.0628ZM85.2711 38.2593C86.513 37.6503 87.9502 37.3395 89.5938 37.3395V36.4184C87.8317 36.4184 86.2512 36.7523 84.8634 37.4328L85.2711 38.2593ZM89.5938 37.3395C90.7726 37.3395 91.7758 37.4551 92.6104 37.6783L92.8498 36.7888C91.9169 36.5392 90.8293 36.4184 89.5938 36.4184V37.3395ZM92.6131 37.6791C93.4965 37.9097 94.2539 38.1797 94.8892 38.4863L95.2916 37.6572C94.5905 37.3189 93.7743 37.0302 92.8471 36.788L92.6131 37.6791ZM94.659 37.9071L93.2364 41.6144L94.0992 41.9435L95.5218 38.2363L94.659 37.9071ZM93.8393 41.3514C93.0731 41.0458 92.3474 40.7935 91.6626 40.5952L91.405 41.4798C92.0566 41.6684 92.7535 41.9103 93.4962 42.2065L93.8393 41.3514ZM91.6665 40.5964C90.9787 40.3907 90.2874 40.2868 89.5938 40.2868V41.2079C90.1936 41.2079 90.7956 41.2975 91.4011 41.4786L91.6665 40.5964ZM89.5938 40.2868C88.6764 40.2868 87.8747 40.5108 87.2197 40.988L87.7647 41.7317C88.2305 41.3923 88.83 41.2079 89.5938 41.2079V40.2868ZM87.2293 40.9812C86.5713 41.4354 86.1001 42.1157 85.7954 42.9802L86.667 43.2855C86.9228 42.5597 87.2923 42.058 87.7551 41.7385L87.2293 40.9812ZM85.793 42.9873C85.5133 43.8239 85.3813 44.8551 85.3813 46.0664H86.3051C86.3051 44.9137 86.4318 43.9893 86.6694 43.2785L85.793 42.9873ZM85.3813 46.0664C85.3813 47.2601 85.525 48.2843 85.8291 49.1242L86.698 48.8113C86.4417 48.1038 86.3051 47.1938 86.3051 46.0664H85.3813ZM85.8347 49.1388C86.1636 49.9585 86.6456 50.6075 87.294 51.055L87.8198 50.2977C87.3472 49.9715 86.9671 49.4814 86.6924 48.7967L85.8347 49.1388ZM87.3041 51.0618C87.953 51.4848 88.7239 51.6849 89.5938 51.6849V50.7638C88.8687 50.7638 88.2816 50.5985 87.8096 50.2909L87.3041 51.0618ZM89.5938 51.6849C90.6452 51.6849 91.5908 51.5512 92.4235 51.2744L92.1314 50.4006C91.4122 50.6396 90.5687 50.7638 89.5938 50.7638V51.6849ZM92.4343 51.2706C93.2452 50.9787 94.031 50.5866 94.7917 50.0959L94.2898 49.3226C93.5847 49.7775 92.8617 50.1375 92.1206 50.4043L92.4343 51.2706ZM94.0789 49.7092V53.8033H95.0027V49.7092H94.0789ZM94.2898 53.4166C93.5996 53.862 92.8722 54.1736 92.1063 54.3545L92.3192 55.2508C93.1916 55.0448 94.0162 54.6902 94.7917 54.1899L94.2898 53.4166ZM92.0923 54.3581C91.3481 54.5586 90.3792 54.6645 89.1735 54.6645V55.5855C90.4251 55.5855 91.4824 55.4765 92.3333 55.2472L92.0923 54.3581ZM102.96 35.2993C102.96 36.1475 102.928 36.9625 102.864 37.7444L103.785 37.8188C103.851 37.0103 103.884 36.1705 103.884 35.2993H102.96ZM102.863 37.7567C102.82 38.5521 102.778 39.0946 102.737 39.397L103.653 39.5188C103.699 39.1765 103.743 38.6014 103.786 37.8064L102.863 37.7567ZM103.195 39.9184H103.454V38.9974H103.195V39.9184ZM103.843 39.7069C104.203 39.1483 104.616 38.7101 105.079 38.383L104.545 37.6314C103.973 38.0351 103.481 38.564 103.065 39.2089L103.843 39.7069ZM105.089 38.3757C105.56 38.0235 106.079 37.7697 106.648 37.613L106.403 36.7251C105.722 36.9123 105.099 37.2173 104.535 37.6388L105.089 38.3757ZM106.658 37.6102C107.26 37.4303 107.894 37.3395 108.563 37.3395V36.4184C107.809 36.4184 107.085 36.521 106.393 36.728L106.658 37.6102ZM108.563 37.3395C109.78 37.3395 110.819 37.5553 111.694 37.9715L112.092 37.1403C111.07 36.6539 109.889 36.4184 108.563 36.4184V37.3395ZM111.694 37.9715C112.552 38.3799 113.214 39.0088 113.686 39.8718L114.497 39.4308C113.935 38.4026 113.131 37.6346 112.092 37.1403L111.694 37.9715ZM113.69 39.8788C114.177 40.7335 114.438 41.8726 114.438 43.3263H115.362C115.362 41.7713 115.084 40.4603 114.493 39.4238L113.69 39.8788ZM114.438 43.3263V54.8026H115.362V43.3263H114.438ZM114.9 54.3421H110.082V55.2632H114.9V54.3421ZM110.544 54.8026V44.5191H109.62V54.8026H110.544ZM110.544 44.5191C110.544 43.2081 110.302 42.1434 109.739 41.4039L109.003 41.9606C109.389 42.4676 109.62 43.2941 109.62 44.5191H110.544ZM109.749 41.4181C109.19 40.6216 108.319 40.2546 107.237 40.2546V41.1757C108.095 41.1757 108.646 41.4534 108.992 41.9463L109.749 41.4181ZM107.237 40.2546C106.198 40.2546 105.318 40.4966 104.651 41.0338L105.232 41.7504C105.685 41.385 106.336 41.1757 107.237 41.1757V40.2546ZM104.644 41.0395C104.016 41.5653 103.587 42.3111 103.332 43.2364L104.223 43.4807C104.442 42.6867 104.788 42.1215 105.238 41.7447L104.644 41.0395ZM103.332 43.2364C103.08 44.1481 102.96 45.245 102.96 46.5178H103.884C103.884 45.2975 104 44.2883 104.223 43.4807L103.332 43.2364ZM102.96 46.5178V54.8026H103.884V46.5178H102.96ZM103.422 54.3421H98.6041V55.2632H103.422V54.3421ZM99.066 54.8026V30.3026H98.1422V54.8026H99.066ZM98.6041 30.7632H103.422V29.8421H98.6041V30.7632ZM102.96 30.3026V35.2993H103.884V30.3026H102.96ZM164.105 37.3395C165.914 37.3395 167.314 37.8295 168.353 38.7677L168.973 38.085C167.728 36.96 166.088 36.4184 164.105 36.4184V37.3395ZM168.357 38.7709C169.361 39.6584 169.915 41.1372 169.915 43.3263H170.839C170.839 41.0023 170.251 39.2144 168.97 38.0818L168.357 38.7709ZM169.915 43.3263V54.8026H170.839V43.3263H169.915ZM170.377 54.3421H165.559V55.2632H170.377V54.3421ZM166.021 54.8026V44.5191H165.098V54.8026H166.021ZM166.021 44.5191C166.021 43.2113 165.791 42.1502 165.255 41.4121L164.506 41.9523C164.876 42.4607 165.098 43.2909 165.098 44.5191H166.021ZM165.259 41.4181C164.698 40.6187 163.813 40.2546 162.714 40.2546V41.1757C163.598 41.1757 164.158 41.4563 164.502 41.9463L165.259 41.4181ZM162.714 40.2546C161.133 40.2546 159.942 40.8102 159.299 42.014L160.115 42.4465C160.551 41.6301 161.364 41.1757 162.714 41.1757V40.2546ZM159.301 42.0104C158.709 43.0972 158.437 44.6161 158.437 46.5178H159.361C159.361 44.6799 159.628 43.3405 160.113 42.4502L159.301 42.0104ZM158.437 46.5178V54.8026H159.361V46.5178H158.437ZM158.899 54.3421H154.081V55.2632H158.899V54.3421ZM154.543 54.8026V37.2013H153.619V54.8026H154.543ZM154.081 37.6618H157.767V36.7408H154.081V37.6618ZM157.323 37.3278L157.97 39.5844L158.858 39.3314L158.211 37.0748L157.323 37.3278ZM158.414 39.9184H158.673V38.9974H158.414V39.9184ZM159.061 39.7069C159.417 39.1557 159.846 38.7201 160.348 38.3927L159.842 37.6218C159.224 38.0251 158.705 38.5566 158.284 39.2089L159.061 39.7069ZM160.358 38.3859C160.871 38.032 161.444 37.7749 162.083 37.6159L161.859 36.7223C161.117 36.9071 160.44 37.2088 159.832 37.6286L160.358 38.3859ZM162.096 37.6124C162.744 37.4307 163.413 37.3395 164.105 37.3395V36.4184C163.33 36.4184 162.577 36.5207 161.845 36.7257L162.096 37.6124ZM179.687 37.2013V54.8026H180.611V37.2013H179.687ZM180.149 54.3421H175.331V55.2632H180.149V54.3421ZM175.793 54.8026V37.2013H174.869V54.8026H175.793ZM175.331 37.6618H180.149V36.7408H175.331V37.6618ZM177.756 30.7632C178.39 30.7632 178.912 30.9152 179.343 31.2016L179.855 30.4352C179.252 30.0339 178.545 29.8421 177.756 29.8421V30.7632ZM179.354 31.2089C179.679 31.4111 179.913 31.8294 179.913 32.6559H180.837C180.837 31.6772 180.554 30.8705 179.844 30.4279L179.354 31.2089ZM179.913 32.6559C179.913 33.4533 179.683 33.8845 179.343 34.1102L179.855 34.8766C180.55 34.4146 180.837 33.6208 180.837 32.6559H179.913ZM179.343 34.1102C178.912 34.3967 178.39 34.5487 177.756 34.5487V35.4697C178.545 35.4697 179.252 35.2779 179.855 34.8766L179.343 34.1102ZM177.756 34.5487C177.098 34.5487 176.566 34.3952 176.137 34.1102L175.625 34.8766C176.231 35.2794 176.949 35.4697 177.756 35.4697V34.5487ZM176.145 34.1154C175.824 33.8927 175.599 33.4604 175.599 32.6559H174.675C174.675 33.6137 174.947 34.4064 175.617 34.8715L176.145 34.1154ZM175.599 32.6559C175.599 31.822 175.827 31.403 176.133 31.2042L175.629 30.4327C174.943 30.8786 174.675 31.6846 174.675 32.6559H175.599ZM176.137 31.2016C176.566 30.9166 177.098 30.7632 177.756 30.7632V29.8421C176.949 29.8421 176.231 30.0325 175.625 30.4352L176.137 31.2016ZM190.906 37.3395C191.92 37.3395 192.818 37.5413 193.609 37.9356L194.022 37.1118C193.089 36.6464 192.047 36.4184 190.906 36.4184V37.3395ZM193.609 37.9356C194.396 38.3281 195.072 38.9192 195.636 39.722L196.393 39.1938C195.749 38.2773 194.959 37.5789 194.022 37.1118L193.609 37.9356ZM196.014 39.9184H196.144V38.9974H196.014V39.9184ZM196.599 39.5357L196.987 37.2791L196.076 37.1235L195.688 39.3801L196.599 39.5357ZM196.532 37.6618H200.605V36.7408H196.532V37.6618ZM200.144 37.2013V54.8349H201.067V37.2013H200.144ZM200.144 54.8349C200.144 56.4512 199.821 57.7735 199.204 58.8254L200.002 59.2904C200.721 58.0642 201.067 56.5712 201.067 54.8349H200.144ZM199.201 58.831C198.608 59.8757 197.707 60.6715 196.474 61.2157L196.848 62.058C198.244 61.4417 199.305 60.5182 200.005 59.2847L199.201 58.831ZM196.468 61.2183C195.231 61.7847 193.674 62.0789 191.779 62.0789V63C193.764 63 195.461 62.6925 196.854 62.0554L196.468 61.2183ZM191.779 62.0789C190.547 62.0789 189.404 62.0048 188.351 61.8577L188.223 62.7699C189.324 62.9237 190.51 63 191.779 63V62.0789ZM188.352 61.8579C187.331 61.7124 186.329 61.4526 185.348 61.0778L185.017 61.938C186.062 62.3369 187.13 62.6143 188.221 62.7697L188.352 61.8579ZM185.645 61.5079V57.6717H184.721V61.5079H185.645ZM185.007 58.0975C185.758 58.4058 186.51 58.6595 187.263 58.8584L187.5 57.968C186.787 57.78 186.074 57.5394 185.359 57.2459L185.007 58.0975ZM187.254 58.856C188.034 59.0779 188.824 59.2334 189.626 59.3222L189.728 58.4068C188.978 58.3237 188.238 58.1782 187.508 57.9704L187.254 58.856ZM189.615 59.3209C190.433 59.431 191.251 59.4862 192.07 59.4862V58.5651C191.293 58.5651 190.516 58.5128 189.739 58.4081L189.615 59.3209ZM192.07 59.4862C193.398 59.4862 194.472 59.1309 195.193 58.335L194.507 57.7176C194.021 58.2542 193.242 58.5651 192.07 58.5651V59.4862ZM195.188 58.3409C195.923 57.5572 196.25 56.4244 196.25 55.0283H195.326C195.326 56.2971 195.028 57.163 194.513 57.7117L195.188 58.3409ZM196.25 55.0283V54.6737H195.326V55.0283H196.25ZM196.25 54.6737C196.25 54.3173 196.26 53.9498 196.281 53.5709L195.359 53.5198C195.337 53.9147 195.326 54.2993 195.326 54.6737H196.25ZM196.279 53.5962C196.323 53.205 196.356 52.855 196.378 52.5466L195.456 52.481C195.435 52.7744 195.404 53.1121 195.361 53.4945L196.279 53.5962ZM195.917 52.0533H195.788V52.9743H195.917V52.0533ZM195.401 52.2625C194.834 53.1296 194.172 53.7329 193.419 54.0985L193.824 54.9265C194.753 54.4754 195.534 53.7463 196.175 52.7651L195.401 52.2625ZM193.419 54.0985C192.649 54.4725 191.772 54.6645 190.776 54.6645V55.5855C191.893 55.5855 192.912 55.3692 193.824 54.9265L193.419 54.0985ZM190.776 54.6645C188.823 54.6645 187.326 53.9313 186.232 52.4648L185.491 53.0142C186.769 54.7284 188.548 55.5855 190.776 55.5855V54.6645ZM186.237 52.4704C185.149 50.9645 184.578 48.8367 184.578 46.0342H183.654C183.654 48.9484 184.246 51.2907 185.487 53.0086L186.237 52.4704ZM184.578 46.0342C184.578 44.1402 184.842 42.5572 185.353 41.2718L184.495 40.9321C183.929 42.3547 183.654 44.0598 183.654 46.0342H184.578ZM185.354 41.2695C185.867 39.9617 186.592 38.9995 187.517 38.3519L186.987 37.5981C185.886 38.3689 185.059 39.4914 184.494 40.9344L185.354 41.2695ZM187.519 38.3508C188.467 37.681 189.59 37.3395 190.906 37.3395V36.4184C189.419 36.4184 188.106 36.8076 186.985 37.5992L187.519 38.3508ZM192.425 40.3191C191.582 40.3191 190.841 40.5492 190.231 41.031L190.804 41.7532C191.229 41.4183 191.759 41.2401 192.425 41.2401V40.3191ZM190.233 41.0294C189.644 41.4888 189.224 42.169 188.947 43.0231L189.825 43.3072C190.065 42.5709 190.399 42.0691 190.802 41.7548L190.233 41.0294ZM188.944 43.0306C188.689 43.8629 188.568 44.89 188.568 46.0987H189.492C189.492 44.9433 189.609 44.0147 189.828 43.2997L188.944 43.0306ZM188.568 46.0987C188.568 47.8948 188.851 49.3206 189.481 50.3104L190.261 49.8172C189.77 49.0447 189.492 47.8271 189.492 46.0987H188.568ZM189.484 50.3148C190.143 51.3269 191.176 51.8138 192.49 51.8138V50.8928C191.433 50.8928 190.719 50.52 190.258 49.8128L189.484 50.3148ZM192.49 51.8138C193.15 51.8138 193.741 51.7346 194.253 51.5645L193.96 50.6907C193.567 50.8215 193.08 50.8928 192.49 50.8928V51.8138ZM194.271 51.558C194.8 51.3572 195.238 51.0383 195.573 50.6015L194.839 50.042C194.614 50.3358 194.319 50.5542 193.942 50.6973L194.271 51.558ZM195.57 50.6044C195.921 50.1555 196.17 49.5985 196.333 48.9505L195.437 48.7271C195.297 49.2826 195.095 49.7143 194.841 50.039L195.57 50.6044ZM196.333 48.9505C196.496 48.3012 196.573 47.5307 196.573 46.6467H195.649C195.649 47.482 195.576 48.1729 195.437 48.7271L196.333 48.9505ZM196.573 46.6467V46.0664H195.649V46.6467H196.573ZM196.573 46.0664C196.573 44.7732 196.442 43.6975 196.161 42.8583L195.285 43.1496C195.522 43.8578 195.649 44.8237 195.649 46.0664H196.573ZM196.161 42.8583C195.879 42.013 195.426 41.3546 194.776 40.9397L194.278 41.7155C194.705 41.9883 195.05 42.4475 195.285 43.1496L196.161 42.8583ZM194.787 40.9468C194.15 40.5151 193.351 40.3191 192.425 40.3191V41.2401C193.224 41.2401 193.826 41.4094 194.267 41.7084L194.787 40.9468ZM226.369 37.3395C228.298 37.3395 229.668 37.835 230.565 38.7485L231.225 38.1041C230.096 36.9545 228.449 36.4184 226.369 36.4184V37.3395ZM230.572 38.7554C231.479 39.6407 231.985 41.1256 231.985 43.3263H232.909C232.909 41.0139 232.381 39.2321 231.218 38.0973L230.572 38.7554ZM231.985 43.3263V54.8026H232.909V43.3263H231.985ZM232.447 54.3421H227.63V55.2632H232.447V54.3421ZM228.092 54.8026V44.5191H227.168V54.8026H228.092ZM228.092 44.5191C228.092 43.2144 227.873 42.1571 227.363 41.4208L226.603 41.9437C226.956 42.4538 227.168 43.2878 227.168 44.5191H228.092ZM227.367 41.4268C226.835 40.6312 226.009 40.2546 224.978 40.2546V41.1757C225.759 41.1757 226.268 41.4438 226.599 41.9377L227.367 41.4268ZM224.978 40.2546C223.583 40.2546 222.506 40.7606 221.865 41.8335L222.659 42.3046C223.096 41.5723 223.83 41.1757 224.978 41.1757V40.2546ZM221.865 41.8335C221.265 42.8386 220.992 44.235 220.992 45.9697H221.916C221.916 44.3088 222.182 43.1048 222.659 42.3046L221.865 41.8335ZM220.992 45.9697V54.8026H221.916V45.9697H220.992ZM221.454 54.3421H216.636V55.2632H221.454V54.3421ZM217.098 54.8026V44.5191H216.175V54.8026H217.098ZM217.098 44.5191C217.098 43.6493 216.998 42.8959 216.782 42.273L215.909 42.5743C216.081 43.069 216.175 43.7126 216.175 44.5191H217.098ZM216.782 42.273C216.564 41.6464 216.225 41.14 215.743 40.7931L215.202 41.5398C215.496 41.7517 215.739 42.0834 215.909 42.5743L216.782 42.273ZM215.756 40.8029C215.27 40.4259 214.667 40.2546 213.985 40.2546V41.1757C214.51 41.1757 214.899 41.3052 215.189 41.53L215.756 40.8029ZM213.985 40.2546C213.022 40.2546 212.203 40.5018 211.579 41.0455L212.188 41.7387C212.599 41.3798 213.18 41.1757 213.985 41.1757V40.2546ZM211.579 41.0455C210.973 41.5745 210.568 42.3227 210.336 43.2469L211.232 43.4702C211.432 42.6751 211.759 42.1123 212.188 41.7387L211.579 41.0455ZM210.336 43.2469C210.109 44.1545 209.999 45.2476 209.999 46.5178H210.923C210.923 45.295 211.029 44.2819 211.232 43.4702L210.336 43.2469ZM209.999 46.5178V54.8026H210.923V46.5178H209.999ZM210.461 54.3421H205.643V55.2632H210.461V54.3421ZM206.105 54.8026V37.2013H205.181V54.8026H206.105ZM205.643 37.6618H209.329V36.7408H205.643V37.6618ZM208.885 37.3278L209.532 39.5844L210.42 39.3314L209.773 37.0748L208.885 37.3278ZM209.976 39.9184H210.235V38.9974H209.976V39.9184ZM210.629 39.6969C210.964 39.1467 211.373 38.7133 211.852 38.3881L211.333 37.6264C210.735 38.0319 210.238 38.5655 209.84 39.2189L210.629 39.6969ZM211.862 38.381C212.355 38.0271 212.897 37.7717 213.49 37.6141L213.252 36.7241C212.551 36.9103 211.907 37.2137 211.323 37.6335L211.862 38.381ZM213.5 37.6113C214.128 37.4295 214.753 37.3395 215.375 37.3395V36.4184C214.662 36.4184 213.95 36.5218 213.242 36.7268L213.5 37.6113ZM215.375 37.3395C216.619 37.3395 217.647 37.5463 218.475 37.9395L218.872 37.1079C217.889 36.6414 216.718 36.4184 215.375 36.4184V37.3395ZM218.483 37.9433C219.295 38.3095 219.909 38.8828 220.336 39.6756L221.15 39.2401C220.628 38.2707 219.863 37.5546 218.864 37.1041L218.483 37.9433ZM220.743 39.9184H221.163V38.9974H220.743V39.9184ZM221.56 39.6934C222.05 38.8723 222.72 38.2833 223.577 37.9142L223.211 37.0687C222.171 37.5162 221.354 38.2382 220.766 39.2223L221.56 39.6934ZM223.574 37.9157C224.489 37.5303 225.42 37.3395 226.369 37.3395V36.4184C225.291 36.4184 224.239 36.6359 223.214 37.0672L223.574 37.9157ZM244.65 37.3072C246.962 37.3072 248.651 37.811 249.788 38.7489L250.377 38.0393C249.013 36.914 247.081 36.3862 244.65 36.3862V37.3072ZM249.794 38.7543C250.925 39.6521 251.528 41.0571 251.528 43.0684H252.452C252.452 40.8675 251.783 39.1562 250.37 38.0339L249.794 38.7543ZM251.528 43.0684V54.8026H252.452V43.0684H251.528ZM251.99 54.3421H248.627V55.2632H251.99V54.3421ZM249.057 54.6346L248.12 52.2491L247.26 52.5851L248.197 54.9707L249.057 54.6346ZM247.69 51.9566H247.56V52.8776H247.69V51.9566ZM247.198 52.1309C246.722 52.7292 246.232 53.2165 245.729 53.5978L246.288 54.3311C246.862 53.8958 247.407 53.3515 247.922 52.7033L247.198 52.1309ZM245.722 53.6034C245.26 53.968 244.717 54.2308 244.086 54.3881L244.31 55.2816C245.058 55.0951 245.722 54.7776 246.295 54.3255L245.722 53.6034ZM244.069 54.3926C243.456 54.57 242.673 54.6645 241.708 54.6645V55.5855C242.726 55.5855 243.603 55.4866 244.326 55.2771L244.069 54.3926ZM241.708 54.6645C240.732 54.6645 239.862 54.4824 239.089 54.1266L238.701 54.9629C239.61 55.3808 240.614 55.5855 241.708 55.5855V54.6645ZM239.102 54.1328C238.366 53.7662 237.785 53.218 237.355 52.4765L236.555 52.938C237.073 53.8298 237.786 54.5066 238.688 54.9566L239.102 54.1328ZM237.357 52.481C236.933 51.7304 236.706 50.7611 236.706 49.548H235.782C235.782 50.8709 236.029 52.0078 236.553 52.9335L237.357 52.481ZM236.706 49.548C236.706 47.7992 237.311 46.5829 238.474 45.8039L237.958 45.0395C236.491 46.0228 235.782 47.5574 235.782 49.548H236.706ZM238.478 45.801C239.687 44.9712 241.555 44.4839 244.148 44.3991L244.118 43.4785C241.451 43.5657 239.375 44.067 237.954 45.0424L238.478 45.801ZM244.148 44.3991L247.219 44.3024L247.19 43.3818L244.118 43.4785L244.148 44.3991ZM247.666 43.8421V43.0684H246.743V43.8421H247.666ZM247.666 43.0684C247.666 42.0677 247.397 41.2386 246.764 40.69L246.158 41.385C246.517 41.696 246.743 42.2209 246.743 43.0684H247.666ZM246.772 40.6967C246.187 40.1665 245.393 39.9322 244.456 39.9322V40.8533C245.244 40.8533 245.787 41.0488 246.15 41.3783L246.772 40.6967ZM244.456 39.9322C243.547 39.9322 242.66 40.0683 241.795 40.3405L242.073 41.2188C242.847 40.9751 243.641 40.8533 244.456 40.8533V39.9322ZM241.806 40.3372C240.965 40.5799 240.126 40.8882 239.288 41.2619L239.666 42.1026C240.466 41.7455 241.265 41.4521 242.063 41.222L241.806 40.3372ZM239.893 41.4812L238.308 38.2253L237.477 38.6273L239.061 41.8833L239.893 41.4812ZM238.107 38.8344C239.019 38.3589 240.029 37.9845 241.139 37.7131L240.919 36.8185C239.744 37.1059 238.663 37.5051 237.679 38.0182L238.107 38.8344ZM241.137 37.7135C242.264 37.443 243.435 37.3072 244.65 37.3072V36.3862C243.365 36.3862 242.122 36.5298 240.921 36.8181L241.137 37.7135ZM245.316 46.2508C243.745 46.2944 242.527 46.5748 241.795 47.1997L242.397 47.899C242.872 47.4923 243.81 47.214 245.342 47.1715L245.316 46.2508ZM241.795 47.1997C241.083 47.8085 240.729 48.6165 240.729 49.5803H241.653C241.653 48.8677 241.902 48.3217 242.397 47.899L241.795 47.1997ZM240.729 49.5803C240.729 50.3997 240.974 51.09 241.56 51.5283L242.114 50.7914C241.838 50.585 241.653 50.2222 241.653 49.5803H240.729ZM241.572 51.5371C242.102 51.9068 242.763 52.0717 243.519 52.0717V51.1507C242.894 51.1507 242.435 51.0147 242.102 50.7826L241.572 51.5371ZM243.519 52.0717C244.65 52.0717 245.632 51.7399 246.436 51.0597L245.839 50.3574C245.22 50.8807 244.457 51.1507 243.519 51.1507V52.0717ZM246.442 51.0545C247.272 50.3276 247.666 49.3207 247.666 48.0974H246.743C246.743 49.1092 246.426 49.843 245.833 50.3626L246.442 51.0545ZM247.666 48.0974V46.6467H246.743V48.0974H247.666ZM247.189 46.1865L245.313 46.2509L245.345 47.1714L247.22 47.107L247.189 46.1865Z" fill="#E2F6FF"/>
<path d="M22.5897 37.2014V54.8027H17.7721V37.2014H22.5897ZM20.1971 30.3027C20.9084 30.3027 21.5227 30.4747 22.0401 30.8185C22.5574 31.1409 22.816 31.7534 22.816 32.656C22.816 33.5372 22.5574 34.1497 22.0401 34.4935C21.5227 34.8374 20.9084 35.0093 20.1971 35.0093C19.4642 35.0093 18.8391 34.8374 18.3218 34.4935C17.826 34.1497 17.5781 33.5372 17.5781 32.656C17.5781 31.7534 17.826 31.1409 18.3218 30.8185C18.8391 30.4747 19.4642 30.3027 20.1971 30.3027Z" fill="#E2F6FF"/>
<path d="M37.6467 36.879C39.5436 36.879 41.0632 37.3948 42.2056 38.4264C43.348 39.4365 43.9193 41.0698 43.9193 43.3264V54.8027H39.1017V44.5192C39.1017 43.2512 38.8753 42.3056 38.4227 41.6823C37.97 41.0376 37.2479 40.7152 36.2564 40.7152C34.7906 40.7152 33.7883 41.2203 33.2494 42.2304C32.7106 43.219 32.4411 44.6481 32.4411 46.5179V54.8027H27.6235V37.2014H31.3095L31.9561 39.458H32.2148C32.6028 38.8562 33.077 38.3727 33.6374 38.0073C34.1979 37.6205 34.823 37.3411 35.5127 37.1692C36.2025 36.9758 36.9138 36.879 37.6467 36.879Z" fill="#E2F6FF"/>
<path d="M56.3101 51.2888C56.8489 51.2888 57.3663 51.2351 57.862 51.1276C58.3578 51.0202 58.8536 50.8912 59.3493 50.7408V54.3191C58.832 54.534 58.1854 54.7167 57.4094 54.8671C56.6549 55.039 55.8251 55.125 54.9197 55.125C53.8635 55.125 52.9151 54.9531 52.0745 54.6092C51.2554 54.2653 50.5979 53.6743 50.1022 52.8362C49.6279 51.9765 49.3908 50.7945 49.3908 49.2901V40.8118H47.0952V38.7809L49.7465 37.1691L51.1368 33.4618H54.2084V37.2013H59.1553V40.8118H54.2084V49.2901C54.2084 49.9564 54.4024 50.4614 54.7904 50.8053C55.1784 51.1276 55.685 51.2888 56.3101 51.2888V51.2888Z" fill="#E2F6FF"/>
<path d="M70.1675 36.8789C71.8057 36.8789 73.2068 37.1906 74.3708 37.8138C75.5563 38.4371 76.4724 39.3397 77.1191 40.5217C77.7658 41.7037 78.0891 43.1544 78.0891 44.8737V47.1947H66.7079C66.751 48.5487 67.1498 49.6125 67.9042 50.3862C68.6802 51.1599 69.7472 51.5467 71.1052 51.5467C72.2476 51.5467 73.2823 51.4393 74.2091 51.2243C75.136 50.9879 76.0952 50.6333 77.0868 50.1605V53.8678C76.2246 54.2976 75.3085 54.6092 74.3385 54.8026C73.39 55.0175 72.2368 55.125 70.8789 55.125C69.1113 55.125 67.5486 54.8026 66.1906 54.1579C64.8326 53.4917 63.7657 52.4923 62.9897 51.1599C62.2137 49.8274 61.8257 48.1511 61.8257 46.1309C61.8257 44.0678 62.1706 42.3592 62.8603 41.0053C63.5717 39.6298 64.5524 38.5982 65.8026 37.9105C67.0528 37.2228 68.5078 36.8789 70.1675 36.8789ZM70.1999 40.2961C69.273 40.2961 68.497 40.5969 67.8719 41.1987C67.2684 41.8004 66.9127 42.7353 66.8049 44.0033H73.5625C73.5625 43.2941 73.4332 42.6601 73.1745 42.1013C72.9374 41.5425 72.5709 41.102 72.0752 40.7796C71.5794 40.4572 70.9543 40.2961 70.1999 40.2961V40.2961Z" fill="#E2F6FF"/>
<path d="M89.1736 55.125C87.4276 55.125 85.9403 54.8134 84.7116 54.1901C83.483 53.5454 82.5454 52.5568 81.8987 51.2243C81.252 49.8919 80.9287 48.1833 80.9287 46.0987C80.9287 43.9496 81.2951 42.198 82.028 40.8441C82.7609 39.4901 83.774 38.4908 85.0673 37.8461C86.3822 37.2013 87.891 36.8789 89.5939 36.8789C90.801 36.8789 91.8464 36.9971 92.7302 37.2336C93.6355 37.47 94.4223 37.7493 95.0905 38.0717L93.6678 41.7789C92.9134 41.4781 92.2021 41.2309 91.5339 41.0375C90.8872 40.8441 90.2406 40.7474 89.5939 40.7474C88.7533 40.7474 88.0527 40.9515 87.4923 41.3599C86.9318 41.7467 86.5115 42.3377 86.2313 43.1329C85.9726 43.9066 85.8433 44.8844 85.8433 46.0664C85.8433 47.227 85.9834 48.1941 86.2636 48.9678C86.5654 49.72 86.9965 50.2895 87.5569 50.6763C88.1174 51.0417 88.7964 51.2243 89.5939 51.2243C90.607 51.2243 91.5015 51.0954 92.2775 50.8375C93.0535 50.5581 93.8079 50.182 94.5408 49.7092V53.8033C93.8079 54.2761 93.032 54.6092 92.2129 54.8026C91.4153 55.0175 90.4022 55.125 89.1736 55.125Z" fill="#E2F6FF"/>
<path d="M103.422 35.2994C103.422 36.1591 103.389 36.9865 103.325 37.7817C103.281 38.5769 103.238 39.1356 103.195 39.458H103.454C103.842 38.8562 104.295 38.3727 104.812 38.0073C105.329 37.6205 105.9 37.3411 106.526 37.1692C107.172 36.9758 107.851 36.879 108.563 36.879C109.834 36.879 110.944 37.1047 111.893 37.556C112.841 38.0073 113.574 38.7058 114.091 39.6514C114.63 40.597 114.9 41.822 114.9 43.3264V54.8027H110.082V44.5192C110.082 43.2512 109.845 42.3056 109.371 41.6823C108.918 41.0376 108.207 40.7152 107.237 40.7152C106.267 40.7152 105.502 40.9409 104.941 41.3922C104.402 41.8435 104.014 42.499 103.777 43.3587C103.54 44.2183 103.422 45.2714 103.422 46.5179V54.8027H98.604V30.3027H103.422V35.2994Z" fill="#E2F6FF"/>
<path d="M164.105 36.879C166.002 36.879 167.521 37.3948 168.664 38.4264C169.806 39.4365 170.377 41.0698 170.377 43.3264V54.8027H165.56V44.5192C165.56 43.2512 165.333 42.3056 164.881 41.6823C164.428 41.0376 163.706 40.7152 162.714 40.7152C161.249 40.7152 160.246 41.2203 159.707 42.2304C159.169 43.219 158.899 44.6481 158.899 46.5179V54.8027H154.082V37.2014H157.767L158.414 39.458H158.673C159.061 38.8562 159.535 38.3727 160.095 38.0073C160.656 37.6205 161.281 37.3411 161.971 37.1692C162.661 36.9758 163.372 36.879 164.105 36.879Z" fill="#E2F6FF"/>
<path d="M180.149 37.2014V54.8027H175.331V37.2014H180.149ZM177.756 30.3027C178.467 30.3027 179.082 30.4747 179.599 30.8185C180.116 31.1409 180.375 31.7534 180.375 32.656C180.375 33.5372 180.116 34.1497 179.599 34.4935C179.082 34.8374 178.467 35.0093 177.756 35.0093C177.023 35.0093 176.398 34.8374 175.881 34.4935C175.385 34.1497 175.137 33.5372 175.137 32.656C175.137 31.7534 175.385 31.1409 175.881 30.8185C176.398 30.4747 177.023 30.3027 177.756 30.3027Z" fill="#E2F6FF"/>
<path d="M190.906 36.879C191.983 36.879 192.953 37.0939 193.816 37.5238C194.678 37.9536 195.411 38.5983 196.014 39.458H196.144L196.532 37.2014H200.605V54.8349C200.605 56.5113 200.271 57.9189 199.603 59.058C198.956 60.197 197.976 61.0567 196.661 61.6369C195.346 62.2387 193.719 62.5396 191.779 62.5396C190.528 62.5396 189.364 62.4643 188.287 62.3139C187.23 62.1635 186.196 61.8948 185.183 61.508V57.6718C185.916 57.9727 186.648 58.2198 187.381 58.4132C188.136 58.6281 188.901 58.7786 189.677 58.8646C190.475 58.972 191.272 59.0257 192.07 59.0257C193.32 59.0257 194.247 58.6926 194.85 58.0264C195.475 57.3602 195.788 56.3608 195.788 55.0284V54.6738C195.788 54.3084 195.799 53.9323 195.82 53.5455C195.863 53.1586 195.896 52.8148 195.917 52.5139H195.788C195.184 53.438 194.462 54.1042 193.622 54.5126C192.781 54.9209 191.832 55.1251 190.776 55.1251C188.685 55.1251 187.047 54.3299 185.862 52.7395C184.698 51.1277 184.116 48.8926 184.116 46.0343C184.116 44.1001 184.385 42.456 184.924 41.102C185.463 39.7266 186.239 38.6843 187.252 37.9751C188.287 37.2444 189.505 36.879 190.906 36.879V36.879ZM192.425 40.7797C191.671 40.7797 191.035 40.9838 190.518 41.3922C190.022 41.779 189.645 42.37 189.386 43.1652C189.149 43.9389 189.03 44.9167 189.03 46.0988C189.03 47.861 189.311 49.1828 189.871 50.0639C190.431 50.9235 191.304 51.3534 192.49 51.3534C193.115 51.3534 193.654 51.2781 194.107 51.1277C194.559 50.9558 194.926 50.6871 195.206 50.3218C195.508 49.9349 195.734 49.4406 195.885 48.8389C196.036 48.2371 196.111 47.5064 196.111 46.6468V46.0665C196.111 44.7985 195.982 43.7777 195.723 43.004C195.465 42.2303 195.066 41.6716 194.527 41.3277C193.988 40.9624 193.287 40.7797 192.425 40.7797V40.7797Z" fill="#E2F6FF"/>
<path d="M226.368 36.879C228.373 36.879 229.882 37.3948 230.895 38.4264C231.93 39.4365 232.447 41.0698 232.447 43.3264V54.8027H227.629V44.5192C227.629 43.2512 227.414 42.3056 226.983 41.6823C226.552 41.0376 225.883 40.7152 224.978 40.7152C223.706 40.7152 222.801 41.1666 222.262 42.0692C221.723 42.9718 221.454 44.272 221.454 45.9698V54.8027H216.636V44.5192C216.636 43.681 216.539 42.9826 216.345 42.4238C216.151 41.865 215.86 41.4459 215.472 41.1666C215.084 40.8657 214.588 40.7152 213.985 40.7152C213.101 40.7152 212.401 40.9409 211.883 41.3922C211.366 41.8435 211 42.499 210.784 43.3587C210.568 44.2183 210.461 45.2714 210.461 46.5179V54.8027H205.643V37.2014H209.329L209.976 39.458H210.234C210.601 38.8562 211.053 38.3727 211.592 38.0073C212.131 37.6205 212.724 37.3411 213.371 37.1692C214.039 36.9758 214.707 36.879 215.375 36.879C216.669 36.879 217.768 37.094 218.673 37.5238C219.578 37.9321 220.268 38.5769 220.742 39.458H221.163C221.702 38.5554 222.445 37.8999 223.394 37.4916C224.364 37.0832 225.355 36.879 226.368 36.879V36.879Z" fill="#E2F6FF"/>
<path d="M244.65 36.8467C247.021 36.8467 248.832 37.3625 250.082 38.3941C251.354 39.4042 251.99 40.9623 251.99 43.0684V54.8026H248.627L247.689 52.4171H247.56C247.064 53.0404 246.547 53.5561 246.008 53.9645C245.491 54.3728 244.887 54.6629 244.198 54.8349C243.529 55.0283 242.699 55.125 241.708 55.125C240.673 55.125 239.736 54.9316 238.895 54.5447C238.076 54.1364 237.429 53.5239 236.955 52.7072C236.481 51.8691 236.244 50.816 236.244 49.548C236.244 47.6783 236.901 46.3028 238.216 45.4217C239.531 44.5191 241.503 44.0248 244.133 43.9388L247.204 43.8421V43.0684C247.204 42.1443 246.957 41.4673 246.461 41.0375C245.987 40.6077 245.318 40.3928 244.456 40.3928C243.594 40.3928 242.753 40.5217 241.934 40.7796C241.115 41.016 240.296 41.3169 239.477 41.6822L237.893 38.4263C238.841 37.932 239.886 37.5452 241.029 37.2658C242.193 36.9864 243.4 36.8467 244.65 36.8467V36.8467ZM245.329 46.7112C243.777 46.7542 242.699 47.0336 242.096 47.5493C241.492 48.0651 241.191 48.7421 241.191 49.5803C241.191 50.311 241.406 50.8375 241.837 51.1599C242.268 51.4607 242.829 51.6112 243.519 51.6112C244.553 51.6112 245.426 51.3103 246.137 50.7086C246.849 50.0853 247.204 49.2149 247.204 48.0974V46.6467L245.329 46.7112Z" fill="#E2F6FF"/>
<path fill-rule="evenodd" clip-rule="evenodd" d="M18.3717 25.4626C10.9389 24.4437 6.16595 29.393 6.16595 35.0843V54.8027H0.00732422V35.0843C0.00732422 25.5797 8.16747 17.8657 19.2106 19.3795L18.3717 25.4626Z" fill="#E2F6FF"/>
<path fill-rule="evenodd" clip-rule="evenodd" d="M132.459 17.75C132.472 18.0964 132.485 18.4192 132.485 18.7133V20.2631L126.326 20.2632V18.7133C126.326 18.6327 126.318 18.4993 126.307 18.3195C126.219 16.8748 125.946 12.4382 128.264 8.42879C131.092 3.53587 137.092 3.83728e-05 148.276 3.83728e-05V6.14039C138.37 6.14039 134.934 9.18615 133.6 11.4948C132.304 13.7361 132.393 16.0326 132.459 17.75Z" fill="#06ADF4"/>
<path fill-rule="evenodd" clip-rule="evenodd" d="M264.597 43.8269C261.876 43.8269 259.67 46.0262 259.67 48.7392C259.67 51.4522 261.876 53.6515 264.597 53.6515C267.318 53.6515 269.524 51.4522 269.524 48.7392C269.524 46.0262 267.318 43.8269 264.597 43.8269ZM257.361 48.7392C257.361 44.7545 260.601 41.5243 264.597 41.5243C268.594 41.5243 271.834 44.7545 271.834 48.7392C271.834 52.7239 268.594 55.9541 264.597 55.9541C260.601 55.9541 257.361 52.7239 257.361 48.7392Z" fill="#06ADF4"/>
<path fill-rule="evenodd" clip-rule="evenodd" d="M280.764 43.8269C278.043 43.8269 275.837 46.0262 275.837 48.7392C275.837 51.4522 278.043 53.6515 280.764 53.6515C283.485 53.6515 285.691 51.4522 285.691 48.7392C285.691 46.0262 283.485 43.8269 280.764 43.8269ZM273.527 48.7392C273.527 44.7545 276.767 41.5243 280.764 41.5243C284.76 41.5243 288 44.7545 288 48.7392C288 52.7239 284.76 55.9541 280.764 55.9541C276.767 55.9541 273.527 52.7239 273.527 48.7392Z" fill="#06ADF4"/>
<path fill-rule="evenodd" clip-rule="evenodd" d="M272.681 29.2434C269.903 29.2434 267.677 31.4563 267.677 34.1557C267.677 36.8551 269.903 39.068 272.681 39.068C275.458 39.068 277.684 36.8551 277.684 34.1557C277.684 31.4563 275.458 29.2434 272.681 29.2434ZM265.367 34.1557C265.367 30.1574 268.655 26.9408 272.681 26.9408C276.706 26.9408 279.994 30.1574 279.994 34.1557C279.994 38.154 276.706 41.3706 272.681 41.3706C268.655 41.3706 265.367 38.154 265.367 34.1557Z" fill="#06ADF4"/>
<path fill-rule="evenodd" clip-rule="evenodd" d="M132.674 33.0342C132.207 34.792 131.956 37.2958 131.956 40.9042C131.956 44.0152 132.832 46.0101 133.86 47.2189C134.895 48.4359 136.242 49.0517 137.574 49.1677C138.931 49.2858 140.212 48.8827 141.12 48.122C141.976 47.4035 142.657 46.2391 142.657 44.441H148.815C148.815 47.9773 147.388 50.889 145.084 52.8213C142.83 54.7113 139.896 55.5335 137.038 55.2848C134.156 55.0339 131.288 53.6906 129.162 51.1892C127.028 48.6797 125.797 45.197 125.797 40.9042C125.797 37.1089 126.051 33.9831 126.721 31.4612C127.407 28.8813 128.576 26.761 130.505 25.2353C132.385 23.7488 134.654 23.0934 137.008 22.7688C139.345 22.4465 142.094 22.4125 145.12 22.4125V28.5528C142.041 28.5528 139.706 28.5956 137.852 28.8512C136.015 29.1045 134.987 29.528 134.333 30.0459C133.727 30.5247 133.126 31.3343 132.674 33.0342Z" fill="#E2F6FF"/>
<path fill-rule="evenodd" clip-rule="evenodd" d="M6.20052 17.7909C6.2115 18.128 6.22159 18.4375 6.22159 18.7132V19.9531H0.0629655V18.7132C0.0629655 18.6216 0.0557596 18.476 0.046223 18.2833C-0.0271092 16.8013 -0.238242 12.5347 1.62966 8.63785C2.74112 6.31908 4.57233 4.09562 7.46653 2.48483C10.3264 0.893144 14.0416 -5.12849e-05 18.7911 -5.12849e-05V6.1403C14.7956 6.1403 12.1823 6.8925 10.4683 7.84641C8.78872 8.78121 7.80083 10.0035 7.18632 11.2856C6.06475 13.6254 6.14438 16.0687 6.20052 17.7909Z" fill="#06ADF4"/>
</g>
<defs>
<clipPath id="clip0_6_631">
<rect width="288" height="63" fill="white"/>
</clipPath>
</defs>
</svg>
