<?xml version="1.0" encoding="UTF-8" standalone="no"?>
<svg
   xmlns:dc="http://purl.org/dc/elements/1.1/"
   xmlns:cc="http://creativecommons.org/ns#"
   xmlns:rdf="http://www.w3.org/1999/02/22-rdf-syntax-ns#"
   xmlns:svg="http://www.w3.org/2000/svg"
   xmlns="http://www.w3.org/2000/svg"
   viewBox="0 0 265.33334 252"
   height="252"
   width="265.33334"
   xml:space="preserve"
   id="svg2"
   version="1.1"><metadata
     id="metadata8"><rdf:RDF><cc:Work
         rdf:about=""><dc:format>image/svg+xml</dc:format><dc:type
           rdf:resource="http://purl.org/dc/dcmitype/StillImage" /></cc:Work></rdf:RDF></metadata><defs
     id="defs6" /><g
     transform="matrix(1.3333333,0,0,-1.3333333,0,252)"
     id="g10"><g
       transform="translate(7.5,-7.5)"
       id="g12"><path
         id="path14"
         style="fill:#06adf4;fill-opacity:1;fill-rule:nonzero;stroke:none"
         d="m 71.5,54.5 c 0,-17.673111 -14.326889,-32 -32,-32 v -15 c 25.957382,0 47,21.042618 47,47 z m -32,-32 c -17.673113,0 -32,14.326889 -32,32 h -15 c 0,-25.957382 21.042616,-47 47,-47 z m -32,32 c 0,17.673111 14.326887,32 32,32 v 15 c -25.957384,0 -47,-21.042618 -47,-47 z m 32,32 c 17.673111,0 32,-14.326889 32,-32 h 15 c 0,25.957382 -21.042618,47 -47,47 z m 137,-32 c 0,-17.673111 -14.32689,-32 -32,-32 v -15 c 25.95738,0 47,21.042618 47,47 z m -32,-32 c -17.67311,0 -32,14.326889 -32,32 h -15 c 0,-25.957382 21.04262,-47 47,-47 z m -32,32 c 0,17.673111 14.32689,32 32,32 v 15 c -25.95738,0 -47,-21.042618 -47,-47 z m 32,32 c 17.67311,0 32,-14.326889 32,-32 h 15 c 0,25.957382 -21.04262,47 -47,47 z m -20,63 c 0,-17.58444 -14.46153,-32 -32.5,-32 v -15 c 26.1443,0 47.5,20.95396 47.5,47 z M 92,117.5 c -18.038475,0 -32.5,14.41556 -32.5,32 h -15 c 0,-26.04604 21.355698,-47 47.5,-47 z m -32.5,32 c 0,17.58444 14.461525,32 32.5,32 v 15 c -26.144302,0 -47.5,-20.95395 -47.5,-47 z m 32.5,32 c 18.03847,0 32.5,-14.41556 32.5,-32 h 15 c 0,26.04605 -21.3557,47 -47.5,47 z" /></g></g></svg>